tgl_italic.sfdir
StartChar: exclam
Encoding: 33 33 57
Width: 535
Flags: W
LayerCount: 2
Back
Fore
SplineSet
367 79 m 1,0,1
 346 0 346 0 278 0 c 0,2,3
 250 0 250 0 228 8 c 128,-1,4
 206 16 206 16 191.5 29 c 128,-1,5
 177 42 177 42 169 59 c 128,-1,6
 161 76 161 76 161 94 c 256,7,8
 161 112 161 112 167 133 c 1,9,-1
 167 135 l 1,10,11
 189 214 189 214 255 214 c 0,12,13
 313 214 313 214 343 186.5 c 128,-1,14
 373 159 373 159 373 122 c 0,15,16
 373 103 373 103 368 82 c 1,17,-1
 367 79 l 1,0,1
478 494 m 2,18,19
 457 416 457 416 388 416 c 0,20,21
 331 416 331 416 301.5 444 c 128,-1,22
 272 472 272 472 272 509 c 0,23,24
 272 527 272 527 278 547 c 2,25,-1
 500 1378 l 2,26,27
 521 1455 521 1455 590 1455 c 0,28,29
 647 1455 647 1455 676.5 1427.5 c 128,-1,30
 706 1400 706 1400 706 1362 c 0,31,32
 706 1353 706 1353 705 1344 c 128,-1,33
 704 1335 704 1335 701 1324 c 2,34,-1
 478 494 l 2,18,19
EndSplineSet
EndChar
StartChar: quotedbl
Encoding: 34 34 62
Width: 806
Flags: W
LayerCount: 2
Back
Fore
SplineSet
402 1373 m 2,0,1
 421 1453 421 1453 492 1453 c 0,2,3
 549 1453 549 1453 578 1425 c 128,-1,4
 607 1397 607 1397 607 1358 c 0,5,6
 607 1340 607 1340 603 1325 c 2,7,-1
 559 1145 l 2,8,9
 554 1123 554 1123 545.5 1104.5 c 128,-1,10
 537 1086 537 1086 522.5 1069 c 128,-1,11
 508 1052 508 1052 487.5 1036.5 c 128,-1,12
 467 1021 467 1021 437 1004 c 0,13,14
 405 987 405 987 377 987 c 0,15,16
 361 987 361 987 343.5 996.5 c 128,-1,17
 326 1006 326 1006 312 1022.5 c 128,-1,18
 298 1039 298 1039 288.5 1060 c 128,-1,19
 279 1081 279 1081 279 1104 c 0,20,21
 279 1154 279 1154 338 1186 c 0,22,23
 351 1193 351 1193 361 1201 c 1,24,-1
 402 1373 l 2,0,1
849 1373 m 2,25,26
 868 1453 868 1453 939 1453 c 0,27,28
 996 1453 996 1453 1025 1425 c 128,-1,29
 1054 1397 1054 1397 1054 1359 c 0,30,31
 1054 1340 1054 1340 1051 1325 c 2,32,-1
 1007 1145 l 2,33,34
 996 1101 996 1101 967 1067 c 128,-1,35
 938 1033 938 1033 884 1004 c 0,36,37
 852 987 852 987 825 987 c 0,38,39
 808 987 808 987 790.5 996.5 c 128,-1,40
 773 1006 773 1006 759 1022.5 c 128,-1,41
 745 1039 745 1039 735.5 1060 c 128,-1,42
 726 1081 726 1081 726 1104 c 0,43,44
 726 1154 726 1154 785 1186 c 0,45,46
 798 1193 798 1193 808 1201 c 1,47,-1
 849 1373 l 2,25,26
EndSplineSet
EndChar
StartChar: dollar
Encoding: 36 36 102
Width: 1290
Flags: W
LayerCount: 2
Back
Fore
SplineSet
909 1558 m 2,0,1
 930 1636 930 1636 996 1636 c 0,2,3
 1026 1636 1026 1636 1048 1628.5 c 128,-1,4
 1070 1621 1070 1621 1085 1607.5 c 128,-1,5
 1100 1594 1100 1594 1107.5 1577.5 c 128,-1,6
 1115 1561 1115 1561 1115 1542 c 0,7,8
 1115 1524 1115 1524 1109 1504 c 2,9,-1
 1093 1441 l 1,10,11
 1222 1417 1222 1417 1304.5 1346.5 c 128,-1,12
 1387 1276 1387 1276 1417 1167 c 0,13,14
 1420 1157 1420 1157 1421 1147 c 128,-1,15
 1422 1137 1422 1137 1423 1128 c 1,16,17
 1423 1090 1423 1090 1392.5 1062.5 c 128,-1,18
 1362 1035 1362 1035 1303 1035 c 0,19,20
 1237 1035 1237 1035 1217 1114 c 1,21,22
 1202 1167 1202 1167 1156.5 1197 c 128,-1,23
 1111 1227 1111 1227 1039 1239 c 1,24,-1
 923 808 l 1,25,26
 996 790 996 790 1054.5 758 c 128,-1,27
 1113 726 1113 726 1153.5 684 c 128,-1,28
 1194 642 1194 642 1215 590.5 c 128,-1,29
 1236 539 1236 539 1236 482 c 0,30,31
 1236 423 1236 423 1216 367 c 128,-1,32
 1196 311 1196 311 1160 260.5 c 128,-1,33
 1124 210 1124 210 1074.5 167 c 128,-1,34
 1025 124 1025 124 966 90.5 c 128,-1,35
 907 57 907 57 841 35 c 128,-1,36
 775 13 775 13 708 5 c 1,37,-1
 664 -155 l 2,38,39
 654 -195 654 -195 631 -214.5 c 128,-1,40
 608 -234 608 -234 576 -234 c 0,41,42
 547 -234 547 -234 525 -226 c 128,-1,43
 503 -218 503 -218 488.5 -205.5 c 128,-1,44
 474 -193 474 -193 466.5 -176.5 c 128,-1,45
 459 -160 459 -160 459 -142 c 1,46,47
 458 -133 458 -133 460 -123 c 128,-1,48
 462 -113 462 -113 465 -102 c 2,49,-1
 494 10 l 1,50,51
 403 26 403 26 332 68 c 1,52,53
 330 68 330 68 328 69.5 c 128,-1,54
 326 71 326 71 325 72 c 0,55,56
 201 144 201 144 164 285 c 0,57,58
 161 295 161 295 160 304 c 128,-1,59
 159 313 159 313 159 322 c 0,60,61
 159 341 159 341 166.5 358 c 128,-1,62
 174 375 174 375 188.5 388.5 c 128,-1,63
 203 402 203 402 225.5 410 c 128,-1,64
 248 418 248 418 276 418 c 0,65,66
 342 418 342 418 365 338 c 0,67,68
 381 280 381 280 431 250 c 0,69,70
 433 248 433 248 435 248 c 0,71,72
 481 222 481 222 548 211 c 1,73,-1
 663 642 l 1,74,75
 508 682 508 682 426.5 767.5 c 128,-1,76
 345 853 345 853 345 972 c 0,77,78
 345 1057 345 1057 388.5 1138 c 128,-1,79
 432 1219 432 1219 506 1283.5 c 128,-1,80
 580 1348 580 1348 676.5 1392 c 128,-1,81
 773 1436 773 1436 880 1448 c 1,82,-1
 909 1558 l 2,0,1
714 1179 m 0,83,84
 679 1159 679 1159 649 1134 c 128,-1,85
 619 1109 619 1109 597.5 1081.5 c 128,-1,86
 576 1054 576 1054 564 1025.5 c 128,-1,87
 552 997 552 997 552 970 c 0,88,89
 552 926 552 926 595.5 894 c 128,-1,90
 639 862 639 862 717 842 c 1,91,-1
 820 1225 l 1,92,93
 792 1218 792 1218 766 1206 c 128,-1,94
 740 1194 740 1194 714 1179 c 0,83,84
868 273 m 0,95,96
 935 312 935 312 975 360.5 c 128,-1,97
 1015 409 1015 409 1029 470 c 1,98,-1
 1029 480 l 2,99,100
 1029 524 1029 524 986 558 c 128,-1,101
 943 592 943 592 869 607 c 1,102,-1
 768 229 l 1,103,104
 819 245 819 245 868 273 c 0,95,96
EndSplineSet
EndChar
StartChar: uni0025
Encoding: 37 37 65
Width: 1642
Flags: W
LayerCount: 2
Back
Fore
SplineSet
1146 1396 m 2,0,1
 1177 1456 1177 1456 1227 1456 c 0,2,3
 1252 1456 1252 1456 1273.5 1447 c 128,-1,4
 1295 1438 1295 1438 1311 1423.5 c 128,-1,5
 1327 1409 1327 1409 1336 1391.5 c 128,-1,6
 1345 1374 1345 1374 1345 1358 c 0,7,8
 1345 1333 1345 1333 1329 1301 c 2,9,-1
 677 56 l 1,10,11
 647 -4 647 -4 595 -4 c 0,12,13
 570 -4 570 -4 548.5 5.5 c 128,-1,14
 527 15 527 15 511 28.5 c 128,-1,15
 495 42 495 42 486.5 59.5 c 128,-1,16
 478 77 478 77 478 93 c 0,17,18
 478 120 478 120 493 151 c 1,19,-1
 1146 1396 l 2,0,1
1375 673 m 0,20,21
 1426 673 1426 673 1468.5 653.5 c 128,-1,22
 1511 634 1511 634 1542.5 599 c 128,-1,23
 1574 564 1574 564 1592 516 c 128,-1,24
 1610 468 1610 468 1610 412 c 0,25,26
 1610 330 1610 330 1578 256 c 128,-1,27
 1546 182 1546 182 1495 125 c 128,-1,28
 1444 68 1444 68 1379.5 34 c 128,-1,29
 1315 0 1315 0 1250 0 c 0,30,31
 1197 0 1197 0 1153.5 20 c 128,-1,32
 1110 40 1110 40 1079.5 75.5 c 128,-1,33
 1049 111 1049 111 1032 158.5 c 128,-1,34
 1015 206 1015 206 1015 261 c 0,35,36
 1015 336 1015 336 1044.5 410 c 128,-1,37
 1074 484 1074 484 1124 542 c 128,-1,38
 1174 600 1174 600 1239 636.5 c 128,-1,39
 1304 673 1304 673 1375 673 c 0,20,21
1383 466 m 1,40,-1
 1375 466 l 2,41,42
 1348 466 1348 466 1321 446 c 128,-1,43
 1294 426 1294 426 1272 395.5 c 128,-1,44
 1250 365 1250 365 1236.5 329 c 128,-1,45
 1223 293 1223 293 1223 261 c 0,46,47
 1223 238 1223 238 1228.5 222.5 c 128,-1,48
 1234 207 1234 207 1250 207 c 0,49,50
 1277 207 1277 207 1304 227.5 c 128,-1,51
 1331 248 1331 248 1353 278 c 128,-1,52
 1375 308 1375 308 1388.5 343.5 c 128,-1,53
 1402 379 1402 379 1402 412 c 1,54,-1
 1403 412 l 1,55,56
 1403 431 1403 431 1398.5 445 c 128,-1,57
 1394 459 1394 459 1383 466 c 1,40,-1
577 1452 m 0,58,59
 628 1452 628 1452 671 1432 c 128,-1,60
 714 1412 714 1412 745 1376.5 c 128,-1,61
 776 1341 776 1341 794 1293.5 c 128,-1,62
 812 1246 812 1246 812 1191 c 0,63,64
 812 1109 812 1109 780.5 1035 c 128,-1,65
 749 961 749 961 698.5 904 c 128,-1,66
 648 847 648 847 583 813 c 128,-1,67
 518 779 518 779 452 779 c 0,68,69
 400 779 400 779 357 799 c 128,-1,70
 314 819 314 819 283 853.5 c 128,-1,71
 252 888 252 888 234.5 936.5 c 128,-1,72
 217 985 217 985 217 1041 c 0,73,74
 217 1121 217 1121 248.5 1196 c 128,-1,75
 280 1271 280 1271 331 1328 c 128,-1,76
 382 1385 382 1385 446.5 1418.5 c 128,-1,77
 511 1452 511 1452 577 1452 c 0,58,59
585 1244 m 0,78,79
 584 1245 584 1245 577 1245 c 0,80,81
 552 1245 552 1245 525 1226 c 128,-1,82
 498 1207 498 1207 476 1177.5 c 128,-1,83
 454 1148 454 1148 439.5 1111.5 c 128,-1,84
 425 1075 425 1075 425 1041 c 0,85,86
 425 1019 425 1019 429 1004.5 c 128,-1,87
 433 990 433 990 444 987 c 1,88,-1
 452 987 l 2,89,90
 477 987 477 987 504 1005.5 c 128,-1,91
 531 1024 531 1024 553 1053.5 c 128,-1,92
 575 1083 575 1083 589.5 1119.5 c 128,-1,93
 604 1156 604 1156 604 1191 c 0,94,95
 604 1211 604 1211 600 1225.5 c 128,-1,96
 596 1240 596 1240 585 1244 c 0,78,79
EndSplineSet
EndChar
StartChar: ampersand
Encoding: 38 38 66
Width: 1442
Flags: W
LayerCount: 2
Back
Fore
SplineSet
1205 207 m 0,0,1
 1309 207 1309 207 1309 104 c 0,2,3
 1309 0 1309 0 1205 0 c 0,4,5
 1164 0 1164 0 1108.5 22 c 128,-1,6
 1053 44 1053 44 999 81 c 1,7,8
 837 0 837 0 603 0 c 0,9,10
 506 0 506 0 421.5 25.5 c 128,-1,11
 337 51 337 51 274 96 c 128,-1,12
 211 141 211 141 175 202.5 c 128,-1,13
 139 264 139 264 139 338 c 0,14,15
 139 394 139 394 161.5 450 c 128,-1,16
 184 506 184 506 226 557.5 c 128,-1,17
 268 609 268 609 328.5 655 c 128,-1,18
 389 701 389 701 465 735 c 1,19,-1
 454 749 l 2,20,21
 381 842 381 842 381 968 c 0,22,23
 381 1060 381 1060 419.5 1147 c 128,-1,24
 458 1234 458 1234 525.5 1302 c 128,-1,25
 593 1370 593 1370 683 1411 c 128,-1,26
 773 1452 773 1452 878 1452 c 0,27,28
 947 1452 947 1452 1007 1429 c 128,-1,29
 1067 1406 1067 1406 1111 1364 c 128,-1,30
 1155 1322 1155 1322 1179.5 1264 c 128,-1,31
 1204 1206 1204 1206 1204 1135 c 0,32,33
 1204 1076 1204 1076 1182.5 1012 c 128,-1,34
 1161 948 1161 948 1119 888.5 c 128,-1,35
 1077 829 1077 829 1013.5 776.5 c 128,-1,36
 950 724 950 724 866 687 c 2,37,-1
 792 654 l 1,38,-1
 1029 352 l 1,39,40
 1073 395 1073 395 1108.5 448.5 c 128,-1,41
 1144 502 1144 502 1178 561 c 0,42,43
 1195 590 1195 590 1213 604.5 c 128,-1,44
 1231 619 1231 619 1257 619 c 0,45,46
 1280 619 1280 619 1301.5 609.5 c 128,-1,47
 1323 600 1323 600 1339.5 585.5 c 128,-1,48
 1356 571 1356 571 1366 553.5 c 128,-1,49
 1376 536 1376 536 1376 520 c 0,50,51
 1376 493 1376 493 1358 461 c 0,52,53
 1320 392 1320 392 1278.5 329.5 c 128,-1,54
 1237 267 1237 267 1184 214 c 1,55,56
 1195 207 1195 207 1205 207 c 0,0,1
852 243 m 1,57,-1
 597 568 l 1,58,-1
 557 550 l 2,59,60
 511 530 511 530 472 503.5 c 128,-1,61
 433 477 433 477 405 448.5 c 128,-1,62
 377 420 377 420 361 391.5 c 128,-1,63
 345 363 345 363 345 339 c 0,64,65
 345 312 345 312 366 287.5 c 128,-1,66
 387 263 387 263 423 245.5 c 128,-1,67
 459 228 459 228 505.5 217.5 c 128,-1,68
 552 207 552 207 603 207 c 0,69,70
 746 207 746 207 852 243 c 1,57,-1
617 877 m 2,71,-1
 660 822 l 1,72,-1
 782 876 l 2,73,74
 828 896 828 896 867.5 925.5 c 128,-1,75
 907 955 907 955 935.5 990 c 128,-1,76
 964 1025 964 1025 980 1062.5 c 128,-1,77
 996 1100 996 1100 996 1135 c 0,78,79
 996 1185 996 1185 968.5 1215 c 128,-1,80
 941 1245 941 1245 878 1245 c 0,81,82
 823 1245 823 1245 771 1224 c 128,-1,83
 719 1203 719 1203 678.5 1165.5 c 128,-1,84
 638 1128 638 1128 613.5 1077.5 c 128,-1,85
 589 1027 589 1027 589 968 c 0,86,87
 589 913 589 913 617 877 c 2,71,-1
EndSplineSet
EndChar
StartChar: quotesingle
Encoding: 39 39 61
Width: 412
Flags: W
LayerCount: 2
Back
Fore
SplineSet
407 1373 m 2,0,1
 426 1453 426 1453 497 1453 c 0,2,3
 554 1453 554 1453 583 1425 c 128,-1,4
 612 1397 612 1397 612 1358 c 0,5,6
 612 1340 612 1340 608 1325 c 2,7,-1
 564 1145 l 2,8,9
 559 1123 559 1123 550 1104.5 c 128,-1,10
 541 1086 541 1086 527 1069 c 128,-1,11
 513 1052 513 1052 492.5 1036.5 c 128,-1,12
 472 1021 472 1021 442 1004 c 0,13,14
 410 987 410 987 382 987 c 0,15,16
 366 987 366 987 348.5 996.5 c 128,-1,17
 331 1006 331 1006 317 1022.5 c 128,-1,18
 303 1039 303 1039 293.5 1060 c 128,-1,19
 284 1081 284 1081 284 1104 c 0,20,21
 284 1154 284 1154 343 1186 c 0,22,23
 356 1193 356 1193 366 1201 c 1,24,-1
 407 1373 l 2,0,1
EndSplineSet
EndChar
StartChar: parenleft
Encoding: 40 40 67
Width: 550
Flags: W
LayerCount: 2
Back
Fore
SplineSet
684 1523 m 0,0,1
 721 1563 721 1563 759 1563 c 0,2,3
 777 1563 777 1563 797 1552.5 c 128,-1,4
 817 1542 817 1542 833 1525.5 c 128,-1,5
 849 1509 849 1509 859.5 1489.5 c 128,-1,6
 870 1470 870 1470 870 1452 c 0,7,8
 870 1418 870 1418 836 1382 c 0,9,10
 586 1112 586 1112 463.5 838.5 c 128,-1,11
 341 565 341 565 341 283 c 0,12,13
 341 104 341 104 389 -77 c 0,14,15
 391 -87 391 -87 392.5 -96 c 128,-1,16
 394 -105 394 -105 394 -114 c 0,17,18
 394 -133 394 -133 386.5 -150 c 128,-1,19
 379 -167 379 -167 364.5 -180 c 128,-1,20
 350 -193 350 -193 328.5 -200.5 c 128,-1,21
 307 -208 307 -208 278 -208 c 0,22,23
 209 -208 209 -208 189 -129 c 1,24,25
 161 -25 161 -25 148.5 78.5 c 128,-1,26
 136 182 136 182 136 284 c 0,27,28
 136 606 136 606 271.5 914.5 c 128,-1,29
 407 1223 407 1223 684 1523 c 0,0,1
EndSplineSet
EndChar
StartChar: asterisk
Encoding: 42 42 201
Width: 957
Flags: W
LayerCount: 2
Back
Fore
SplineSet
560 1348 m 2,0,1
 565 1369 565 1369 577.5 1388 c 128,-1,2
 590 1407 590 1407 607 1421.5 c 128,-1,3
 624 1436 624 1436 644.5 1444 c 128,-1,4
 665 1452 665 1452 687 1452 c 256,5,6
 709 1452 709 1452 725.5 1444 c 128,-1,7
 742 1436 742 1436 753.5 1421.5 c 128,-1,8
 765 1407 765 1407 769 1388.5 c 128,-1,9
 773 1370 773 1370 768 1348 c 2,10,-1
 740 1217 l 1,11,-1
 868 1282 l 2,12,13
 895 1296 895 1296 922 1296 c 0,14,15
 942 1296 942 1296 959.5 1288 c 128,-1,16
 977 1280 977 1280 988 1267 c 128,-1,17
 999 1254 999 1254 1003.5 1235 c 128,-1,18
 1008 1216 1008 1216 1003 1194 c 0,19,20
 996 1164 996 1164 977.5 1140 c 128,-1,21
 959 1116 959 1116 934 1104 c 2,22,-1
 805 1038 l 1,23,-1
 904 971 l 2,24,25
 924 957 924 957 933.5 933.5 c 128,-1,26
 943 910 943 910 937 880 c 0,27,28
 931 855 931 855 917 836 c 128,-1,29
 903 817 903 817 885 804 c 128,-1,30
 867 791 867 791 846 784.5 c 128,-1,31
 825 778 825 778 808 778 c 1,32,33
 793 777 793 777 782.5 781 c 128,-1,34
 772 785 772 785 762 792 c 2,35,-1
 662 858 l 1,36,-1
 634 726 l 2,37,38
 629 705 629 705 616.5 686 c 128,-1,39
 604 667 604 667 586.5 653 c 128,-1,40
 569 639 569 639 549 630.5 c 128,-1,41
 529 622 529 622 507 622 c 256,42,43
 485 622 485 622 468 630.5 c 128,-1,44
 451 639 451 639 440 653 c 128,-1,45
 429 667 429 667 425.5 686 c 128,-1,46
 422 705 422 705 427 726 c 2,47,-1
 455 858 l 1,48,-1
 326 792 l 2,49,50
 300 778 300 778 273 778 c 0,51,52
 253 778 253 778 235 785.5 c 128,-1,53
 217 793 217 793 206 807 c 128,-1,54
 195 821 195 821 190 839.5 c 128,-1,55
 185 858 185 858 190 882 c 0,56,57
 197 912 197 912 215.5 934.5 c 128,-1,58
 234 957 234 957 260 971 c 2,59,-1
 391 1038 l 1,60,-1
 290 1104 l 1,61,62
 268 1115 268 1115 259 1139 c 128,-1,63
 250 1163 250 1163 256 1193 c 0,64,65
 261 1214 261 1214 273.5 1232.5 c 128,-1,66
 286 1251 286 1251 303 1265.5 c 128,-1,67
 320 1280 320 1280 342 1288 c 128,-1,68
 364 1296 364 1296 385 1296 c 0,69,70
 411 1297 411 1297 432 1282 c 1,71,-1
 533 1217 l 1,72,-1
 560 1348 l 2,0,1
EndSplineSet
EndChar
StartChar: comma
Encoding: 44 44 70
Width: 363
Flags: W
LayerCount: 2
Back
Fore
SplineSet
116 27 m 2,0,1
 137 106 137 106 203 106 c 0,2,3
 232 106 232 106 254 98 c 128,-1,4
 276 90 276 90 291 77.5 c 128,-1,5
 306 65 306 65 313.5 47.5 c 128,-1,6
 321 30 321 30 321 13 c 0,7,8
 321 -5 321 -5 315 -26 c 2,9,-1
 267 -209 l 2,10,11
 256 -254 256 -254 232 -289.5 c 128,-1,12
 208 -325 208 -325 176.5 -349.5 c 128,-1,13
 145 -374 145 -374 107.5 -387.5 c 128,-1,14
 70 -401 70 -401 28 -401 c 0,15,16
 -75 -401 -75 -401 -75 -297 c 256,17,18
 -75 -193 -75 -193 28 -193 c 0,19,20
 46 -193 46 -193 53.5 -183 c 128,-1,21
 61 -173 61 -173 67 -156 c 1,22,-1
 116 27 l 2,0,1
EndSplineSet
EndChar
StartChar: slash
Encoding: 47 47 72
Width: 907
Flags: W
LayerCount: 2
Back
Fore
SplineSet
837 1396 m 2,0,1
 869 1456 869 1456 919 1456 c 0,2,3
 943 1456 943 1456 965 1447 c 128,-1,4
 987 1438 987 1438 1002.5 1423.5 c 128,-1,5
 1018 1409 1018 1409 1027.5 1391.5 c 128,-1,6
 1037 1374 1037 1374 1037 1358 c 0,7,8
 1037 1333 1037 1333 1020 1301 c 2,9,-1
 369 56 l 2,10,11
 338 -4 338 -4 286 -4 c 0,12,13
 261 -4 261 -4 239.5 5.5 c 128,-1,14
 218 15 218 15 202.5 28.5 c 128,-1,15
 187 42 187 42 178 59.5 c 128,-1,16
 169 77 169 77 169 93 c 0,17,18
 169 120 169 120 185 151 c 2,19,-1
 837 1396 l 2,0,1
EndSplineSet
EndChar
StartChar: three
Encoding: 51 51 76
Width: 1068
Flags: W
LayerCount: 2
Back
Fore
SplineSet
592 1089 m 1,0,1
 555 1035 555 1035 510 1035 c 0,2,3
 488 1035 488 1035 467 1044.5 c 128,-1,4
 446 1054 446 1054 430 1069 c 128,-1,5
 414 1084 414 1084 404 1101.5 c 128,-1,6
 394 1119 394 1119 394 1136 c 0,7,8
 394 1166 394 1166 414.5 1201 c 128,-1,9
 435 1236 435 1236 466.5 1269.5 c 128,-1,10
 498 1303 498 1303 535.5 1332.5 c 128,-1,11
 573 1362 573 1362 606 1382 c 0,12,13
 725 1452 725 1452 851 1452 c 0,14,15
 924 1452 924 1452 986.5 1427 c 128,-1,16
 1049 1402 1049 1402 1095 1357.5 c 128,-1,17
 1141 1313 1141 1313 1167.5 1251.5 c 128,-1,18
 1194 1190 1194 1190 1194 1117 c 0,19,20
 1194 1056 1194 1056 1177 998 c 128,-1,21
 1160 940 1160 940 1129 887.5 c 128,-1,22
 1098 835 1098 835 1053 789.5 c 128,-1,23
 1008 744 1008 744 954 708 c 1,24,25
 991 659 991 659 1009 608 c 128,-1,26
 1027 557 1027 557 1027 495 c 0,27,28
 1027 431 1027 431 1007.5 370 c 128,-1,29
 988 309 988 309 953 254 c 128,-1,30
 918 199 918 199 870 152.5 c 128,-1,31
 822 106 822 106 765.5 72 c 128,-1,32
 709 38 709 38 646 19 c 128,-1,33
 583 0 583 0 518 0 c 0,34,35
 450 0 450 0 387.5 23 c 128,-1,36
 325 46 325 46 278 88 c 128,-1,37
 231 130 231 130 203 188 c 128,-1,38
 175 246 175 246 175 315 c 0,39,40
 175 364 175 364 202.5 389.5 c 128,-1,41
 230 415 230 415 284 415 c 0,42,43
 374 415 374 415 382 319 c 0,44,45
 386 267 386 267 421.5 236.5 c 128,-1,46
 457 206 457 206 518 206 c 0,47,48
 569 206 569 206 622.5 230.5 c 128,-1,49
 676 255 676 255 720 295 c 128,-1,50
 764 335 764 335 792 387 c 128,-1,51
 820 439 820 439 820 495 c 0,52,53
 820 556 820 556 783 589 c 128,-1,54
 746 622 746 622 686 622 c 0,55,56
 665 622 665 622 647.5 630 c 128,-1,57
 630 638 630 638 616 652 c 128,-1,58
 602 666 602 666 594.5 685 c 128,-1,59
 587 704 587 704 587 725 c 256,60,61
 587 746 587 746 594.5 764.5 c 128,-1,62
 602 783 602 783 615.5 797 c 128,-1,63
 629 811 629 811 646.5 819.5 c 128,-1,64
 664 828 664 828 684 828 c 0,65,66
 735 829 735 829 789 853.5 c 128,-1,67
 843 878 843 878 887 918 c 128,-1,68
 931 958 931 958 959 1009.5 c 128,-1,69
 987 1061 987 1061 987 1117 c 0,70,71
 987 1144 987 1144 978.5 1167 c 128,-1,72
 970 1190 970 1190 953.5 1207 c 128,-1,73
 937 1224 937 1224 911 1234.5 c 128,-1,74
 885 1245 885 1245 851 1245 c 0,75,76
 815 1245 815 1245 777.5 1233 c 128,-1,77
 740 1221 740 1221 705.5 1199.5 c 128,-1,78
 671 1178 671 1178 641.5 1149.5 c 128,-1,79
 612 1121 612 1121 592 1089 c 1,0,1
EndSplineSet
EndChar
StartChar: four
Encoding: 52 52 77
Width: 1082
Flags: W
LayerCount: 2
Back
Fore
SplineSet
887 649 m 2,0,1
 908 727 908 727 976 727 c 0,2,3
 1034 727 1034 727 1063.5 699.5 c 128,-1,4
 1093 672 1093 672 1093 635 c 0,5,6
 1093 617 1093 617 1087 597 c 2,7,-1
 1053 464 l 1,8,9
 1137 448 1137 448 1137 363 c 0,10,11
 1137 259 1137 259 1034 259 c 2,12,-1
 999 259 l 1,13,-1
 952 78 l 2,14,15
 932 -1 932 -1 864 -1 c 0,16,17
 806 -1 806 -1 776.5 26.5 c 128,-1,18
 747 54 747 54 747 91 c 0,19,20
 747 100 747 100 748 109.5 c 128,-1,21
 749 119 749 119 752 130 c 2,22,-1
 786 259 l 1,23,-1
 306 259 l 2,24,25
 279 259 279 259 258 269 c 128,-1,26
 237 279 237 279 221.5 294 c 128,-1,27
 206 309 206 309 198.5 326 c 128,-1,28
 191 343 191 343 191 359 c 0,29,30
 192 375 192 375 198 392.5 c 128,-1,31
 204 410 204 410 218 427 c 2,32,-1
 1000 1413 l 2,33,34
 1036 1457 1036 1457 1078 1457 c 0,35,36
 1099 1457 1099 1457 1119 1447 c 128,-1,37
 1139 1437 1139 1437 1155 1421 c 128,-1,38
 1171 1405 1171 1405 1181 1386.5 c 128,-1,39
 1191 1368 1191 1368 1191 1351 c 0,40,41
 1191 1319 1191 1319 1164 1284 c 2,42,-1
 513 467 l 1,43,-1
 839 467 l 1,44,-1
 887 649 l 2,0,1
EndSplineSet
EndChar
StartChar: five
Encoding: 53 53 78
Width: 1113
Flags: W
LayerCount: 2
Back
Fore
SplineSet
1206 1452 m 2,0,1
 1310 1452 1310 1452 1310 1348 c 0,2,3
 1310 1245 1310 1245 1206 1245 c 2,4,-1
 666 1245 l 1,5,-1
 576 909 l 1,6,7
 653 934 653 934 735 934 c 0,8,9
 811 934 811 934 875.5 906 c 128,-1,10
 940 878 940 878 987.5 828.5 c 128,-1,11
 1035 779 1035 779 1061.5 713 c 128,-1,12
 1088 647 1088 647 1088 569 c 0,13,14
 1088 493 1088 493 1066 422 c 128,-1,15
 1044 351 1044 351 1005 288 c 128,-1,16
 966 225 966 225 913.5 172 c 128,-1,17
 861 119 861 119 800 80.5 c 128,-1,18
 739 42 739 42 672.5 21 c 128,-1,19
 606 0 606 0 540 0 c 0,20,21
 480 0 480 0 425.5 17.5 c 128,-1,22
 371 35 371 35 327.5 68 c 128,-1,23
 284 101 284 101 252 147.5 c 128,-1,24
 220 194 220 194 204 251 c 0,25,26
 199 271 199 271 199 290 c 256,27,28
 199 309 199 309 206.5 326 c 128,-1,29
 214 343 214 343 229 356 c 128,-1,30
 244 369 244 369 265.5 376.5 c 128,-1,31
 287 384 287 384 315 384 c 0,32,33
 379 384 379 384 403 307 c 1,34,35
 417 256 417 256 453 231.5 c 128,-1,36
 489 207 489 207 540 207 c 0,37,38
 578 207 578 207 618 221 c 128,-1,39
 658 235 658 235 695.5 260 c 128,-1,40
 733 285 733 285 766.5 319 c 128,-1,41
 800 353 800 353 825 392.5 c 128,-1,42
 850 432 850 432 865 477.5 c 128,-1,43
 880 523 880 523 880 569 c 0,44,45
 880 640 880 640 843 683 c 128,-1,46
 806 726 806 726 735 726 c 0,47,48
 706 726 706 726 680 722 c 128,-1,49
 654 718 654 718 625.5 707.5 c 128,-1,50
 597 697 597 697 562 678 c 128,-1,51
 527 659 527 659 478 629 c 0,52,53
 462 619 462 619 448 614 c 128,-1,54
 434 609 434 609 418 609 c 0,55,56
 391 609 391 609 371 617 c 128,-1,57
 351 625 351 625 337.5 638 c 128,-1,58
 324 651 324 651 318 667 c 128,-1,59
 312 683 312 683 312 700 c 1,60,61
 311 709 311 709 312.5 719 c 128,-1,62
 314 729 314 729 317 740 c 2,63,-1
 485 1370 l 1,64,65
 501 1452 501 1452 588 1452 c 2,66,-1
 1206 1452 l 2,0,1
EndSplineSet
EndChar
StartChar: six
Encoding: 54 54 79
Width: 1102
Flags: W
LayerCount: 2
Back
Fore
SplineSet
1228 1236 m 0,0,1
 1231 1220 1231 1220 1231 1206 c 0,2,3
 1231 1165 1231 1165 1201.5 1137.5 c 128,-1,4
 1172 1110 1172 1110 1114 1110 c 0,5,6
 1042 1110 1042 1110 1025 1195 c 0,7,8
 1020 1218 1020 1218 988.5 1231.5 c 128,-1,9
 957 1245 957 1245 915 1245 c 0,10,11
 872 1245 872 1245 821.5 1222.5 c 128,-1,12
 771 1200 771 1200 720 1156.5 c 128,-1,13
 669 1113 669 1113 619.5 1050 c 128,-1,14
 570 987 570 987 528 905 c 1,15,16
 622 934 622 934 740 934 c 0,17,18
 824 934 824 934 894 908 c 128,-1,19
 964 882 964 882 1014.5 835 c 128,-1,20
 1065 788 1065 788 1093.5 721 c 128,-1,21
 1122 654 1122 654 1122 570 c 0,22,23
 1122 503 1122 503 1105 437.5 c 128,-1,24
 1088 372 1088 372 1059 314 c 128,-1,25
 1030 256 1030 256 990.5 205.5 c 128,-1,26
 951 155 951 155 907 119 c 0,27,28
 834 59 834 59 747.5 29.5 c 128,-1,29
 661 0 661 0 563 0 c 0,30,31
 478 0 478 0 410 28 c 128,-1,32
 342 56 342 56 295 109.5 c 128,-1,33
 248 163 248 163 223 241 c 128,-1,34
 198 319 198 319 198 420 c 0,35,36
 198 561 198 561 248 753 c 0,37,38
 272 845 272 845 311.5 932.5 c 128,-1,39
 351 1020 351 1020 401 1097.5 c 128,-1,40
 451 1175 451 1175 511.5 1240.5 c 128,-1,41
 572 1306 572 1306 638 1353 c 128,-1,42
 704 1400 704 1400 774 1426 c 128,-1,43
 844 1452 844 1452 915 1452 c 0,44,45
 974 1452 974 1452 1026 1437.5 c 128,-1,46
 1078 1423 1078 1423 1119.5 1395 c 128,-1,47
 1161 1367 1161 1367 1189.5 1326.5 c 128,-1,48
 1218 1286 1218 1286 1228 1236 c 0,0,1
415 540 m 0,49,50
 410 504 410 504 407.5 474 c 128,-1,51
 405 444 405 444 405 420 c 0,52,53
 405 365 405 365 413.5 325 c 128,-1,54
 422 285 422 285 440.5 259 c 128,-1,55
 459 233 459 233 489.5 220 c 128,-1,56
 520 207 520 207 563 207 c 0,57,58
 689 207 689 207 777.5 280.5 c 128,-1,59
 866 354 866 354 905 493 c 0,60,61
 916 531 916 531 916 570 c 0,62,63
 916 639 916 639 877 680.5 c 128,-1,64
 838 722 838 722 758 727 c 1,65,66
 702 727 702 727 650 719.5 c 128,-1,67
 598 712 598 712 554 692.5 c 128,-1,68
 510 673 510 673 474.5 636.5 c 128,-1,69
 439 600 439 600 417 543 c 1,70,71
 415 541 415 541 415 540 c 0,49,50
EndSplineSet
EndChar
StartChar: seven
Encoding: 55 55 80
Width: 1124
Flags: W
LayerCount: 2
Back
Fore
SplineSet
646 1114 m 1,0,1
 623 1035 623 1035 558 1035 c 0,2,3
 500 1035 500 1035 470 1062.5 c 128,-1,4
 440 1090 440 1090 440 1127 c 0,5,6
 440 1145 440 1145 446 1167 c 2,7,-1
 501 1376 l 2,8,9
 522 1452 522 1452 601 1452 c 2,10,-1
 1205 1452 l 2,11,12
 1308 1452 1308 1452 1308 1348 c 0,13,14
 1308 1311 1308 1311 1289 1288 c 1,15,-1
 564 52 l 2,16,17
 532 -4 532 -4 484 -4 c 0,18,19
 460 -4 460 -4 439 5.5 c 128,-1,20
 418 15 418 15 401.5 29.5 c 128,-1,21
 385 44 385 44 376 62 c 128,-1,22
 367 80 367 80 367 95 c 0,23,24
 367 123 367 123 386 156 c 2,25,-1
 1024 1245 l 1,26,-1
 681 1245 l 1,27,-1
 646 1114 l 1,0,1
EndSplineSet
EndChar
StartChar: eight
Encoding: 56 56 81
Width: 1069
Flags: W
LayerCount: 2
Back
Fore
SplineSet
760 718 m 0,0,1
 730 726 730 726 701 726 c 0,2,3
 636 726 636 726 570 696 c 128,-1,4
 504 666 504 666 451 616.5 c 128,-1,5
 398 567 398 567 364.5 503.5 c 128,-1,6
 331 440 331 440 331 372 c 0,7,8
 331 294 331 294 379 250.5 c 128,-1,9
 427 207 427 207 506 207 c 0,10,11
 567 207 567 207 632.5 236 c 128,-1,12
 698 265 698 265 752 314 c 128,-1,13
 806 363 806 363 841 426.5 c 128,-1,14
 876 490 876 490 876 561 c 0,15,16
 876 622 876 622 845.5 663.5 c 128,-1,17
 815 705 815 705 760 718 c 0,0,1
974 829 m 1,18,19
 1029 770 1029 770 1056 705.5 c 128,-1,20
 1083 641 1083 641 1083 561 c 0,21,22
 1083 487 1083 487 1060 417 c 128,-1,23
 1037 347 1037 347 997 284.5 c 128,-1,24
 957 222 957 222 902 170 c 128,-1,25
 847 118 847 118 782.5 80 c 128,-1,26
 718 42 718 42 648 21 c 128,-1,27
 578 0 578 0 506 0 c 0,28,29
 422 0 422 0 351.5 28.5 c 128,-1,30
 281 57 281 57 230.5 106.5 c 128,-1,31
 180 156 180 156 152 224.5 c 128,-1,32
 124 293 124 293 124 372 c 0,33,34
 124 448 124 448 146.5 519.5 c 128,-1,35
 169 591 169 591 211 653.5 c 128,-1,36
 253 716 253 716 311.5 770 c 128,-1,37
 370 824 370 824 441 864 c 1,38,39
 398 934 398 934 398 1022 c 0,40,41
 398 1106 398 1106 435 1183.5 c 128,-1,42
 472 1261 472 1261 533.5 1321 c 128,-1,43
 595 1381 595 1381 674.5 1416.5 c 128,-1,44
 754 1452 754 1452 839 1452 c 0,45,46
 906 1452 906 1452 962 1428 c 128,-1,47
 1018 1404 1018 1404 1058.5 1364 c 128,-1,48
 1099 1324 1099 1324 1121 1270.5 c 128,-1,49
 1143 1217 1143 1217 1143 1157 c 0,50,51
 1143 1063 1143 1063 1097.5 977.5 c 128,-1,52
 1052 892 1052 892 974 829 c 1,18,19
666 938 m 1,53,54
 678 934 678 934 701 934 c 0,55,56
 737 934 737 934 778.5 951.5 c 128,-1,57
 820 969 820 969 854 999.5 c 128,-1,58
 888 1030 888 1030 911.5 1070 c 128,-1,59
 935 1110 935 1110 935 1157 c 0,60,61
 935 1199 935 1199 909.5 1222 c 128,-1,62
 884 1245 884 1245 839 1245 c 0,63,64
 798 1245 798 1245 756 1225 c 128,-1,65
 714 1205 714 1205 681 1173.5 c 128,-1,66
 648 1142 648 1142 626.5 1101.5 c 128,-1,67
 605 1061 605 1061 605 1022 c 0,68,69
 605 985 605 985 622 964.5 c 128,-1,70
 639 944 639 944 666 938 c 1,53,54
EndSplineSet
EndChar
StartChar: question
Encoding: 63 63 84
Width: 1108
Flags: W
LayerCount: 2
Back
Fore
SplineSet
411 1011 m 1,0,1
 381 937 381 937 302 937 c 0,2,3
 278 937 278 937 261 946 c 128,-1,4
 244 955 244 955 232 970 c 128,-1,5
 220 985 220 985 214 1002.5 c 128,-1,6
 208 1020 208 1020 208 1037 c 0,7,8
 208 1074 208 1074 225 1116.5 c 128,-1,9
 242 1159 242 1159 269 1199 c 128,-1,10
 296 1239 296 1239 329.5 1276 c 128,-1,11
 363 1313 363 1313 397 1339 c 0,12,13
 465 1393 465 1393 545.5 1422.5 c 128,-1,14
 626 1452 626 1452 706 1452 c 0,15,16
 774 1452 774 1452 836 1429 c 128,-1,17
 898 1406 898 1406 945.5 1362.5 c 128,-1,18
 993 1319 993 1319 1020.5 1256 c 128,-1,19
 1048 1193 1048 1193 1048 1114 c 0,20,21
 1048 1058 1048 1058 1031.5 1001.5 c 128,-1,22
 1015 945 1015 945 987 894 c 128,-1,23
 959 843 959 843 920.5 801 c 128,-1,24
 882 759 882 759 839 730 c 0,25,26
 825 721 825 721 812 713 c 128,-1,27
 799 705 799 705 781 693 c 128,-1,28
 763 681 763 681 737.5 663 c 128,-1,29
 712 645 712 645 674 614 c 0,30,31
 600 555 600 555 580 480 c 1,32,33
 550 404 550 404 477 404 c 0,34,35
 451 404 451 404 433 413 c 128,-1,36
 415 422 415 422 402 436 c 128,-1,37
 389 450 389 450 383 468.5 c 128,-1,38
 377 487 377 487 377 508 c 0,39,40
 377 514 377 514 377.5 520.5 c 128,-1,41
 378 527 378 527 379 534 c 0,42,43
 415 667 415 667 517 752 c 0,44,45
 569 795 569 795 603.5 821 c 128,-1,46
 638 847 638 847 660 862 c 128,-1,47
 682 877 682 877 694 883 c 128,-1,48
 706 889 706 889 711 894 c 1,49,50
 768 933 768 933 804 990 c 128,-1,51
 840 1047 840 1047 840 1120 c 0,52,53
 840 1176 840 1176 805 1210.5 c 128,-1,54
 770 1245 770 1245 706 1245 c 0,55,56
 662 1245 662 1245 615.5 1227.5 c 128,-1,57
 569 1210 569 1210 527 1178.5 c 128,-1,58
 485 1147 485 1147 454 1104 c 128,-1,59
 423 1061 423 1061 411 1011 c 1,0,1
481 79 m 1,60,61
 454 4 454 4 379 4 c 0,62,63
 354 4 354 4 334.5 12.5 c 128,-1,64
 315 21 315 21 302.5 34.5 c 128,-1,65
 290 48 290 48 283.5 65.5 c 128,-1,66
 277 83 277 83 277 100 c 0,67,68
 277 118 277 118 281 133 c 1,69,-1
 281 135 l 1,70,71
 310 210 310 210 382 210 c 0,72,73
 411 210 411 210 430 200.5 c 128,-1,74
 449 191 449 191 461 174.5 c 128,-1,75
 473 158 473 158 478.5 138.5 c 128,-1,76
 484 119 484 119 484 98 c 0,77,78
 484 94 484 94 484 90 c 128,-1,79
 484 86 484 86 482 82 c 2,80,-1
 481 79 l 1,60,61
EndSplineSet
EndChar
StartChar: B
Encoding: 66 66 31
Width: 1317
Flags: W
LayerCount: 2
Back
Fore
SplineSet
758 207 m 2,0,1
 808 207 808 207 861.5 231 c 128,-1,2
 915 255 915 255 958.5 294.5 c 128,-1,3
 1002 334 1002 334 1030.5 386 c 128,-1,4
 1059 438 1059 438 1059 496 c 0,5,6
 1059 556 1059 556 1023 589 c 128,-1,7
 987 622 987 622 925 622 c 2,8,-1
 485 622 l 1,9,-1
 374 207 l 1,10,-1
 758 207 l 2,0,1
925 830 m 2,11,12
 974 830 974 830 1027.5 853.5 c 128,-1,13
 1081 877 1081 877 1125 916.5 c 128,-1,14
 1169 956 1169 956 1197.5 1008 c 128,-1,15
 1226 1060 1226 1060 1226 1118 c 0,16,17
 1226 1174 1226 1174 1191 1209.5 c 128,-1,18
 1156 1245 1156 1245 1091 1245 c 2,19,-1
 653 1245 l 1,20,-1
 540 830 l 1,21,-1
 925 830 l 2,11,12
305 748 m 1,22,23
 306 757 306 757 308 759 c 1,24,-1
 472 1370 l 1,25,26
 486 1452 486 1452 573 1452 c 2,27,-1
 1091 1452 l 2,28,29
 1164 1452 1164 1452 1226 1427 c 128,-1,30
 1288 1402 1288 1402 1334.5 1357.5 c 128,-1,31
 1381 1313 1381 1313 1407.5 1251.5 c 128,-1,32
 1434 1190 1434 1190 1434 1118 c 0,33,34
 1434 1055 1434 1055 1416 996.5 c 128,-1,35
 1398 938 1398 938 1367 885.5 c 128,-1,36
 1336 833 1336 833 1291.5 788 c 128,-1,37
 1247 743 1247 743 1194 708 c 1,38,-1
 1193 708 l 1,39,-1
 1202 699 l 1,40,41
 1267 611 1267 611 1267 496 c 0,42,43
 1267 429 1267 429 1246.5 366.5 c 128,-1,44
 1226 304 1226 304 1190.5 249 c 128,-1,45
 1155 194 1155 194 1106 148 c 128,-1,46
 1057 102 1057 102 1000.5 69 c 128,-1,47
 944 36 944 36 882 18 c 128,-1,48
 820 0 820 0 758 0 c 2,49,-1
 239 0 l 2,50,51
 187 0 187 0 160.5 28.5 c 128,-1,52
 134 57 134 57 134 92 c 0,53,54
 134 101 134 101 135 110.5 c 128,-1,55
 136 120 136 120 139 131 c 2,56,-1
 305 748 l 1,22,23
EndSplineSet
EndChar
StartChar: C
Encoding: 67 67 32
Width: 1157
Flags: W
LayerCount: 2
Back
Fore
SplineSet
896 379 m 0,0,1
 932 422 932 422 972 422 c 0,2,3
 991 422 991 422 1011 411.5 c 128,-1,4
 1031 401 1031 401 1047 385.5 c 128,-1,5
 1063 370 1063 370 1073.5 350.5 c 128,-1,6
 1084 331 1084 331 1084 314 c 0,7,8
 1084 284 1084 284 1057.5 248 c 128,-1,9
 1031 212 1031 212 992 177.5 c 128,-1,10
 953 143 953 143 908.5 114 c 128,-1,11
 864 85 864 85 827 67 c 0,12,13
 692 0 692 0 558 0 c 0,14,15
 441 0 441 0 363 32 c 128,-1,16
 285 64 285 64 238 119 c 128,-1,17
 191 174 191 174 171 247.5 c 128,-1,18
 151 321 151 321 151 404 c 0,19,20
 151 445 151 445 156.5 489.5 c 128,-1,21
 162 534 162 534 170.5 578.5 c 128,-1,22
 179 623 179 623 189.5 667 c 128,-1,23
 200 711 200 711 211 753 c 0,24,25
 231 826 231 826 257.5 907 c 128,-1,26
 284 988 284 988 322 1065.5 c 128,-1,27
 360 1143 360 1143 411.5 1213 c 128,-1,28
 463 1283 463 1283 531.5 1336.5 c 128,-1,29
 600 1390 600 1390 689.5 1421 c 128,-1,30
 779 1452 779 1452 892 1452 c 0,31,32
 963 1452 963 1452 1026.5 1433 c 128,-1,33
 1090 1414 1090 1414 1142 1378 c 128,-1,34
 1194 1342 1194 1342 1232.5 1291.5 c 128,-1,35
 1271 1241 1271 1241 1291 1178 c 0,36,37
 1299 1153 1299 1153 1299 1134 c 0,38,39
 1299 1116 1299 1116 1291 1099 c 128,-1,40
 1283 1082 1283 1082 1268 1068.5 c 128,-1,41
 1253 1055 1253 1055 1231 1047.5 c 128,-1,42
 1209 1040 1209 1040 1180 1040 c 0,43,44
 1118 1040 1118 1040 1095 1114 c 1,45,46
 1071 1178 1071 1178 1019 1211.5 c 128,-1,47
 967 1245 967 1245 892 1245 c 0,48,49
 810 1245 810 1245 746.5 1220 c 128,-1,50
 683 1195 683 1195 635 1152.5 c 128,-1,51
 587 1110 587 1110 551.5 1055 c 128,-1,52
 516 1000 516 1000 489.5 940 c 128,-1,53
 463 880 463 880 444.5 818 c 128,-1,54
 426 756 426 756 411 700 c 0,55,56
 401 663 401 663 391.5 624.5 c 128,-1,57
 382 586 382 586 375 547.5 c 128,-1,58
 368 509 368 509 363.5 472.5 c 128,-1,59
 359 436 359 436 359 404 c 0,60,61
 359 363 359 363 366 327 c 128,-1,62
 373 291 373 291 395 264.5 c 128,-1,63
 417 238 417 238 455.5 222.5 c 128,-1,64
 494 207 494 207 558 207 c 0,65,66
 651 207 651 207 739.5 253.5 c 128,-1,67
 828 300 828 300 896 379 c 0,0,1
EndSplineSet
EndChar
StartChar: F
Encoding: 70 70 34
Width: 1279
Flags: W
LayerCount: 2
Back
Fore
SplineSet
1366 1452 m 2,0,1
 1470 1452 1470 1452 1470 1348 c 0,2,3
 1470 1245 1470 1245 1366 1245 c 2,4,-1
 616 1245 l 1,5,-1
 504 830 l 1,6,-1
 992 830 l 2,7,8
 1096 830 1096 830 1096 726 c 256,9,10
 1096 622 1096 622 992 622 c 2,11,-1
 449 622 l 1,12,-1
 303 77 l 2,13,14
 282 -1 282 -1 213 -1 c 0,15,16
 156 -1 156 -1 126.5 26.5 c 128,-1,17
 97 54 97 54 97 92 c 0,18,19
 97 101 97 101 98 110.5 c 128,-1,20
 99 120 99 120 102 131 c 2,21,-1
 268 748 l 1,22,23
 269 757 269 757 271 759 c 1,24,-1
 435 1370 l 1,25,26
 450 1452 450 1452 537 1452 c 2,27,-1
 1366 1452 l 2,0,1
EndSplineSet
EndChar
StartChar: G
Encoding: 71 71 55
Width: 1166
Flags: W
LayerCount: 2
Back
Fore
SplineSet
1305 1138 m 1,0,1
 1305 1034 1305 1034 1203 1034 c 0,2,3
 1099 1034 1099 1034 1099 1136 c 0,4,5
 1099 1199 1099 1199 1048 1222 c 128,-1,6
 997 1245 997 1245 899 1245 c 0,7,8
 647 1245 647 1245 557 1067 c 256,9,10
 467 889 467 889 419 707 c 0,11,12
 408 664 408 664 396.5 621 c 128,-1,13
 385 578 385 578 376.5 536 c 128,-1,14
 368 494 368 494 362.5 454 c 128,-1,15
 357 414 357 414 357 378 c 256,16,17
 357 342 357 342 365.5 311 c 128,-1,18
 374 280 374 280 398 257 c 128,-1,19
 422 234 422 234 462 220.5 c 128,-1,20
 502 207 502 207 565 207 c 0,21,22
 639 207 639 207 696 223.5 c 128,-1,23
 753 240 753 240 797 268.5 c 128,-1,24
 841 297 841 297 873.5 335.5 c 128,-1,25
 906 374 906 374 931 420.5 c 128,-1,26
 956 467 956 467 975 518 c 128,-1,27
 994 569 994 569 1010 622 c 1,28,-1
 732 622 l 2,29,30
 628 622 628 622 628 726 c 256,31,32
 628 830 628 830 732 830 c 2,33,-1
 1147 830 l 2,34,35
 1173 830 1173 830 1193 822 c 128,-1,36
 1213 814 1213 814 1226 800.5 c 128,-1,37
 1239 787 1239 787 1246 771 c 128,-1,38
 1253 755 1253 755 1253 738 c 0,39,40
 1253 720 1253 720 1247 700 c 0,41,42
 1227 628 1227 628 1203 548.5 c 128,-1,43
 1179 469 1179 469 1145 391 c 128,-1,44
 1111 313 1111 313 1062.5 242.5 c 128,-1,45
 1014 172 1014 172 945 118.5 c 128,-1,46
 876 65 876 65 782.5 33 c 128,-1,47
 689 1 689 1 565 1 c 0,48,49
 320 1 320 1 235 109 c 1,50,51
 149 215 149 215 149 378 c 0,52,53
 149 471 149 471 171 568 c 128,-1,54
 193 665 193 665 218 760 c 0,55,56
 239 836 239 836 262.5 917 c 128,-1,57
 286 998 286 998 320.5 1075.5 c 128,-1,58
 355 1153 355 1153 403 1221 c 128,-1,59
 451 1289 451 1289 520 1341 c 128,-1,60
 589 1393 589 1393 682 1422.5 c 128,-1,61
 775 1452 775 1452 899 1452 c 0,62,63
 1098 1452 1098 1452 1200.5 1369 c 128,-1,64
 1303 1286 1303 1286 1305 1138 c 1,0,1
EndSplineSet
EndChar
StartChar: I
Encoding: 73 73 37
Width: 457
Flags: W
LayerCount: 2
Back
Fore
SplineSet
462 1376 m 2,0,1
 483 1454 483 1454 549 1454 c 0,2,3
 578 1454 578 1454 600 1446.5 c 128,-1,4
 622 1439 622 1439 637 1425.5 c 128,-1,5
 652 1412 652 1412 659.5 1395.5 c 128,-1,6
 667 1379 667 1379 667 1360 c 0,7,8
 667 1342 667 1342 661 1322 c 2,9,-1
 328 77 l 2,10,11
 308 -1 308 -1 239 -1 c 0,12,13
 182 -1 182 -1 152.5 26.5 c 128,-1,14
 123 54 123 54 123 92 c 0,15,16
 123 101 123 101 124 110.5 c 128,-1,17
 125 120 125 120 128 131 c 2,18,-1
 462 1376 l 2,0,1
EndSplineSet
EndChar
StartChar: N
Encoding: 78 78 42
Width: 1306
Flags: W
LayerCount: 2
Back
Fore
SplineSet
344 77 m 2,0,1
 323 -1 323 -1 255 -1 c 0,2,3
 198 -1 198 -1 168.5 26.5 c 128,-1,4
 139 54 139 54 139 92 c 0,5,6
 139 101 139 101 140 110.5 c 128,-1,7
 141 120 141 120 143 131 c 2,8,-1
 478 1376 l 2,9,10
 498 1454 498 1454 565 1454 c 0,11,12
 606 1454 606 1454 635.5 1434.5 c 128,-1,13
 665 1415 665 1415 676 1380 c 1,14,-1
 1054 431 l 1,15,-1
 1307 1376 l 2,16,17
 1328 1454 1328 1454 1395 1454 c 0,18,19
 1424 1454 1424 1454 1446 1446.5 c 128,-1,20
 1468 1439 1468 1439 1483 1425.5 c 128,-1,21
 1498 1412 1498 1412 1505.5 1395.5 c 128,-1,22
 1513 1379 1513 1379 1513 1360 c 0,23,24
 1513 1342 1513 1342 1508 1322 c 2,25,-1
 1173 77 l 2,26,27
 1163 39 1163 39 1132.5 18.5 c 128,-1,28
 1102 -2 1102 -2 1063 -2 c 0,29,30
 1004 -2 1004 -2 978 66 c 1,31,-1
 597 1021 l 1,32,-1
 344 77 l 2,0,1
EndSplineSet
EndChar
StartChar: T
Encoding: 84 84 48
Width: 1065
Flags: W
LayerCount: 2
Back
Fore
SplineSet
383 1245 m 2,0,1
 280 1245 280 1245 280 1348 c 0,2,3
 280 1452 280 1452 383 1452 c 2,4,-1
 1214 1452 l 2,5,6
 1318 1452 1318 1452 1318 1348 c 0,7,8
 1318 1245 1318 1245 1214 1245 c 2,9,-1
 878 1245 l 1,10,-1
 565 77 l 2,11,12
 544 -1 544 -1 476 -1 c 0,13,14
 419 -1 419 -1 389.5 26 c 128,-1,15
 360 53 360 53 360 90 c 0,16,17
 360 108 360 108 366 131 c 2,18,-1
 663 1245 l 1,19,-1
 383 1245 l 2,0,1
EndSplineSet
EndChar
StartChar: V
Encoding: 86 86 50
Width: 1152
Flags: W
LayerCount: 2
Back
Fore
SplineSet
356 1342 m 1,0,-1
 356 1350 l 2,1,2
 356 1451 356 1451 466 1451 c 0,3,4
 556 1451 556 1451 562 1355 c 2,5,-1
 622 440 l 1,6,-1
 1201 1401 l 2,7,8
 1233 1456 1233 1456 1280 1456 c 0,9,10
 1302 1456 1302 1456 1323 1447 c 128,-1,11
 1344 1438 1344 1438 1360.5 1423.5 c 128,-1,12
 1377 1409 1377 1409 1387 1391.5 c 128,-1,13
 1397 1374 1397 1374 1397 1357 c 0,14,15
 1397 1330 1397 1330 1378 1295 c 1,16,-1
 632 55 l 1,17,18
 602 1 602 1 539 1 c 0,19,20
 441 1 441 1 437 97 c 1,21,-1
 356 1342 l 1,0,-1
EndSplineSet
EndChar
StartChar: W
Encoding: 87 87 49
Width: 1582
Flags: W
LayerCount: 2
Back
Fore
SplineSet
387 1348 m 2,0,1
 387 1451 387 1451 490 1451 c 0,2,3
 594 1451 594 1451 594 1348 c 2,4,-1
 593 517 l 1,5,-1
 1063 1397 l 2,6,7
 1094 1456 1094 1456 1144 1456 c 0,8,9
 1166 1456 1166 1456 1187 1448 c 128,-1,10
 1208 1440 1208 1440 1223.5 1425 c 128,-1,11
 1239 1410 1239 1410 1248.5 1390 c 128,-1,12
 1258 1370 1258 1370 1258 1346 c 2,13,-1
 1256 517 l 1,14,-1
 1727 1397 l 1,15,16
 1757 1456 1757 1456 1808 1456 c 0,17,18
 1833 1456 1833 1456 1854 1447 c 128,-1,19
 1875 1438 1875 1438 1891 1423 c 128,-1,20
 1907 1408 1907 1408 1916.5 1391 c 128,-1,21
 1926 1374 1926 1374 1926 1358 c 0,22,23
 1926 1332 1926 1332 1909 1300 c 2,24,-1
 1245 57 l 2,25,26
 1214 1 1214 1 1153 1 c 0,27,28
 1050 1 1050 1 1050 104 c 2,29,-1
 1051 936 l 1,30,-1
 580 57 l 2,31,32
 551 1 551 1 488 1 c 0,33,34
 385 1 385 1 385 104 c 2,35,-1
 387 1348 l 2,0,1
EndSplineSet
EndChar
StartChar: X
Encoding: 88 88 51
Width: 1382
Flags: W
LayerCount: 2
Back
Fore
SplineSet
513 1311 m 2,0,1
 502 1338 502 1338 502 1360 c 0,2,3
 502 1376 502 1376 510.5 1393 c 128,-1,4
 519 1410 519 1410 534 1423.5 c 128,-1,5
 549 1437 549 1437 571 1445.5 c 128,-1,6
 593 1454 593 1454 620 1454 c 0,7,8
 650 1455 650 1455 670.5 1438 c 128,-1,9
 691 1421 691 1421 705 1387 c 2,10,-1
 892 916 l 1,11,-1
 1363 1419 l 2,12,13
 1400 1458 1400 1458 1438 1458 c 0,14,15
 1456 1458 1456 1458 1476 1448 c 128,-1,16
 1496 1438 1496 1438 1511.5 1422 c 128,-1,17
 1527 1406 1527 1406 1537.5 1386.5 c 128,-1,18
 1548 1367 1548 1367 1548 1349 c 0,19,20
 1548 1312 1548 1312 1514 1278 c 1,21,-1
 977 704 l 1,22,-1
 1201 142 l 2,23,24
 1206 128 1206 128 1209.5 115 c 128,-1,25
 1213 102 1213 102 1213 90 c 0,26,27
 1213 74 1213 74 1204.5 57.5 c 128,-1,28
 1196 41 1196 41 1181 28 c 128,-1,29
 1166 15 1166 15 1144 6.5 c 128,-1,30
 1122 -2 1122 -2 1095 -2 c 0,31,32
 1036 -2 1036 -2 1009 66 c 2,33,-1
 822 537 l 1,34,-1
 351 33 l 1,35,36
 313 -5 313 -5 276 -5 c 0,37,38
 256 -5 256 -5 237 5 c 128,-1,39
 218 15 218 15 202.5 30.5 c 128,-1,40
 187 46 187 46 177 65.5 c 128,-1,41
 167 85 167 85 167 103 c 256,42,43
 167 121 167 121 175 139 c 128,-1,44
 183 157 183 157 199 175 c 2,45,-1
 737 749 l 1,46,-1
 513 1311 l 2,0,1
EndSplineSet
EndChar
StartChar: Z
Encoding: 90 90 53
Width: 1265
Flags: W
LayerCount: 2
Back
Fore
SplineSet
498 1245 m 2,0,1
 394 1245 394 1245 394 1348 c 0,2,3
 394 1452 394 1452 498 1452 c 2,4,-1
 1328 1452 l 2,5,6
 1432 1452 1432 1452 1432 1348 c 0,7,8
 1432 1301 1432 1301 1398 1274 c 1,9,-1
 403 207 l 1,10,-1
 995 207 l 2,11,12
 1098 207 1098 207 1098 104 c 0,13,14
 1098 0 1098 0 995 0 c 2,15,-1
 164 0 l 2,16,17
 141 0 141 0 120.5 10.5 c 128,-1,18
 100 21 100 21 86 36 c 128,-1,19
 72 51 72 51 64 69 c 128,-1,20
 56 87 56 87 56 103 c 0,21,22
 56 121 56 121 64 139 c 128,-1,23
 72 157 72 157 88 175 c 2,24,-1
 1089 1245 l 1,25,-1
 498 1245 l 2,0,1
EndSplineSet
EndChar
StartChar: bracketright
Encoding: 93 93 200
Width: 656
Flags: W
LayerCount: 2
Back
Fore
SplineSet
424 -206 m 2,0,-1
 416 -206 l 1,1,-1
 412 -206 l 1,2,-1
 170 -206 l 2,3,4
 66 -206 66 -206 66 -102 c 0,5,6
 66 1 66 1 170 1 c 2,7,-1
 332 1 l 1,8,-1
 719 1452 l 1,9,-1
 614 1452 l 2,10,11
 510 1452 510 1452 510 1557 c 0,12,13
 510 1660 510 1660 614 1660 c 2,14,-1
 824 1660 l 1,15,16
 833 1662 833 1662 844 1662 c 0,17,18
 866 1662 866 1662 883 1658 c 1,19,20
 938 1649 938 1649 954 1602 c 0,21,22
 960 1586 960 1586 960 1568 c 2,23,-1
 960 1562 l 1,24,-1
 960 1557 l 2,25,26
 960 1517 960 1517 945 1493 c 1,27,-1
 516 -110 l 1,28,29
 513 -179 513 -179 461 -199 c 0,30,31
 444 -206 444 -206 424 -206 c 2,0,-1
EndSplineSet
EndChar
StartChar: asciicircum
Encoding: 94 94 118
Width: 1021
Flags: W
LayerCount: 2
Back
Fore
SplineSet
898 1164 m 1,0,1
 860 1143 860 1143 828 1143 c 0,2,3
 809 1143 809 1143 791 1152 c 128,-1,4
 773 1161 773 1161 760 1175 c 128,-1,5
 747 1189 747 1189 738.5 1207.5 c 128,-1,6
 730 1226 730 1226 730 1246 c 0,7,8
 730 1288 730 1288 770 1327 c 1,9,-1
 958 1474 l 1,10,11
 995 1497 995 1497 1025 1497 c 0,12,13
 1067 1497 1067 1497 1104 1457 c 0,14,15
 1105 1455 1105 1455 1132.5 1418 c 128,-1,16
 1160 1381 1160 1381 1214 1306 c 1,17,18
 1232 1271 1232 1271 1232 1242 c 0,19,20
 1232 1225 1232 1225 1225 1207 c 128,-1,21
 1218 1189 1218 1189 1204 1174.5 c 128,-1,22
 1190 1160 1190 1160 1171.5 1150.5 c 128,-1,23
 1153 1141 1153 1141 1130 1141 c 0,24,25
 1086 1141 1086 1141 1047 1183 c 1,26,-1
 1002 1245 l 1,27,-1
 898 1164 l 1,0,1
EndSplineSet
EndChar
StartChar: grave
Encoding: 96 96 131
Width: 1824
Flags: W
LayerCount: 2
Back
Fore
SplineSet
453 1495 m 1,0,1
 433 1520 433 1520 433 1556 c 0,2,3
 433 1577 433 1577 441.5 1596.5 c 128,-1,4
 450 1616 450 1616 464.5 1629.5 c 128,-1,5
 479 1643 479 1643 498 1651.5 c 128,-1,6
 517 1660 517 1660 538 1660 c 0,7,8
 563 1659 563 1659 584.5 1647.5 c 128,-1,9
 606 1636 606 1636 620 1618 c 2,10,-1
 772 1410 l 2,11,12
 792 1383 792 1383 792 1351 c 0,13,14
 792 1331 792 1331 784.5 1311.5 c 128,-1,15
 777 1292 777 1292 763.5 1277 c 128,-1,16
 750 1262 750 1262 731 1253 c 128,-1,17
 712 1244 712 1244 690 1244 c 0,18,19
 662 1244 662 1244 641 1256 c 128,-1,20
 620 1268 620 1268 605 1287 c 2,21,-1
 453 1495 l 1,0,1
EndSplineSet
EndChar
StartChar: a
Encoding: 97 97 7
Width: 1116
Flags: W
LayerCount: 2
Back
Fore
SplineSet
944 969 m 1,0,1
 968 1039 968 1039 1032 1039 c 0,2,3
 1089 1039 1089 1039 1118 1010.5 c 128,-1,4
 1147 982 1147 982 1147 945 c 1,5,6
 1146 936 1146 936 1145 926.5 c 128,-1,7
 1144 917 1144 917 1141 906 c 2,8,-1
 946 206 l 1,9,10
 1034 192 1034 192 1034 104 c 0,11,12
 1034 0 1034 0 930 0 c 0,13,14
 882 0 882 0 841.5 19 c 128,-1,15
 801 38 801 38 772 76 c 0,16,17
 770 77 770 77 769 79 c 128,-1,18
 768 81 768 81 768 82 c 1,19,20
 650 0 650 0 500 0 c 0,21,22
 422 0 422 0 360.5 22.5 c 128,-1,23
 299 45 299 45 256 88 c 128,-1,24
 213 131 213 131 190.5 193.5 c 128,-1,25
 168 256 168 256 168 334 c 256,26,27
 168 412 168 412 186 494.5 c 128,-1,28
 204 577 204 577 234.5 653 c 128,-1,29
 265 729 265 729 305.5 794 c 128,-1,30
 346 859 346 859 389 902 c 0,31,32
 526 1038 526 1038 722 1038 c 0,33,34
 784 1038 784 1038 842.5 1020 c 128,-1,35
 901 1002 901 1002 944 969 c 1,0,1
779 824 m 1,36,37
 752 830 752 830 722 830 c 0,38,39
 605 830 605 830 524.5 745 c 128,-1,40
 444 660 444 660 400 492 c 1,41,42
 375 401 375 401 375 334 c 0,43,44
 375 300 375 300 381 276.5 c 128,-1,45
 387 253 387 253 401.5 237 c 128,-1,46
 416 221 416 221 440 214 c 128,-1,47
 464 207 464 207 500 207 c 0,48,49
 616 207 616 207 696.5 292.5 c 128,-1,50
 777 378 777 378 823 545 c 1,51,52
 847 637 847 637 847 704 c 0,53,54
 847 754 847 754 834 782.5 c 128,-1,55
 821 811 821 811 779 824 c 1,36,37
EndSplineSet
EndChar
StartChar: c
Encoding: 99 99 4
Width: 965
Flags: W
LayerCount: 2
Back
Fore
SplineSet
703 289 m 1,0,1
 738 326 738 326 776 326 c 0,2,3
 795 326 795 326 814 316 c 128,-1,4
 833 306 833 306 849.5 290 c 128,-1,5
 866 274 866 274 876 254.5 c 128,-1,6
 886 235 886 235 886 217 c 0,7,8
 886 192 886 192 867 165.5 c 128,-1,9
 848 139 848 139 819.5 114 c 128,-1,10
 791 89 791 89 757.5 69 c 128,-1,11
 724 49 724 49 695 37 c 0,12,13
 606 0 606 0 509 0 c 0,14,15
 430 0 430 0 369 22.5 c 128,-1,16
 308 45 308 45 265 88 c 128,-1,17
 222 131 222 131 199.5 193.5 c 128,-1,18
 177 256 177 256 177 334 c 256,19,20
 177 412 177 412 195 494.5 c 128,-1,21
 213 577 213 577 243.5 653 c 128,-1,22
 274 729 274 729 314.5 794 c 128,-1,23
 355 859 355 859 398 902 c 0,24,25
 535 1038 535 1038 731 1038 c 0,26,27
 845 1038 845 1038 922 989.5 c 128,-1,28
 999 941 999 941 1036 856 c 0,29,30
 1042 842 1042 842 1044.5 829 c 128,-1,31
 1047 816 1047 816 1047 805 c 0,32,33
 1047 788 1047 788 1038.5 771.5 c 128,-1,34
 1030 755 1030 755 1014 741 c 128,-1,35
 998 727 998 727 976 718.5 c 128,-1,36
 954 710 954 710 928 710 c 0,37,38
 872 710 872 710 844 777 c 0,39,40
 822 830 822 830 731 830 c 0,41,42
 614 830 614 830 533.5 745 c 128,-1,43
 453 660 453 660 409 492 c 1,44,45
 384 401 384 401 384 334 c 0,46,47
 384 300 384 300 390 276.5 c 128,-1,48
 396 253 396 253 410.5 237 c 128,-1,49
 425 221 425 221 449 214 c 128,-1,50
 473 207 473 207 509 207 c 0,51,52
 568 207 568 207 614.5 227 c 128,-1,53
 661 247 661 247 703 289 c 1,0,1
EndSplineSet
EndChar
StartChar: d
Encoding: 100 100 5
Width: 1203
Flags: W
LayerCount: 2
Back
Fore
SplineSet
1084 1376 m 2,0,1
 1105 1454 1105 1454 1172 1454 c 0,2,3
 1201 1454 1201 1454 1223 1446.5 c 128,-1,4
 1245 1439 1245 1439 1260 1425.5 c 128,-1,5
 1275 1412 1275 1412 1282.5 1395.5 c 128,-1,6
 1290 1379 1290 1379 1290 1360 c 0,7,8
 1290 1342 1290 1342 1284 1322 c 2,9,-1
 984 199 l 1,10,11
 1048 171 1048 171 1048 104 c 0,12,13
 1048 0 1048 0 944 0 c 0,14,15
 898 0 898 0 862.5 18 c 128,-1,16
 827 36 827 36 803 69 c 0,17,18
 802 70 802 70 800.5 72 c 128,-1,19
 799 74 799 74 799 76 c 1,20,21
 683 0 683 0 540 0 c 0,22,23
 462 0 462 0 400.5 22.5 c 128,-1,24
 339 45 339 45 296.5 88 c 128,-1,25
 254 131 254 131 231 193.5 c 128,-1,26
 208 256 208 256 208 334 c 256,27,28
 208 412 208 412 226.5 494.5 c 128,-1,29
 245 577 245 577 275.5 653 c 128,-1,30
 306 729 306 729 346 794 c 128,-1,31
 386 859 386 859 429 902 c 0,32,33
 566 1038 566 1038 763 1038 c 0,34,35
 822 1038 822 1038 879 1021 c 128,-1,36
 936 1004 936 1004 977 974 c 1,37,-1
 1084 1376 l 2,0,1
820 824 m 1,38,39
 792 830 792 830 763 830 c 0,40,41
 644 830 644 830 564 744.5 c 128,-1,42
 484 659 484 659 440 492 c 0,43,44
 416 401 416 401 416 334 c 0,45,46
 416 300 416 300 421.5 276 c 128,-1,47
 427 252 427 252 441.5 236.5 c 128,-1,48
 456 221 456 221 480 214 c 128,-1,49
 504 207 504 207 540 207 c 0,50,51
 658 207 658 207 738 293 c 128,-1,52
 818 379 818 379 862 545 c 0,53,54
 886 637 886 637 886 704 c 0,55,56
 886 757 886 757 872.5 784 c 128,-1,57
 859 811 859 811 820 824 c 1,38,39
EndSplineSet
EndChar
StartChar: e
Encoding: 101 101 8
Width: 936
Flags: W
LayerCount: 2
Back
Fore
SplineSet
645 281 m 0,0,1
 680 316 680 316 716 316 c 0,2,3
 734 316 734 316 753.5 305.5 c 128,-1,4
 773 295 773 295 789 278.5 c 128,-1,5
 805 262 805 262 815 243 c 128,-1,6
 825 224 825 224 825 206 c 0,7,8
 825 181 825 181 807 155.5 c 128,-1,9
 789 130 789 130 761 106.5 c 128,-1,10
 733 83 733 83 700 64 c 128,-1,11
 667 45 667 45 638 33 c 0,12,13
 552 0 552 0 461 0 c 0,14,15
 382 0 382 0 321 23 c 128,-1,16
 260 46 260 46 218.5 89 c 128,-1,17
 177 132 177 132 155 193.5 c 128,-1,18
 133 255 133 255 133 332 c 256,19,20
 133 409 133 409 151 491 c 128,-1,21
 169 573 169 573 199.5 650 c 128,-1,22
 230 727 230 727 270 792.5 c 128,-1,23
 310 858 310 858 353 901 c 0,24,25
 489 1038 489 1038 683 1038 c 0,26,27
 756 1038 756 1038 816.5 1016.5 c 128,-1,28
 877 995 877 995 920 952.5 c 128,-1,29
 963 910 963 910 987 848 c 128,-1,30
 1011 786 1011 786 1011 706 c 0,31,32
 1011 658 1011 658 1003.5 604.5 c 128,-1,33
 996 551 996 551 980 492 c 0,34,35
 969 454 969 454 943.5 435 c 128,-1,36
 918 416 918 416 880 416 c 2,37,-1
 348 415 l 1,38,39
 344 394 344 394 342 373.5 c 128,-1,40
 340 353 340 353 340 332 c 0,41,42
 340 299 340 299 345.5 275.5 c 128,-1,43
 351 252 351 252 364.5 236.5 c 128,-1,44
 378 221 378 221 401.5 214 c 128,-1,45
 425 207 425 207 461 207 c 0,46,47
 568 207 568 207 645 281 c 0,0,1
498 754 m 0,48,49
 473 729 473 729 451 696 c 128,-1,50
 429 663 429 663 411 622 c 1,51,-1
 797 622 l 1,52,53
 801 647 801 647 803 667.5 c 128,-1,54
 805 688 805 688 805 706 c 0,55,56
 805 773 805 773 777.5 801.5 c 128,-1,57
 750 830 750 830 683 830 c 0,58,59
 575 830 575 830 498 754 c 0,48,49
EndSplineSet
EndChar
StartChar: g
Encoding: 103 103 10
Width: 1106
Flags: W
LayerCount: 2
Back
Fore
SplineSet
63 -98 m 1,0,1
 65 -46 65 -46 91 -23 c 128,-1,2
 117 0 117 0 170 0 c 0,3,4
 222 0 222 0 245.5 -28 c 128,-1,5
 269 -56 269 -56 269 -107 c 2,6,-1
 269 -112 l 2,7,8
 269 -159 269 -159 306.5 -181.5 c 128,-1,9
 344 -204 344 -204 405 -206 c 1,10,-1
 421 -206 l 2,11,12
 471 -206 471 -206 517.5 -188.5 c 128,-1,13
 564 -171 564 -171 603.5 -140 c 128,-1,14
 643 -109 643 -109 672.5 -66.5 c 128,-1,15
 702 -24 702 -24 715 27 c 1,16,-1
 718 36 l 1,17,18
 634 0 634 0 532 0 c 0,19,20
 472 0 472 0 422 14 c 1,21,-1
 421 14 l 1,22,23
 316 42 316 42 258 124 c 128,-1,24
 200 206 200 206 200 334 c 0,25,26
 200 413 200 413 218.5 495.5 c 128,-1,27
 237 578 237 578 267.5 654 c 128,-1,28
 298 730 298 730 338 794.5 c 128,-1,29
 378 859 378 859 422 902 c 0,30,31
 558 1038 558 1038 755 1038 c 0,32,33
 818 1038 818 1038 873 1021.5 c 128,-1,34
 928 1005 928 1005 970 973 c 1,35,36
 996 1039 996 1039 1056 1039 c 0,37,38
 1084 1039 1084 1039 1105.5 1031 c 128,-1,39
 1127 1023 1127 1023 1142 1010 c 128,-1,40
 1157 997 1157 997 1164 980 c 128,-1,41
 1171 963 1171 963 1171 945 c 0,42,43
 1171 928 1171 928 1166 907 c 2,44,-1
 916 -26 l 2,45,46
 893 -110 893 -110 843.5 -181.5 c 128,-1,47
 794 -253 794 -253 727.5 -304.5 c 128,-1,48
 661 -356 661 -356 582 -385 c 128,-1,49
 503 -414 503 -414 421 -414 c 2,50,-1
 396 -414 l 1,51,52
 321 -410 321 -410 260 -386 c 128,-1,53
 199 -362 199 -362 154.5 -322 c 128,-1,54
 110 -282 110 -282 86 -228.5 c 128,-1,55
 62 -175 62 -175 62 -112 c 1,56,-1
 63 -98 l 1,0,1
836 814 m 0,57,58
 808 830 808 830 755 830 c 0,59,60
 636 830 636 830 556 743 c 128,-1,61
 476 656 476 656 432 492 c 1,62,63
 421 446 421 446 414 407 c 128,-1,64
 407 368 407 368 407 334 c 0,65,66
 407 297 407 297 414.5 272.5 c 128,-1,67
 422 248 422 248 437.5 233.5 c 128,-1,68
 453 219 453 219 476 213 c 128,-1,69
 499 207 499 207 532 207 c 0,70,71
 763 207 763 207 855 545 c 1,72,73
 866 592 866 592 873 631.5 c 128,-1,74
 880 671 880 671 880 703 c 0,75,76
 880 746 880 746 869.5 773 c 128,-1,77
 859 800 859 800 836 814 c 0,57,58
EndSplineSet
EndChar
StartChar: h
Encoding: 104 104 54
Width: 1106
Flags: W
LayerCount: 2
Back
Fore
SplineSet
290 650 m 1,0,-1
 484 1376 l 2,1,2
 505 1454 505 1454 572 1454 c 0,3,4
 600 1454 600 1454 622.5 1446.5 c 128,-1,5
 645 1439 645 1439 659.5 1425.5 c 128,-1,6
 674 1412 674 1412 682 1395.5 c 128,-1,7
 690 1379 690 1379 690 1360 c 0,8,9
 690 1342 690 1342 684 1322 c 2,10,-1
 597 997 l 1,11,12
 693 1038 693 1038 784 1038 c 0,13,14
 858 1038 858 1038 920.5 1012.5 c 128,-1,15
 983 987 983 987 1029 942 c 128,-1,16
 1075 897 1075 897 1101 835.5 c 128,-1,17
 1127 774 1127 774 1127 703 c 0,18,19
 1127 652 1127 652 1112 596 c 2,20,-1
 973 77 l 2,21,22
 952 -1 952 -1 884 -1 c 0,23,24
 826 -1 826 -1 797 26 c 128,-1,25
 768 53 768 53 768 90 c 0,26,27
 768 108 768 108 773 131 c 1,28,-1
 912 650 l 2,29,30
 920 679 920 679 920 703 c 0,31,32
 920 729 920 729 911.5 752 c 128,-1,33
 903 775 903 775 886 792.5 c 128,-1,34
 869 810 869 810 843.5 820 c 128,-1,35
 818 830 818 830 784 830 c 0,36,37
 738 830 738 830 691 810.5 c 128,-1,38
 644 791 644 791 603.5 758.5 c 128,-1,39
 563 726 563 726 533 684 c 128,-1,40
 503 642 503 642 490 596 c 2,41,-1
 351 77 l 2,42,43
 330 -1 330 -1 261 -1 c 0,44,45
 204 -1 204 -1 174.5 26.5 c 128,-1,46
 145 54 145 54 145 92 c 0,47,48
 145 101 145 101 146 110.5 c 128,-1,49
 147 120 147 120 150 131 c 2,50,-1
 290 650 l 1,0,-1
EndSplineSet
EndChar
StartChar: k
Encoding: 107 107 13
Width: 1170
Flags: W
LayerCount: 2
Back
Fore
SplineSet
511 1376 m 2,0,1
 532 1454 532 1454 598 1454 c 0,2,3
 627 1454 627 1454 649 1446.5 c 128,-1,4
 671 1439 671 1439 686 1425.5 c 128,-1,5
 701 1412 701 1412 708.5 1395.5 c 128,-1,6
 716 1379 716 1379 716 1360 c 0,7,8
 716 1342 716 1342 711 1322 c 2,9,-1
 514 586 l 1,10,-1
 701 735 l 2,11,12
 702 735 702 735 703 736 c 128,-1,13
 704 737 704 737 706 738 c 2,14,-1
 1055 1014 l 2,15,16
 1092 1043 1092 1043 1123 1043 c 0,17,18
 1140 1043 1140 1043 1158.5 1032.5 c 128,-1,19
 1177 1022 1177 1022 1192.5 1005.5 c 128,-1,20
 1208 989 1208 989 1218 968.5 c 128,-1,21
 1228 948 1228 948 1228 929 c 0,22,23
 1228 889 1228 889 1183 853 c 2,24,-1
 883 615 l 1,25,-1
 1000 128 l 2,26,27
 1004 111 1004 111 1004 93 c 0,28,29
 1004 55 1004 55 975.5 27 c 128,-1,30
 947 -1 947 -1 890 -1 c 0,31,32
 853 -1 853 -1 831.5 19 c 128,-1,33
 810 39 810 39 800 81 c 2,34,-1
 705 474 l 1,35,-1
 425 252 l 1,36,-1
 377 77 l 1,37,38
 357 -1 357 -1 288 -1 c 0,39,40
 231 -1 231 -1 201.5 26.5 c 128,-1,41
 172 54 172 54 172 92 c 0,42,43
 172 101 172 101 173 110.5 c 128,-1,44
 174 120 174 120 177 131 c 2,45,-1
 511 1376 l 2,0,1
EndSplineSet
EndChar
StartChar: l
Encoding: 108 108 14
Width: 524
Flags: W
LayerCount: 2
Back
Fore
SplineSet
467 1376 m 1,0,1
 496 1450 496 1450 572 1450 c 0,2,3
 597 1450 597 1450 615 1441 c 128,-1,4
 633 1432 633 1432 645 1417.5 c 128,-1,5
 657 1403 657 1403 663.5 1386 c 128,-1,6
 670 1369 670 1369 670 1353 c 0,7,8
 670 1345 670 1345 669 1337.5 c 128,-1,9
 668 1330 668 1330 666 1322 c 2,10,-1
 367 199 l 1,11,12
 430 171 430 171 430 104 c 1,13,14
 418 12 418 12 326 0 c 1,15,16
 289 0 289 0 257 13.5 c 128,-1,17
 225 27 225 27 201.5 50.5 c 128,-1,18
 178 74 178 74 164.5 105.5 c 128,-1,19
 151 137 151 137 151 173 c 0,20,21
 151 200 151 200 158 224 c 2,22,-1
 467 1376 l 1,0,1
EndSplineSet
EndChar
StartChar: n
Encoding: 110 110 16
Width: 1055
Flags: W
LayerCount: 2
Back
Fore
SplineSet
455 596 m 2,0,-1
 315 77 l 1,1,2
 295 -1 295 -1 226 -1 c 0,3,4
 169 -1 169 -1 139.5 26.5 c 128,-1,5
 110 54 110 54 110 92 c 0,6,7
 110 101 110 101 111 110.5 c 128,-1,8
 112 120 112 120 115 131 c 2,9,-1
 338 960 l 2,10,11
 359 1039 359 1039 427 1039 c 0,12,13
 460 1039 460 1039 487 1024.5 c 128,-1,14
 514 1010 514 1010 530 982 c 1,15,16
 637 1038 637 1038 749 1038 c 0,17,18
 823 1038 823 1038 885 1012.5 c 128,-1,19
 947 987 947 987 993.5 942 c 128,-1,20
 1040 897 1040 897 1066 835.5 c 128,-1,21
 1092 774 1092 774 1092 703 c 0,22,23
 1092 652 1092 652 1077 596 c 2,24,-1
 938 77 l 2,25,26
 917 -1 917 -1 849 -1 c 0,27,28
 791 -1 791 -1 761.5 26 c 128,-1,29
 732 53 732 53 732 90 c 0,30,31
 732 108 732 108 738 131 c 2,32,-1
 877 650 l 2,33,34
 884 679 884 679 884 703 c 0,35,36
 884 729 884 729 876 752 c 128,-1,37
 868 775 868 775 850.5 792.5 c 128,-1,38
 833 810 833 810 807.5 820 c 128,-1,39
 782 830 782 830 749 830 c 0,40,41
 703 830 703 830 655.5 810.5 c 128,-1,42
 608 791 608 791 567.5 758.5 c 128,-1,43
 527 726 527 726 497 684 c 128,-1,44
 467 642 467 642 455 596 c 2,0,-1
EndSplineSet
EndChar
StartChar: p
Encoding: 112 112 19
Width: 1103
Flags: W
LayerCount: 2
Back
Fore
SplineSet
400 960 m 2,0,1
 421 1040 421 1040 487 1040 c 0,2,3
 520 1040 520 1040 548 1025 c 128,-1,4
 576 1010 576 1010 591 985 c 1,5,6
 692 1038 692 1038 811 1038 c 0,7,8
 882 1038 882 1038 943 1017 c 128,-1,9
 1004 996 1004 996 1048.5 954.5 c 128,-1,10
 1093 913 1093 913 1118 850 c 128,-1,11
 1143 787 1143 787 1143 704 c 0,12,13
 1143 626 1143 626 1125 543.5 c 128,-1,14
 1107 461 1107 461 1076 384.5 c 128,-1,15
 1045 308 1045 308 1005 243 c 128,-1,16
 965 178 965 178 922 136 c 0,17,18
 783 0 783 0 589 0 c 0,19,20
 526 0 526 0 471.5 15.5 c 128,-1,21
 417 31 417 31 374 63 c 1,22,-1
 266 -337 l 1,23,24
 246 -416 246 -416 179 -416 c 0,25,26
 122 -416 122 -416 92 -388 c 128,-1,27
 62 -360 62 -360 62 -322 c 0,28,29
 62 -305 62 -305 68 -284 c 2,30,-1
 289 545 l 1,31,-1
 289 546 l 1,32,-1
 400 960 l 2,0,1
484 469 m 1,33,34
 480 460 480 460 479 447 c 2,35,-1
 464 334 l 1,36,-1
 465 334 l 1,37,38
 465 287 465 287 475 261 c 128,-1,39
 485 235 485 235 502 223 c 128,-1,40
 519 211 519 211 541.5 209 c 128,-1,41
 564 207 564 207 589 207 c 0,42,43
 706 207 706 207 785.5 291.5 c 128,-1,44
 865 376 865 376 911 545 c 0,45,46
 936 637 936 637 936 704 c 0,47,48
 936 734 936 734 931 758 c 128,-1,49
 926 782 926 782 911.5 798 c 128,-1,50
 897 814 897 814 873 822 c 128,-1,51
 849 830 849 830 811 830 c 0,52,53
 757 830 757 830 710 809 c 128,-1,54
 663 788 663 788 626.5 756.5 c 128,-1,55
 590 725 590 725 565 687.5 c 128,-1,56
 540 650 540 650 529 617 c 0,57,58
 517 584 517 584 512 569.5 c 128,-1,59
 507 555 507 555 505 548 c 128,-1,60
 503 541 503 541 501.5 536.5 c 128,-1,61
 500 532 500 532 496 517 c 0,62,63
 494 512 494 512 492 505 c 0,64,65
 490 499 490 499 488 490 c 128,-1,66
 486 481 486 481 484 469 c 1,33,34
EndSplineSet
EndChar
StartChar: q
Encoding: 113 113 18
Width: 1059
Flags: W
LayerCount: 2
Back
Fore
SplineSet
917 973 m 1,0,1
 943 1039 943 1039 1003 1039 c 0,2,3
 1059 1039 1059 1039 1088.5 1011 c 128,-1,4
 1118 983 1118 983 1118 945 c 0,5,6
 1118 928 1118 928 1112 907 c 2,7,-1
 778 -337 l 1,8,9
 758 -416 758 -416 691 -416 c 0,10,11
 633 -416 633 -416 603 -388 c 128,-1,12
 573 -360 573 -360 573 -323 c 0,13,14
 573 -307 573 -307 579 -284 c 2,15,-1
 665 36 l 1,16,17
 580 0 580 0 479 0 c 0,18,19
 401 0 401 0 339.5 22.5 c 128,-1,20
 278 45 278 45 235.5 88 c 128,-1,21
 193 131 193 131 170 193.5 c 128,-1,22
 147 256 147 256 147 334 c 256,23,24
 147 412 147 412 165.5 494.5 c 128,-1,25
 184 577 184 577 214.5 653 c 128,-1,26
 245 729 245 729 285 794 c 128,-1,27
 325 859 325 859 369 902 c 0,28,29
 505 1038 505 1038 702 1038 c 0,30,31
 761 1038 761 1038 819 1021 c 128,-1,32
 877 1004 877 1004 917 973 c 1,0,1
801 544 m 1,33,-1
 801 546 l 1,34,35
 802 547 802 547 802 549 c 0,36,37
 825 636 825 636 825 704 c 0,38,39
 825 737 825 737 819.5 760.5 c 128,-1,40
 814 784 814 784 799.5 800 c 128,-1,41
 785 816 785 816 761.5 823 c 128,-1,42
 738 830 738 830 702 830 c 0,43,44
 583 830 583 830 503.5 744.5 c 128,-1,45
 424 659 424 659 379 492 c 0,46,47
 355 401 355 401 355 334 c 0,48,49
 355 300 355 300 361 276 c 128,-1,50
 367 252 367 252 381 236.5 c 128,-1,51
 395 221 395 221 419 214 c 128,-1,52
 443 207 443 207 479 207 c 0,53,54
 596 207 596 207 675 291 c 128,-1,55
 754 375 754 375 801 544 c 1,33,-1
EndSplineSet
EndChar
StartChar: s
Encoding: 115 115 21
Width: 964
Flags: W
LayerCount: 2
Back
Fore
SplineSet
1023 891 m 0,0,1
 1039 861 1039 861 1039 834 c 0,2,3
 1039 818 1039 818 1029.5 800 c 128,-1,4
 1020 782 1020 782 1004.5 768 c 128,-1,5
 989 754 989 754 967 744.5 c 128,-1,6
 945 735 945 735 922 735 c 0,7,8
 871 735 871 735 840 795 c 1,9,10
 833 804 833 804 810 815 c 1,11,-1
 810 814 l 1,12,13
 784 823 784 823 756.5 826.5 c 128,-1,14
 729 830 729 830 697 830 c 0,15,16
 648 830 648 830 605.5 816 c 128,-1,17
 563 802 563 802 532.5 780 c 128,-1,18
 502 758 502 758 485 731.5 c 128,-1,19
 468 705 468 705 468 680 c 0,20,21
 468 654 468 654 499.5 639 c 128,-1,22
 531 624 531 624 589 622 c 1,23,24
 658 617 658 617 715.5 598 c 128,-1,25
 773 579 773 579 814 546 c 128,-1,26
 855 513 855 513 877 467.5 c 128,-1,27
 899 422 899 422 899 365 c 0,28,29
 899 306 899 306 868 241.5 c 128,-1,30
 837 177 837 177 780.5 123.5 c 128,-1,31
 724 70 724 70 643 35 c 128,-1,32
 562 0 562 0 462 0 c 0,33,34
 415 0 415 0 371 9.5 c 128,-1,35
 327 19 327 19 286 38 c 1,36,-1
 286 37 l 1,37,38
 254 52 254 52 226 73 c 128,-1,39
 198 94 198 94 176 119 c 128,-1,40
 154 144 154 144 142 172.5 c 128,-1,41
 130 201 130 201 130 231 c 0,42,43
 130 249 130 249 138 266 c 128,-1,44
 146 283 146 283 161.5 297 c 128,-1,45
 177 311 177 311 198.5 319 c 128,-1,46
 220 327 220 327 247 327 c 0,47,48
 303 327 303 327 331 259 c 0,49,50
 339 240 339 240 373 226 c 1,51,-1
 373 225 l 1,52,53
 411 206 411 206 459 206 c 0,54,55
 502 206 502 206 544.5 220 c 128,-1,56
 587 234 587 234 620 256.5 c 128,-1,57
 653 279 653 279 673 307.5 c 128,-1,58
 693 336 693 336 693 365 c 0,59,60
 693 387 693 387 661.5 399 c 128,-1,61
 630 411 630 411 577 416 c 1,62,63
 506 420 506 420 448 439 c 128,-1,64
 390 458 390 458 349 492 c 128,-1,65
 308 526 308 526 284.5 573.5 c 128,-1,66
 261 621 261 621 261 681 c 256,67,68
 261 741 261 741 291 804 c 128,-1,69
 321 867 321 867 378 918.5 c 128,-1,70
 435 970 435 970 517 1003.5 c 128,-1,71
 599 1037 599 1037 704 1037 c 0,72,73
 819 1037 819 1037 901.5 999.5 c 128,-1,74
 984 962 984 962 1023 891 c 0,0,1
EndSplineSet
EndChar
StartChar: t
Encoding: 116 116 22
Width: 666
Flags: W
LayerCount: 2
Back
Fore
SplineSet
432 1376 m 2,0,1
 453 1455 453 1455 520 1455 c 0,2,3
 548 1455 548 1455 570.5 1447.5 c 128,-1,4
 593 1440 593 1440 607.5 1426.5 c 128,-1,5
 622 1413 622 1413 630 1396.5 c 128,-1,6
 638 1380 638 1380 638 1361 c 0,7,8
 638 1343 638 1343 632 1323 c 2,9,-1
 556 1038 l 1,10,-1
 629 1038 l 2,11,12
 732 1038 732 1038 732 934 c 256,13,14
 732 830 732 830 629 830 c 2,15,-1
 500 830 l 1,16,-1
 355 285 l 2,17,18
 352 276 352 276 351 268.5 c 128,-1,19
 350 261 350 261 350 256 c 0,20,21
 350 229 350 229 365.5 218 c 128,-1,22
 381 207 381 207 407 207 c 0,23,24
 511 207 511 207 511 104 c 0,25,26
 511 49 511 49 483.5 25 c 128,-1,27
 456 1 456 1 401 1 c 256,28,29
 346 1 346 1 299 20.5 c 128,-1,30
 252 40 252 40 217.5 74.5 c 128,-1,31
 183 109 183 109 163 155 c 128,-1,32
 143 201 143 201 143 255 c 0,33,34
 143 275 143 275 145.5 296 c 128,-1,35
 148 317 148 317 154 338 c 2,36,-1
 286 830 l 1,37,-1
 267 830 l 2,38,39
 164 830 164 830 164 934 c 256,40,41
 164 1038 164 1038 267 1038 c 2,42,-1
 341 1038 l 1,43,-1
 432 1376 l 2,0,1
EndSplineSet
EndChar
StartChar: y
Encoding: 121 121 27
Width: 963
Flags: W
LayerCount: 2
Back
Fore
SplineSet
877 990 m 2,0,1
 910 1043 910 1043 956 1043 c 0,2,3
 978 1043 978 1043 999 1033 c 128,-1,4
 1020 1023 1020 1023 1036 1008.5 c 128,-1,5
 1052 994 1052 994 1062 975.5 c 128,-1,6
 1072 957 1072 957 1072 940 c 0,7,8
 1073 913 1073 913 1051 878 c 2,9,-1
 337 -231 l 2,10,11
 311 -272 311 -272 275 -306 c 128,-1,12
 239 -340 239 -340 197.5 -364 c 128,-1,13
 156 -388 156 -388 111 -401 c 128,-1,14
 66 -414 66 -414 21 -414 c 2,15,-1
 9 -414 l 2,16,17
 -95 -414 -95 -414 -95 -311 c 0,18,19
 -95 -206 -95 -206 9 -206 c 2,20,-1
 21 -206 l 2,21,22
 59 -206 59 -206 98.5 -183 c 128,-1,23
 138 -160 138 -160 163 -120 c 2,24,-1
 323 129 l 1,25,-1
 238 923 l 2,26,27
 237 928 237 928 237 932 c 128,-1,28
 237 936 237 936 237 940 c 0,29,30
 237 988 237 988 264.5 1013 c 128,-1,31
 292 1038 292 1038 348 1038 c 0,32,33
 433 1038 433 1038 444 944 c 1,34,-1
 501 407 l 1,35,-1
 877 990 l 2,0,1
EndSplineSet
EndChar
StartChar: braceleft
Encoding: 123 123 202
Width: 1166
Flags: W
LayerCount: 2
Back
Fore
SplineSet
1 729 m 1,0,-1
 584 821 l 1,1,-1
 1166 912 l 1,2,-1
 1167 732 l 1,3,-1
 1167 553 l 1,4,-1
 584 642 l 1,5,-1
 1 729 l 1,0,-1
EndSplineSet
EndChar
StartChar: bar
Encoding: 124 124 100
Width: 438
Flags: W
LayerCount: 2
Back
Fore
SplineSet
405 1376 m 2,0,1
 426 1454 426 1454 492 1454 c 0,2,3
 522 1454 522 1454 544 1446.5 c 128,-1,4
 566 1439 566 1439 581 1425.5 c 128,-1,5
 596 1412 596 1412 603.5 1395.5 c 128,-1,6
 611 1379 611 1379 611 1360 c 0,7,8
 611 1342 611 1342 605 1322 c 2,9,-1
 160 -337 l 2,10,11
 149 -376 149 -376 126.5 -396 c 128,-1,12
 104 -416 104 -416 72 -416 c 0,13,14
 43 -416 43 -416 21 -408 c 128,-1,15
 -1 -400 -1 -400 -15.5 -387 c 128,-1,16
 -30 -374 -30 -374 -37.5 -358 c 128,-1,17
 -45 -342 -45 -342 -45 -324 c 1,18,19
 -46 -314 -46 -314 -44 -304.5 c 128,-1,20
 -42 -295 -42 -295 -39 -284 c 2,21,-1
 405 1376 l 2,0,1
EndSplineSet
EndChar
StartChar: asciitilde
Encoding: 126 126 95
Width: 1082
Flags: W
LayerCount: 2
Back
Fore
SplineSet
351 662 m 0,0,1
 313 627 313 627 278 627 c 0,2,3
 260 627 260 627 241 637.5 c 128,-1,4
 222 648 222 648 206 664 c 128,-1,5
 190 680 190 680 179.5 699.5 c 128,-1,6
 169 719 169 719 169 737 c 0,7,8
 169 774 169 774 207 812 c 1,9,10
 260 863 260 863 309.5 884 c 128,-1,11
 359 905 359 905 408 905 c 0,12,13
 445 905 445 905 478 895 c 128,-1,14
 511 885 511 885 540.5 870 c 128,-1,15
 570 855 570 855 597 835.5 c 128,-1,16
 624 816 624 816 651 796 c 1,17,-1
 653 795 l 1,18,19
 678 774 678 774 707.5 755.5 c 128,-1,20
 737 737 737 737 760 737 c 0,21,22
 788 737 788 737 816 765 c 0,23,24
 852 801 852 801 888 801 c 0,25,26
 906 801 906 801 925.5 790.5 c 128,-1,27
 945 780 945 780 961.5 764.5 c 128,-1,28
 978 749 978 749 988 729.5 c 128,-1,29
 998 710 998 710 998 692 c 0,30,31
 998 655 998 655 962 619 c 0,32,33
 853 510 853 510 768 510 c 0,34,35
 741 510 741 510 710 521.5 c 128,-1,36
 679 533 679 533 646.5 550.5 c 128,-1,37
 614 568 614 568 582.5 589.5 c 128,-1,38
 551 611 551 611 525 632 c 1,39,-1
 524 633 l 1,40,41
 493 655 493 655 463 676 c 128,-1,42
 433 697 433 697 414 697 c 0,43,44
 388 697 388 697 351 662 c 0,0,1
EndSplineSet
EndChar
StartChar: exclamdown
Encoding: 161 161 99
Width: 535
Flags: W
LayerCount: 2
Back
Fore
SplineSet
499 1376 m 1,0,1
 520 1454 520 1454 587 1454 c 0,2,3
 615 1454 615 1454 637 1446.5 c 128,-1,4
 659 1439 659 1439 674 1425.5 c 128,-1,5
 689 1412 689 1412 697 1395.5 c 128,-1,6
 705 1379 705 1379 705 1360 c 0,7,8
 705 1342 705 1342 699 1322 c 1,9,-1
 699 1320 l 1,10,11
 676 1240 676 1240 611 1240 c 0,12,13
 552 1240 552 1240 522 1267.5 c 128,-1,14
 492 1295 492 1295 492 1333 c 0,15,16
 492 1350 492 1350 498 1373 c 1,17,-1
 499 1376 l 1,0,1
388 960 m 2,18,19
 409 1039 409 1039 478 1039 c 0,20,21
 535 1039 535 1039 564.5 1011 c 128,-1,22
 594 983 594 983 594 945 c 0,23,24
 594 928 594 928 588 907 c 2,25,-1
 366 77 l 2,26,27
 345 -1 345 -1 276 -1 c 0,28,29
 219 -1 219 -1 189.5 26.5 c 128,-1,30
 160 54 160 54 160 92 c 0,31,32
 160 101 160 101 161 110.5 c 128,-1,33
 162 120 162 120 165 131 c 2,34,-1
 388 960 l 2,18,19
EndSplineSet
EndChar
StartChar: cent
Encoding: 162 162 101
Width: 965
Flags: W
LayerCount: 2
Back
Fore
SplineSet
733 1376 m 2,0,1
 754 1454 754 1454 821 1454 c 0,2,3
 850 1454 850 1454 872 1446.5 c 128,-1,4
 894 1439 894 1439 909 1425.5 c 128,-1,5
 924 1412 924 1412 931.5 1395.5 c 128,-1,6
 939 1379 939 1379 939 1360 c 0,7,8
 939 1342 939 1342 934 1322 c 2,9,-1
 853 1020 l 1,10,11
 985 978 985 978 1036 856 c 0,12,13
 1042 842 1042 842 1044.5 829.5 c 128,-1,14
 1047 817 1047 817 1047 805 c 0,15,16
 1047 788 1047 788 1038.5 771.5 c 128,-1,17
 1030 755 1030 755 1014 741 c 128,-1,18
 998 727 998 727 976 718.5 c 128,-1,19
 954 710 954 710 928 710 c 0,20,21
 871 710 871 710 844 777 c 0,22,23
 838 792 838 792 825.5 804.5 c 128,-1,24
 813 817 813 817 799 820 c 1,25,-1
 644 242 l 1,26,27
 662 254 662 254 678.5 268 c 128,-1,28
 695 282 695 282 711 295.5 c 128,-1,29
 727 309 727 309 743 317.5 c 128,-1,30
 759 326 759 326 776 326 c 0,31,32
 795 326 795 326 814 316 c 128,-1,33
 833 306 833 306 849.5 290 c 128,-1,34
 866 274 866 274 876 254.5 c 128,-1,35
 886 235 886 235 886 217 c 0,36,37
 886 192 886 192 867 165.5 c 128,-1,38
 848 139 848 139 819.5 114 c 128,-1,39
 791 89 791 89 757.5 69 c 128,-1,40
 724 49 724 49 695 37 c 0,41,42
 640 14 640 14 580 5 c 1,43,-1
 488 -337 l 2,44,45
 478 -376 478 -376 455 -396 c 128,-1,46
 432 -416 432 -416 400 -416 c 0,47,48
 371 -416 371 -416 349 -408 c 128,-1,49
 327 -400 327 -400 312.5 -387 c 128,-1,50
 298 -374 298 -374 290.5 -358 c 128,-1,51
 283 -342 283 -342 283 -324 c 1,52,53
 282 -314 282 -314 284 -304.5 c 128,-1,54
 286 -295 286 -295 289 -284 c 2,55,-1
 370 22 l 1,56,57
 280 55 280 55 228.5 134 c 128,-1,58
 177 213 177 213 177 334 c 0,59,60
 177 412 177 412 195 494.5 c 128,-1,61
 213 577 213 577 243.5 653 c 128,-1,62
 274 729 274 729 314 794 c 128,-1,63
 354 859 354 859 398 902 c 0,64,65
 502 1004 502 1004 641 1030 c 1,66,-1
 733 1376 l 2,0,1
543 754 m 0,67,68
 515 725 515 725 486.5 677.5 c 128,-1,69
 458 630 458 630 435.5 572.5 c 128,-1,70
 413 515 413 515 398.5 452.5 c 128,-1,71
 384 390 384 390 384 334 c 0,72,73
 384 292 384 292 393.5 265 c 128,-1,74
 403 238 403 238 425 224 c 1,75,-1
 574 779 l 1,76,77
 566 774 566 774 558.5 768 c 128,-1,78
 551 762 551 762 543 754 c 0,67,68
EndSplineSet
EndChar
StartChar: sterling
Encoding: 163 163 194
Width: 1155
Flags: W
LayerCount: 2
Back
Fore
SplineSet
111 24 m 2,0,1
 7 24 7 24 7 127 c 0,2,3
 7 231 7 231 111 231 c 2,4,-1
 145 231 l 1,5,-1
 197 423 l 1,6,7
 93 423 93 423 93 526 c 0,8,9
 93 630 93 630 198 630 c 2,10,-1
 253 630 l 1,11,-1
 347 983 l 2,12,13
 375 1085 375 1085 437.5 1175 c 128,-1,14
 500 1265 500 1265 584 1331.5 c 128,-1,15
 668 1398 668 1398 768.5 1436.5 c 128,-1,16
 869 1475 869 1475 973 1475 c 0,17,18
 1079 1475 1079 1475 1168.5 1433.5 c 128,-1,19
 1258 1392 1258 1392 1318 1311 c 0,20,21
 1331 1294 1331 1294 1336.5 1277 c 128,-1,22
 1342 1260 1342 1260 1342 1245 c 0,23,24
 1342 1227 1342 1227 1332 1208.5 c 128,-1,25
 1322 1190 1322 1190 1305.5 1175.5 c 128,-1,26
 1289 1161 1289 1161 1268.5 1151 c 128,-1,27
 1248 1141 1248 1141 1228 1141 c 0,28,29
 1207 1141 1207 1141 1190.5 1153.5 c 128,-1,30
 1174 1166 1174 1166 1158 1182.5 c 128,-1,31
 1142 1199 1142 1199 1123.5 1217 c 128,-1,32
 1105 1235 1105 1235 1080 1246 c 256,33,34
 1055 1257 1055 1257 1029 1262.5 c 128,-1,35
 1003 1268 1003 1268 973 1268 c 0,36,37
 892 1268 892 1268 821.5 1235.5 c 128,-1,38
 751 1203 751 1203 695 1153.5 c 128,-1,39
 639 1104 639 1104 600.5 1044.5 c 128,-1,40
 562 985 562 985 547 930 c 2,41,-1
 467 630 l 1,42,-1
 654 630 l 2,43,44
 758 630 758 630 758 526 c 0,45,46
 758 423 758 423 654 423 c 2,47,-1
 412 423 l 1,48,-1
 361 231 l 1,49,-1
 940 231 l 2,50,51
 1045 231 1045 231 1045 127 c 0,52,53
 1045 24 1045 24 940 24 c 2,54,-1
 261 24 l 1,55,56
 250 21 250 21 237 21 c 0,57,58
 223 21 223 21 210 24 c 1,59,-1
 111 24 l 2,0,1
EndSplineSet
EndChar
StartChar: brokenbar
Encoding: 166 166 212
Width: 404
Flags: W
LayerCount: 2
Back
Fore
SplineSet
98 1560 m 2,0,1
 98 1580 98 1580 106 1599 c 128,-1,2
 114 1618 114 1618 128 1632 c 128,-1,3
 142 1646 142 1646 161 1655 c 128,-1,4
 180 1664 180 1664 201 1664 c 0,5,6
 223 1664 223 1664 242 1655.5 c 128,-1,7
 261 1647 261 1647 275 1632.5 c 128,-1,8
 289 1618 289 1618 297.5 1599 c 128,-1,9
 306 1580 306 1580 306 1542 c 2,10,-1
 306 923 l 2,11,12
 306 901 306 901 297.5 882.5 c 128,-1,13
 289 864 289 864 274.5 849.5 c 128,-1,14
 260 835 260 835 241.5 827 c 128,-1,15
 223 819 223 819 201 819 c 0,16,17
 180 819 180 819 161 827 c 128,-1,18
 142 835 142 835 128 849.5 c 128,-1,19
 114 864 114 864 106 882.5 c 128,-1,20
 98 901 98 901 98 923 c 2,21,-1
 98 1560 l 2,0,1
98 482 m 2,22,23
 98 502 98 502 106 521 c 128,-1,24
 114 540 114 540 128 554 c 128,-1,25
 142 568 142 568 161 577 c 128,-1,26
 180 586 180 586 201 586 c 0,27,28
 223 586 223 586 242 577.5 c 128,-1,29
 261 569 261 569 275 554.5 c 128,-1,30
 289 540 289 540 297.5 521 c 128,-1,31
 306 502 306 502 306 482 c 2,32,-1
 306 -155 l 2,33,34
 306 -177 306 -177 297.5 -195.5 c 128,-1,35
 289 -214 289 -214 274.5 -228.5 c 128,-1,36
 260 -243 260 -243 241.5 -251 c 128,-1,37
 223 -259 223 -259 201 -259 c 0,38,39
 180 -259 180 -259 161 -251 c 128,-1,40
 142 -243 142 -243 128 -228.5 c 128,-1,41
 114 -214 114 -214 106 -195.5 c 128,-1,42
 98 -177 98 -177 98 -155 c 2,43,-1
 98 482 l 2,22,23
EndSplineSet
EndChar
StartChar: section
Encoding: 167 167 193
Width: 964
Flags: W
LayerCount: 2
Back
Fore
SplineSet
1148 1312 m 0,0,1
 1164 1281 1164 1281 1164 1255 c 0,2,3
 1164 1238 1164 1238 1154.5 1220.5 c 128,-1,4
 1145 1203 1145 1203 1129 1188.5 c 128,-1,5
 1113 1174 1113 1174 1091.5 1165 c 128,-1,6
 1070 1156 1070 1156 1047 1156 c 0,7,8
 996 1156 996 1156 965 1216 c 1,9,10
 958 1224 958 1224 935 1235 c 1,11,-1
 935 1234 l 1,12,13
 909 1243 909 1243 881.5 1247 c 128,-1,14
 854 1251 854 1251 822 1251 c 0,15,16
 772 1251 772 1251 730 1237 c 128,-1,17
 688 1223 688 1223 657.5 1200.5 c 128,-1,18
 627 1178 627 1178 610 1151.5 c 128,-1,19
 593 1125 593 1125 593 1101 c 0,20,21
 593 1075 593 1075 624 1060 c 128,-1,22
 655 1045 655 1045 713 1043 c 1,23,24
 783 1038 783 1038 840.5 1018.5 c 128,-1,25
 898 999 898 999 939 966.5 c 128,-1,26
 980 934 980 934 1002 888 c 128,-1,27
 1024 842 1024 842 1024 785 c 0,28,29
 1024 707 1024 707 980.5 634 c 128,-1,30
 937 561 937 561 854 503 c 1,31,32
 877 475 877 475 888 438.5 c 128,-1,33
 899 402 899 402 899 365 c 0,34,35
 899 306 899 306 868 241.5 c 128,-1,36
 837 177 837 177 780.5 123.5 c 128,-1,37
 724 70 724 70 643 35 c 128,-1,38
 562 0 562 0 462 0 c 0,39,40
 415 0 415 0 371 9.5 c 128,-1,41
 327 19 327 19 286 38 c 1,42,-1
 286 37 l 1,43,44
 254 52 254 52 226 73 c 128,-1,45
 198 94 198 94 176 119 c 128,-1,46
 154 144 154 144 142 172.5 c 128,-1,47
 130 201 130 201 130 231 c 0,48,49
 130 249 130 249 138 266 c 128,-1,50
 146 283 146 283 161.5 297 c 128,-1,51
 177 311 177 311 198.5 319 c 128,-1,52
 220 327 220 327 247 327 c 0,53,54
 303 327 303 327 331 259 c 0,55,56
 339 240 339 240 373 226 c 1,57,-1
 373 225 l 1,58,59
 411 206 411 206 459 206 c 0,60,61
 502 206 502 206 544.5 220 c 128,-1,62
 587 234 587 234 620 256.5 c 128,-1,63
 653 279 653 279 673 307.5 c 128,-1,64
 693 336 693 336 693 365 c 0,65,66
 693 387 693 387 661.5 399 c 128,-1,67
 630 411 630 411 577 416 c 1,68,69
 365 427 365 427 285 540 c 1,70,71
 259 609 259 609 259 668 c 0,72,73
 259 751 259 751 301 825 c 128,-1,74
 343 899 343 899 431 958 c 1,75,76
 386 1025 386 1025 386 1102 c 0,77,78
 386 1162 386 1162 416 1224.5 c 128,-1,79
 446 1287 446 1287 503 1339 c 128,-1,80
 560 1391 560 1391 642 1424 c 128,-1,81
 724 1457 724 1457 828 1457 c 0,82,83
 943 1457 943 1457 1026 1420 c 128,-1,84
 1109 1383 1109 1383 1148 1312 c 0,0,1
444 711 m 0,85,86
 443 706 443 706 442.5 700.5 c 128,-1,87
 442 695 442 695 442 690 c 0,88,89
 442 658 442 658 455 635 c 128,-1,90
 468 612 468 612 490 597 c 128,-1,91
 512 582 512 582 541.5 574 c 128,-1,92
 571 566 571 566 603 566 c 0,93,94
 641 566 641 566 680 581 c 128,-1,95
 719 596 719 596 751 621 c 128,-1,96
 783 646 783 646 804 680 c 128,-1,97
 825 714 825 714 825 755 c 0,98,99
 825 786 825 786 811 809.5 c 128,-1,100
 797 833 797 833 774 849 c 128,-1,101
 751 865 751 865 721 873 c 128,-1,102
 691 881 691 881 658 881 c 0,103,104
 623 881 623 881 587 868 c 128,-1,105
 551 855 551 855 520.5 832.5 c 128,-1,106
 490 810 490 810 469.5 779 c 128,-1,107
 449 748 449 748 444 711 c 0,85,86
EndSplineSet
EndChar
StartChar: dieresis
Encoding: 168 168 88
Width: 535
Flags: W
LayerCount: 2
Back
Fore
SplineSet
1363 1376 m 1,0,1
 1384 1454 1384 1454 1451 1454 c 0,2,3
 1479 1454 1479 1454 1501 1446.5 c 128,-1,4
 1523 1439 1523 1439 1538 1425.5 c 128,-1,5
 1553 1412 1553 1412 1560.5 1395.5 c 128,-1,6
 1568 1379 1568 1379 1568 1360 c 0,7,8
 1568 1342 1568 1342 1563 1322 c 1,9,-1
 1563 1320 l 1,10,11
 1540 1240 1540 1240 1475 1240 c 0,12,13
 1416 1240 1416 1240 1386 1267.5 c 128,-1,14
 1356 1295 1356 1295 1356 1333 c 0,15,16
 1356 1350 1356 1350 1362 1373 c 1,17,-1
 1363 1376 l 1,0,1
876 1376 m 1,18,19
 896 1454 896 1454 963 1454 c 0,20,21
 992 1454 992 1454 1014 1446.5 c 128,-1,22
 1036 1439 1036 1439 1050.5 1425.5 c 128,-1,23
 1065 1412 1065 1412 1073 1395.5 c 128,-1,24
 1081 1379 1081 1379 1081 1360 c 0,25,26
 1081 1342 1081 1342 1075 1322 c 1,27,-1
 1075 1320 l 1,28,29
 1052 1240 1052 1240 988 1240 c 0,30,31
 929 1240 929 1240 899 1267.5 c 128,-1,32
 869 1295 869 1295 869 1333 c 0,33,34
 869 1350 869 1350 875 1373 c 1,35,-1
 876 1376 l 1,18,19
EndSplineSet
EndChar
StartChar: logicalnot
Encoding: 172 172 196
Width: 896
Flags: W
LayerCount: 2
Back
Fore
SplineSet
187 312 m 2,0,1
 83 312 83 312 83 415 c 0,2,3
 83 519 83 519 187 519 c 2,4,-1
 702 519 l 1,5,6
 752 517 752 517 780.5 490.5 c 128,-1,7
 809 464 809 464 809 426 c 0,8,9
 809 408 809 408 803 387 c 2,10,-1
 801 380 l 2,11,12
 799 370 799 370 797 367 c 1,13,-1
 764 240 l 2,14,15
 743 162 743 162 674 162 c 0,16,17
 617 162 617 162 587.5 189.5 c 128,-1,18
 558 217 558 217 558 256 c 0,19,20
 558 264 558 264 559 273.5 c 128,-1,21
 560 283 560 283 563 294 c 2,22,-1
 568 312 l 1,23,-1
 187 312 l 2,0,1
EndSplineSet
EndChar
StartChar: degree
Encoding: 176 176 122
Width: 777
Flags: W
LayerCount: 2
Back
Fore
SplineSet
638 1660 m 0,0,1
 683 1660 683 1660 732 1643 c 128,-1,2
 781 1626 781 1626 821.5 1593 c 128,-1,3
 862 1560 862 1560 888.5 1508.5 c 128,-1,4
 915 1457 915 1457 915 1390 c 0,5,6
 915 1309 915 1309 879 1238.5 c 128,-1,7
 843 1168 843 1168 786 1115.5 c 128,-1,8
 729 1063 729 1063 658.5 1032.5 c 128,-1,9
 588 1002 588 1002 517 1002 c 0,10,11
 462 1002 462 1002 412 1021 c 128,-1,12
 362 1040 362 1040 324 1074.5 c 128,-1,13
 286 1109 286 1109 263.5 1159.5 c 128,-1,14
 241 1210 241 1210 241 1273 c 0,15,16
 241 1319 241 1319 257.5 1372 c 128,-1,17
 274 1425 274 1425 307.5 1475 c 128,-1,18
 341 1525 341 1525 391.5 1568 c 128,-1,19
 442 1611 442 1611 511 1636 c 1,20,21
 573 1660 573 1660 638 1660 c 0,0,1
664 1450 m 1,22,23
 665 1449 665 1449 667 1449 c 2,24,-1
 668 1449 l 2,25,26
 666 1449 666 1449 662.5 1450.5 c 128,-1,27
 659 1452 659 1452 638 1452 c 0,28,29
 605 1452 605 1452 572 1436.5 c 128,-1,30
 539 1421 539 1421 511.5 1395.5 c 128,-1,31
 484 1370 484 1370 466 1337.5 c 128,-1,32
 448 1305 448 1305 448 1273 c 0,33,34
 448 1245 448 1245 464 1227.5 c 128,-1,35
 480 1210 480 1210 517 1210 c 0,36,37
 559 1210 559 1210 594 1228.5 c 128,-1,38
 629 1247 629 1247 654 1274 c 128,-1,39
 679 1301 679 1301 693 1332.5 c 128,-1,40
 707 1364 707 1364 707 1390 c 0,41,42
 707 1418 707 1418 693 1432.5 c 128,-1,43
 679 1447 679 1447 664 1450 c 1,22,23
EndSplineSet
EndChar
StartChar: plusminus
Encoding: 177 177 116
Width: 748
Flags: W
LayerCount: 2
Back
Fore
SplineSet
607 207 m 2,0,1
 711 207 711 207 711 103 c 0,2,3
 711 0 711 0 607 0 c 2,4,-1
 193 0 l 2,5,6
 88 0 88 0 88 103 c 0,7,8
 88 207 88 207 193 207 c 2,9,-1
 607 207 l 2,0,1
446 854 m 2,10,11
 467 932 467 932 535 932 c 0,12,13
 592 932 592 932 622 904 c 128,-1,14
 652 876 652 876 652 838 c 0,15,16
 652 821 652 821 646 800 c 2,17,-1
 625 723 l 1,18,-1
 698 723 l 2,19,20
 802 723 802 723 802 619 c 0,21,22
 802 516 802 516 698 516 c 2,23,-1
 570 516 l 1,24,-1
 535 385 l 1,25,26
 512 306 512 306 447 306 c 0,27,28
 388 306 388 306 358 334 c 128,-1,29
 328 362 328 362 328 398 c 0,30,31
 328 416 328 416 334 438 c 2,32,-1
 355 516 l 1,33,-1
 283 516 l 2,34,35
 179 516 179 516 179 619 c 0,36,37
 179 723 179 723 283 723 c 2,38,-1
 411 723 l 1,39,-1
 446 854 l 2,10,11
EndSplineSet
EndChar
StartChar: threesuperior
Encoding: 179 179 204
Width: 207
Flags: W
LayerCount: 2
Back
Fore
SplineSet
0 1348 m 2,0,1
 0 1369 0 1369 8 1388 c 128,-1,2
 16 1407 16 1407 30 1421.5 c 128,-1,3
 44 1436 44 1436 63 1444 c 128,-1,4
 82 1452 82 1452 103 1452 c 0,5,6
 125 1452 125 1452 143.5 1444 c 128,-1,7
 162 1436 162 1436 176.5 1421.5 c 128,-1,8
 191 1407 191 1407 199 1388.5 c 128,-1,9
 207 1370 207 1370 207 1348 c 2,10,-1
 207 -311 l 2,11,12
 207 -332 207 -332 199 -351 c 128,-1,13
 191 -370 191 -370 176.5 -384 c 128,-1,14
 162 -398 162 -398 143 -406 c 128,-1,15
 124 -414 124 -414 103 -414 c 0,16,17
 83 -414 83 -414 63.5 -405.5 c 128,-1,18
 44 -397 44 -397 30.5 -383.5 c 128,-1,19
 17 -370 17 -370 8.5 -350.5 c 128,-1,20
 0 -331 0 -331 0 -311 c 2,21,-1
 0 519 l 1,22,-1
 0 1348 l 2,0,1
EndSplineSet
EndChar
StartChar: acute
Encoding: 180 180 132
Width: 1824
Flags: W
LayerCount: 2
Back
Fore
SplineSet
561 1268 m 1,0,1
 537 1245 537 1245 500 1245 c 0,2,3
 455 1245 455 1245 424 1274.5 c 128,-1,4
 393 1304 393 1304 393 1349 c 0,5,6
 393 1374 393 1374 403.5 1394.5 c 128,-1,7
 414 1415 414 1415 433 1430 c 2,8,-1
 696 1637 l 2,9,10
 723 1659 723 1659 761 1659 c 0,11,12
 782 1659 782 1659 801 1650.5 c 128,-1,13
 820 1642 820 1642 833.5 1628.5 c 128,-1,14
 847 1615 847 1615 855.5 1596 c 128,-1,15
 864 1577 864 1577 864 1557 c 0,16,17
 864 1506 864 1506 824 1474 c 2,18,-1
 561 1268 l 1,0,1
EndSplineSet
EndChar
StartChar: periodcentered
Encoding: 183 183 172
Width: 535
Flags: W
LayerCount: 2
Back
Fore
SplineSet
603 950 m 0,0,1
 583 872 583 872 514 872 c 0,2,3
 457 872 457 872 427.5 900 c 128,-1,4
 398 928 398 928 398 965 c 0,5,6
 398 1025 398 1025 425 1056 c 128,-1,7
 452 1087 452 1087 490 1087 c 0,8,9
 548 1087 548 1087 577.5 1057.5 c 128,-1,10
 607 1028 607 1028 607 987 c 0,11,12
 607 967 607 967 603 950 c 0,0,1
EndSplineSet
EndChar
StartChar: guillemotright
Encoding: 187 187 192
Width: 1774
Flags: W
LayerCount: 2
Back
Fore
SplineSet
374 853 m 1,0,1
 355 870 355 870 345 889.5 c 128,-1,2
 335 909 335 909 335 936 c 0,3,4
 335 956 335 956 343.5 974.5 c 128,-1,5
 352 993 352 993 366.5 1007 c 128,-1,6
 381 1021 381 1021 400 1029 c 128,-1,7
 419 1037 419 1037 439 1037 c 0,8,9
 477 1037 477 1037 505 1014 c 2,10,-1
 1016 599 l 1,11,12
 1053 565 1053 565 1053 517 c 0,13,14
 1053 484 1053 484 1031 453 c 1,15,-1
 1017 439 l 2,16,17
 1012 435 1012 435 1008 432.5 c 128,-1,18
 1004 430 1004 430 1001 429 c 2,19,-1
 268 14 l 2,20,21
 243 0 243 0 217 0 c 0,22,23
 195 0 195 0 175.5 9 c 128,-1,24
 156 18 156 18 142.5 32 c 128,-1,25
 129 46 129 46 121 65 c 128,-1,26
 113 84 113 84 113 103 c 0,27,28
 113 132 113 132 127.5 156 c 128,-1,29
 142 180 142 180 166 194 c 2,30,-1
 768 534 l 1,31,-1
 374 853 l 1,0,1
1061 853 m 1,32,33
 1042 870 1042 870 1032 889.5 c 128,-1,34
 1022 909 1022 909 1022 936 c 0,35,36
 1022 956 1022 956 1030.5 974.5 c 128,-1,37
 1039 993 1039 993 1053.5 1007 c 128,-1,38
 1068 1021 1068 1021 1087 1029 c 128,-1,39
 1106 1037 1106 1037 1126 1037 c 0,40,41
 1164 1037 1164 1037 1192 1014 c 2,42,-1
 1703 599 l 1,43,44
 1740 565 1740 565 1740 517 c 0,45,46
 1740 484 1740 484 1718 453 c 1,47,-1
 1704 439 l 2,48,49
 1699 435 1699 435 1695 432.5 c 128,-1,50
 1691 430 1691 430 1688 429 c 2,51,-1
 955 14 l 2,52,53
 930 0 930 0 904 0 c 0,54,55
 882 0 882 0 862.5 9 c 128,-1,56
 843 18 843 18 829.5 32 c 128,-1,57
 816 46 816 46 808 65 c 128,-1,58
 800 84 800 84 800 103 c 0,59,60
 800 132 800 132 814 156 c 128,-1,61
 828 180 828 180 853 194 c 2,62,-1
 1454 534 l 1,63,-1
 1061 853 l 1,32,33
EndSplineSet
EndChar
StartChar: questiondown
Encoding: 191 191 98
Width: 1108
Flags: W
LayerCount: 2
Back
Fore
SplineSet
845 445 m 1,0,1
 875 520 875 520 954 520 c 0,2,3
 978 520 978 520 995 510.5 c 128,-1,4
 1012 501 1012 501 1024 486.5 c 128,-1,5
 1036 472 1036 472 1042 454 c 128,-1,6
 1048 436 1048 436 1048 420 c 0,7,8
 1048 382 1048 382 1031 340 c 128,-1,9
 1014 298 1014 298 987 257.5 c 128,-1,10
 960 217 960 217 926 180 c 128,-1,11
 892 143 892 143 859 117 c 0,12,13
 791 64 791 64 710.5 34 c 128,-1,14
 630 4 630 4 550 4 c 0,15,16
 482 4 482 4 420 27 c 128,-1,17
 358 50 358 50 310.5 94 c 128,-1,18
 263 138 263 138 235.5 200.5 c 128,-1,19
 208 263 208 263 208 342 c 0,20,21
 208 398 208 398 224.5 454.5 c 128,-1,22
 241 511 241 511 269 561.5 c 128,-1,23
 297 612 297 612 335 655 c 128,-1,24
 373 698 373 698 417 726 c 0,25,26
 430 735 430 735 443.5 743 c 128,-1,27
 457 751 457 751 475 762.5 c 128,-1,28
 493 774 493 774 518 793 c 128,-1,29
 543 812 543 812 582 842 c 1,30,31
 655 901 655 901 676 977 c 1,32,33
 706 1052 706 1052 779 1052 c 0,34,35
 804 1052 804 1052 822.5 1043.5 c 128,-1,36
 841 1035 841 1035 854 1020.5 c 128,-1,37
 867 1006 867 1006 873 987.5 c 128,-1,38
 879 969 879 969 879 948 c 0,39,40
 879 942 879 942 878.5 936 c 128,-1,41
 878 930 878 930 877 923 c 0,42,43
 841 789 841 789 739 705 c 0,44,45
 687 661 687 661 652.5 635 c 128,-1,46
 618 609 618 609 596 594.5 c 128,-1,47
 574 580 574 580 562 573 c 128,-1,48
 550 566 550 566 544 562 c 0,49,50
 488 523 488 523 452 466 c 128,-1,51
 416 409 416 409 416 336 c 0,52,53
 416 280 416 280 450.5 245.5 c 128,-1,54
 485 211 485 211 550 211 c 0,55,56
 593 211 593 211 640 229 c 128,-1,57
 687 247 687 247 728.5 278.5 c 128,-1,58
 770 310 770 310 801.5 352.5 c 128,-1,59
 833 395 833 395 845 445 c 1,0,1
775 1378 m 1,60,61
 802 1452 802 1452 877 1452 c 0,62,63
 902 1452 902 1452 921 1444 c 128,-1,64
 940 1436 940 1436 953 1422 c 128,-1,65
 966 1408 966 1408 972.5 1391 c 128,-1,66
 979 1374 979 1374 979 1356 c 256,67,68
 979 1338 979 1338 975 1324 c 1,69,-1
 975 1322 l 1,70,71
 946 1246 946 1246 874 1246 c 0,72,73
 845 1246 845 1246 826 1256 c 128,-1,74
 807 1266 807 1266 795 1281.5 c 128,-1,75
 783 1297 783 1297 777.5 1317 c 128,-1,76
 772 1337 772 1337 772 1357 c 0,77,78
 772 1362 772 1362 772 1366 c 128,-1,79
 772 1370 772 1370 774 1375 c 2,80,-1
 775 1378 l 1,60,61
EndSplineSet
EndChar
StartChar: Aring
Encoding: 197 197 123
Width: 1196
Flags: W
LayerCount: 2
Back
Fore
SplineSet
1069 1907 m 0,0,1
 1114 1907 1114 1907 1163.5 1890.5 c 128,-1,2
 1213 1874 1213 1874 1253 1840.5 c 128,-1,3
 1293 1807 1293 1807 1319.5 1756 c 128,-1,4
 1346 1705 1346 1705 1346 1637 c 256,5,6
 1346 1569 1346 1569 1320.5 1509 c 128,-1,7
 1295 1449 1295 1449 1252.5 1400 c 128,-1,8
 1210 1351 1210 1351 1155.5 1316 c 128,-1,9
 1101 1281 1101 1281 1042 1263 c 1,10,-1
 1117 110 l 1,11,-1
 1117 96 l 2,12,13
 1117 1 1117 1 1011 1 c 0,14,15
 915 1 915 1 911 97 c 1,16,-1
 896 312 l 1,17,-1
 429 312 l 1,18,-1
 272 50 l 2,19,20
 240 -4 240 -4 192 -4 c 0,21,22
 169 -4 169 -4 148 5.5 c 128,-1,23
 127 15 127 15 110.5 29 c 128,-1,24
 94 43 94 43 85 61 c 128,-1,25
 76 79 76 79 76 95 c 1,26,27
 77 109 77 109 81 125 c 128,-1,28
 85 141 85 141 94 157 c 2,29,-1
 782 1299 l 1,30,31
 732 1337 732 1337 702 1391 c 128,-1,32
 672 1445 672 1445 672 1520 c 0,33,34
 672 1566 672 1566 689 1619.5 c 128,-1,35
 706 1673 706 1673 739 1723 c 128,-1,36
 772 1773 772 1773 823 1815.5 c 128,-1,37
 874 1858 874 1858 942 1884 c 0,38,39
 1004 1907 1004 1907 1069 1907 c 0,0,1
850 1012 m 1,40,-1
 554 519 l 1,41,-1
 882 519 l 1,42,-1
 850 1012 l 1,40,-1
1096 1697 m 1,43,-1
 1097 1696 l 1,44,-1
 1096 1696 l 1,45,46
 1094 1697 1094 1697 1086.5 1698.5 c 128,-1,47
 1079 1700 1079 1700 1069 1700 c 0,48,49
 1037 1700 1037 1700 1003.5 1684.5 c 128,-1,50
 970 1669 970 1669 942.5 1643.5 c 128,-1,51
 915 1618 915 1618 897.5 1585.5 c 128,-1,52
 880 1553 880 1553 880 1520 c 0,53,54
 880 1493 880 1493 895.5 1475 c 128,-1,55
 911 1457 911 1457 948 1457 c 0,56,57
 991 1457 991 1457 1025.5 1476 c 128,-1,58
 1060 1495 1060 1495 1085 1522 c 128,-1,59
 1110 1549 1110 1549 1124 1580.5 c 128,-1,60
 1138 1612 1138 1612 1138 1637 c 0,61,62
 1138 1666 1138 1666 1124 1680 c 128,-1,63
 1110 1694 1110 1694 1096 1697 c 1,43,-1
EndSplineSet
EndChar
StartChar: Igrave
Encoding: 204 204 137
Width: 457
Flags: W
LayerCount: 2
Back
Fore
SplineSet
462 1376 m 2,0,1
 483 1454 483 1454 549 1454 c 0,2,3
 578 1454 578 1454 600 1446.5 c 128,-1,4
 622 1439 622 1439 637 1425.5 c 128,-1,5
 652 1412 652 1412 659.5 1395.5 c 128,-1,6
 667 1379 667 1379 667 1360 c 0,7,8
 667 1342 667 1342 661 1322 c 2,9,-1
 328 77 l 2,10,11
 308 -1 308 -1 239 -1 c 0,12,13
 182 -1 182 -1 152.5 26.5 c 128,-1,14
 123 54 123 54 123 92 c 0,15,16
 123 101 123 101 124 110.5 c 128,-1,17
 125 120 125 120 128 131 c 2,18,-1
 462 1376 l 2,0,1
334 1798 m 2,19,20
 314 1824 314 1824 314 1859 c 0,21,22
 314 1881 314 1881 322.5 1900 c 128,-1,23
 331 1919 331 1919 345.5 1933 c 128,-1,24
 360 1947 360 1947 379 1955 c 128,-1,25
 398 1963 398 1963 419 1963 c 0,26,27
 444 1963 444 1963 465.5 1951.5 c 128,-1,28
 487 1940 487 1940 501 1921 c 2,29,-1
 654 1714 l 1,30,31
 673 1686 673 1686 673 1655 c 0,32,33
 673 1634 673 1634 665.5 1615 c 128,-1,34
 658 1596 658 1596 644.5 1580.5 c 128,-1,35
 631 1565 631 1565 612.5 1556.5 c 128,-1,36
 594 1548 594 1548 571 1548 c 0,37,38
 543 1548 543 1548 522 1559.5 c 128,-1,39
 501 1571 501 1571 486 1591 c 2,40,-1
 334 1798 l 2,19,20
EndSplineSet
EndChar
StartChar: Idieresis
Encoding: 207 207 90
Width: 591
Flags: W
LayerCount: 2
Back
Fore
SplineSet
800 1760 m 1,0,1
 821 1839 821 1839 887 1839 c 0,2,3
 916 1839 916 1839 938 1831 c 128,-1,4
 960 1823 960 1823 975 1809.5 c 128,-1,5
 990 1796 990 1796 997.5 1779.5 c 128,-1,6
 1005 1763 1005 1763 1005 1744 c 0,7,8
 1005 1727 1005 1727 999 1706 c 1,9,-1
 999 1704 l 1,10,11
 977 1624 977 1624 912 1624 c 0,12,13
 853 1624 853 1624 823 1651.5 c 128,-1,14
 793 1679 793 1679 793 1717 c 0,15,16
 793 1735 793 1735 799 1757 c 1,17,-1
 800 1760 l 1,0,1
313 1760 m 1,18,19
 333 1839 333 1839 400 1839 c 0,20,21
 428 1839 428 1839 450.5 1831 c 128,-1,22
 473 1823 473 1823 487.5 1809.5 c 128,-1,23
 502 1796 502 1796 510 1779.5 c 128,-1,24
 518 1763 518 1763 518 1744 c 0,25,26
 518 1727 518 1727 512 1706 c 1,27,-1
 512 1704 l 1,28,29
 489 1624 489 1624 425 1624 c 0,30,31
 366 1624 366 1624 336 1651.5 c 128,-1,32
 306 1679 306 1679 306 1717 c 0,33,34
 306 1735 306 1735 312 1757 c 1,35,-1
 313 1760 l 1,18,19
462 1376 m 2,36,37
 483 1454 483 1454 549 1454 c 0,38,39
 578 1454 578 1454 600 1446.5 c 128,-1,40
 622 1439 622 1439 637 1425.5 c 128,-1,41
 652 1412 652 1412 659.5 1395.5 c 128,-1,42
 667 1379 667 1379 667 1360 c 0,43,44
 667 1342 667 1342 661 1322 c 2,45,-1
 328 77 l 2,46,47
 308 -1 308 -1 239 -1 c 0,48,49
 182 -1 182 -1 152.5 26.5 c 128,-1,50
 123 54 123 54 123 92 c 0,51,52
 123 101 123 101 124 110.5 c 128,-1,53
 125 120 125 120 128 131 c 2,54,-1
 462 1376 l 2,36,37
EndSplineSet
EndChar
StartChar: Eth
Encoding: 208 208 129
Width: 1320
Flags: W
LayerCount: 2
Back
Fore
SplineSet
219 617 m 2,0,1
 115 617 115 617 115 720 c 0,2,3
 115 825 115 825 219 825 c 2,4,-1
 331 825 l 1,5,-1
 479 1370 l 1,6,7
 493 1452 493 1452 580 1452 c 2,8,-1
 995 1452 l 2,9,10
 1110 1452 1110 1452 1188.5 1420.5 c 128,-1,11
 1267 1389 1267 1389 1314 1334.5 c 128,-1,12
 1361 1280 1361 1280 1381 1206.5 c 128,-1,13
 1401 1133 1401 1133 1401 1052 c 0,14,15
 1401 1010 1401 1010 1396.5 966 c 128,-1,16
 1392 922 1392 922 1383.5 876.5 c 128,-1,17
 1375 831 1375 831 1364.5 786 c 128,-1,18
 1354 741 1354 741 1342 700 c 1,19,20
 1322 625 1322 625 1295.5 544.5 c 128,-1,21
 1269 464 1269 464 1231 386.5 c 128,-1,22
 1193 309 1193 309 1142 238.5 c 128,-1,23
 1091 168 1091 168 1022 115 c 128,-1,24
 953 62 953 62 864 31 c 128,-1,25
 775 0 775 0 661 0 c 2,26,-1
 254 1 l 2,27,28
 252 1 252 1 249.5 0.5 c 128,-1,29
 247 0 247 0 245 0 c 0,30,31
 193 0 193 0 167 28.5 c 128,-1,32
 141 57 141 57 141 92 c 0,33,34
 141 101 141 101 141.5 110.5 c 128,-1,35
 142 120 142 120 145 131 c 2,36,-1
 276 617 l 1,37,-1
 219 617 l 2,0,1
661 207 m 2,38,39
 742 207 742 207 805 231.5 c 128,-1,40
 868 256 868 256 916 297.5 c 128,-1,41
 964 339 964 339 1000 393.5 c 128,-1,42
 1036 448 1036 448 1062.5 508.5 c 128,-1,43
 1089 569 1089 569 1108 632 c 128,-1,44
 1127 695 1127 695 1143 753 c 0,45,46
 1153 789 1153 789 1161.5 827.5 c 128,-1,47
 1170 866 1170 866 1177.5 903.5 c 128,-1,48
 1185 941 1185 941 1189.5 978 c 128,-1,49
 1194 1015 1194 1015 1194 1048 c 0,50,51
 1194 1088 1194 1088 1186.5 1124 c 128,-1,52
 1179 1160 1179 1160 1158 1187 c 128,-1,53
 1137 1214 1137 1214 1097.5 1229.5 c 128,-1,54
 1058 1245 1058 1245 995 1245 c 2,55,-1
 659 1245 l 1,56,-1
 546 825 l 1,57,-1
 913 825 l 2,58,59
 1017 825 1017 825 1017 720 c 0,60,61
 1017 617 1017 617 913 617 c 2,62,-1
 490 617 l 1,63,-1
 380 207 l 1,64,-1
 661 207 l 2,38,39
EndSplineSet
EndChar
StartChar: Oslash
Encoding: 216 216 145
Width: 1207
Flags: W
LayerCount: 2
Back
Fore
SplineSet
944 1452 m 0,0,1
 968 1452 968 1452 990.5 1450.5 c 128,-1,2
 1013 1449 1013 1449 1036 1445 c 1,3,4
 1056 1459 1056 1459 1081 1459 c 0,5,6
 1098 1459 1098 1459 1116 1453 c 128,-1,7
 1134 1447 1134 1447 1150 1436.5 c 128,-1,8
 1166 1426 1166 1426 1177.5 1413 c 128,-1,9
 1189 1400 1189 1400 1194 1387 c 1,10,11
 1263 1340 1263 1340 1304 1253 c 128,-1,12
 1345 1166 1345 1166 1345 1026 c 0,13,14
 1345 894 1345 894 1293 700 c 0,15,16
 1252 546 1252 546 1201 435 c 128,-1,17
 1150 324 1150 324 1092 246 c 128,-1,18
 1034 168 1034 168 972 120 c 128,-1,19
 910 72 910 72 847.5 45.5 c 128,-1,20
 785 19 785 19 725 9.5 c 128,-1,21
 665 0 665 0 611 0 c 0,22,23
 548 0 548 0 491 12 c 1,24,25
 472 0 472 0 448 0 c 0,26,27
 426 0 426 0 405.5 8 c 128,-1,28
 385 16 385 16 369 28.5 c 128,-1,29
 353 41 353 41 342.5 57 c 128,-1,30
 332 73 332 73 331 87 c 1,31,32
 278 136 278 136 244.5 217.5 c 128,-1,33
 211 299 211 299 211 421 c 0,34,35
 211 553 211 553 263 753 c 1,36,37
 302 898 302 898 350.5 1006 c 128,-1,38
 399 1114 399 1114 454.5 1192 c 128,-1,39
 510 1270 510 1270 571 1320.5 c 128,-1,40
 632 1371 632 1371 695 1400.5 c 128,-1,41
 758 1430 758 1430 821 1441 c 128,-1,42
 884 1452 884 1452 944 1452 c 0,0,1
611 207 m 2,43,44
 655 207 655 207 699.5 216 c 128,-1,45
 744 225 744 225 787 248 c 128,-1,46
 830 271 830 271 872.5 310.5 c 128,-1,47
 915 350 915 350 954 410.5 c 128,-1,48
 993 471 993 471 1027.5 555.5 c 128,-1,49
 1062 640 1062 640 1093 753 c 0,50,51
 1117 843 1117 843 1127.5 913 c 128,-1,52
 1138 983 1138 983 1138 1036 c 0,53,54
 1138 1080 1138 1080 1131.5 1114 c 128,-1,55
 1125 1148 1125 1148 1113 1172 c 1,56,-1
 608 207 l 1,57,-1
 611 207 l 2,43,44
819 1225 m 1,58,59
 768 1211 768 1211 719 1174.5 c 128,-1,60
 670 1138 670 1138 624.5 1075 c 128,-1,61
 579 1012 579 1012 537.5 919.5 c 128,-1,62
 496 827 496 827 463 700 c 0,63,64
 440 613 440 613 428 544.5 c 128,-1,65
 416 476 416 476 416 426 c 0,66,67
 416 359 416 359 429 312 c 1,68,-1
 918 1244 l 1,69,70
 867 1241 867 1241 819 1225 c 1,58,59
EndSplineSet
EndChar
StartChar: Thorn
Encoding: 222 222 181
Width: 1293
Flags: W
LayerCount: 2
Back
Fore
SplineSet
462 1376 m 2,0,1
 483 1454 483 1454 549 1454 c 0,2,3
 578 1454 578 1454 600 1446.5 c 128,-1,4
 622 1439 622 1439 637 1425.5 c 128,-1,5
 652 1412 652 1412 659.5 1395.5 c 128,-1,6
 667 1379 667 1379 667 1360 c 0,7,8
 667 1342 667 1342 661 1322 c 2,9,-1
 614 1148 l 1,10,-1
 999 1148 l 2,11,12
 1072 1148 1072 1148 1134.5 1123 c 128,-1,13
 1197 1098 1197 1098 1243 1053 c 128,-1,14
 1289 1008 1289 1008 1315.5 946.5 c 128,-1,15
 1342 885 1342 885 1342 814 c 0,16,17
 1342 746 1342 746 1321.5 683 c 128,-1,18
 1301 620 1301 620 1264.5 565 c 128,-1,19
 1228 510 1228 510 1179.5 464.5 c 128,-1,20
 1131 419 1131 419 1074 386.5 c 128,-1,21
 1017 354 1017 354 955.5 335.5 c 128,-1,22
 894 317 894 317 833 317 c 2,23,-1
 394 317 l 1,24,-1
 330 77 l 2,25,26
 309 -1 309 -1 243 -1 c 0,27,28
 184 -1 184 -1 153.5 25.5 c 128,-1,29
 123 52 123 52 123 92 c 0,30,31
 123 101 123 101 124 110.5 c 128,-1,32
 125 120 125 120 128 131 c 2,33,-1
 462 1376 l 2,0,1
449 526 m 1,34,-1
 833 526 l 2,35,36
 882 526 882 526 936 549 c 128,-1,37
 990 572 990 572 1034 612 c 128,-1,38
 1078 652 1078 652 1106.5 704 c 128,-1,39
 1135 756 1135 756 1135 814 c 0,40,41
 1135 870 1135 870 1099.5 905 c 128,-1,42
 1064 940 1064 940 999 940 c 2,43,-1
 561 940 l 1,44,-1
 449 526 l 1,34,-1
EndSplineSet
EndChar
StartChar: germandbls
Encoding: 223 223 28
Width: 1168
Flags: W
LayerCount: 2
Back
Fore
SplineSet
203 77 m 2,0,1
 183 -1 183 -1 114 -1 c 0,2,3
 57 -1 57 -1 27.5 26.5 c 128,-1,4
 -2 54 -2 54 -2 92 c 0,5,6
 -2 101 -2 101 -1 110.5 c 128,-1,7
 0 120 0 120 3 131 c 2,8,-1
 281 1168 l 2,9,10
 295 1219 295 1219 327 1270 c 128,-1,11
 359 1321 359 1321 406 1361 c 128,-1,12
 453 1401 453 1401 514 1426.5 c 128,-1,13
 575 1452 575 1452 647 1452 c 2,14,-1
 648 1452 l 1,15,16
 723 1451 723 1451 784.5 1452 c 128,-1,17
 846 1453 846 1453 896.5 1446.5 c 128,-1,18
 947 1440 947 1440 988.5 1418.5 c 128,-1,19
 1030 1397 1030 1397 1064 1352 c 1,20,21
 1113 1282 1113 1282 1113 1197 c 0,22,23
 1113 1101 1113 1101 1062.5 1020 c 128,-1,24
 1012 939 1012 939 927 885 c 1,25,26
 969 811 969 811 969 704 c 0,27,28
 969 628 969 628 950.5 546 c 128,-1,29
 932 464 932 464 901 387 c 128,-1,30
 870 310 870 310 830 244 c 128,-1,31
 790 178 790 178 747 136 c 0,32,33
 609 0 609 0 415 0 c 0,34,35
 311 0 311 0 311 104 c 0,36,37
 311 207 311 207 415 207 c 0,38,39
 646 207 646 207 737 545 c 0,40,41
 761 634 761 634 761 704 c 0,42,43
 761 737 761 737 755 760.5 c 128,-1,44
 749 784 749 784 734.5 800 c 128,-1,45
 720 816 720 816 696.5 823 c 128,-1,46
 673 830 673 830 637 830 c 2,47,-1
 634 830 l 2,48,49
 534 830 534 830 534 934 c 256,50,51
 534 1038 534 1038 634 1038 c 0,52,53
 636 1038 636 1038 637 1037 c 1,54,-1
 739 1038 l 2,55,56
 768 1038 768 1038 797.5 1052 c 128,-1,57
 827 1066 827 1066 851.5 1088 c 128,-1,58
 876 1110 876 1110 891 1138 c 128,-1,59
 906 1166 906 1166 906 1196 c 0,60,61
 906 1219 906 1219 895 1232 c 128,-1,62
 884 1245 884 1245 862 1245 c 0,63,64
 812 1245 812 1245 757 1245.5 c 128,-1,65
 702 1246 702 1246 646 1246 c 0,66,67
 623 1246 623 1246 597.5 1236.5 c 128,-1,68
 572 1227 572 1227 549 1210 c 128,-1,69
 526 1193 526 1193 507.5 1169 c 128,-1,70
 489 1145 489 1145 482 1115 c 1,71,-1
 203 77 l 2,0,1
EndSplineSet
EndChar
StartChar: adieresis
Encoding: 228 228 91
Width: 1079
Flags: W
LayerCount: 2
Back
Fore
SplineSet
943 969 m 1,0,1
 972 1036 972 1036 1043 1036 c 0,2,3
 1067 1036 1067 1036 1086 1026.5 c 128,-1,4
 1105 1017 1105 1017 1117.5 1002.5 c 128,-1,5
 1130 988 1130 988 1136 969.5 c 128,-1,6
 1142 951 1142 951 1142 934 c 0,7,8
 1142 927 1142 927 1142 920.5 c 128,-1,9
 1142 914 1142 914 1140 906 c 2,10,-1
 945 206 l 1,11,12
 1033 192 1033 192 1033 104 c 0,13,14
 1033 0 1033 0 929 0 c 0,15,16
 881 0 881 0 840.5 19 c 128,-1,17
 800 38 800 38 771 76 c 0,18,19
 769 77 769 77 768 79 c 128,-1,20
 767 81 767 81 767 82 c 1,21,22
 649 0 649 0 499 0 c 0,23,24
 421 0 421 0 359.5 22.5 c 128,-1,25
 298 45 298 45 255 88 c 128,-1,26
 212 131 212 131 189.5 193.5 c 128,-1,27
 167 256 167 256 167 334 c 256,28,29
 167 412 167 412 185 494.5 c 128,-1,30
 203 577 203 577 233.5 653 c 128,-1,31
 264 729 264 729 304.5 794 c 128,-1,32
 345 859 345 859 388 902 c 0,33,34
 525 1038 525 1038 721 1038 c 0,35,36
 783 1038 783 1038 841.5 1020 c 128,-1,37
 900 1002 900 1002 943 969 c 1,0,1
778 824 m 1,38,39
 751 830 751 830 721 830 c 0,40,41
 604 830 604 830 523.5 745 c 128,-1,42
 443 660 443 660 399 492 c 1,43,44
 374 401 374 401 374 334 c 0,45,46
 374 300 374 300 380 276.5 c 128,-1,47
 386 253 386 253 400.5 237 c 128,-1,48
 415 221 415 221 439 214 c 128,-1,49
 463 207 463 207 499 207 c 0,50,51
 615 207 615 207 695.5 292.5 c 128,-1,52
 776 378 776 378 821 545 c 0,53,54
 846 637 846 637 846 704 c 0,55,56
 846 754 846 754 833 782.5 c 128,-1,57
 820 811 820 811 778 824 c 1,38,39
1067 1384 m 1,58,59
 1101 1460 1101 1460 1164 1460 c 0,60,61
 1190 1460 1190 1460 1209.5 1451 c 128,-1,62
 1229 1442 1229 1442 1242.5 1427 c 128,-1,63
 1256 1412 1256 1412 1262.5 1393 c 128,-1,64
 1269 1374 1269 1374 1269 1354 c 0,65,66
 1269 1348 1269 1348 1268.5 1342 c 128,-1,67
 1268 1336 1268 1336 1267 1330 c 1,68,-1
 1267 1328 l 1,69,70
 1239 1250 1239 1250 1172 1250 c 0,71,72
 1145 1250 1145 1250 1125 1259 c 128,-1,73
 1105 1268 1105 1268 1091 1282 c 128,-1,74
 1077 1296 1077 1296 1070 1314 c 128,-1,75
 1063 1332 1063 1332 1063 1350 c 0,76,77
 1063 1364 1063 1364 1066 1381 c 1,78,-1
 1067 1384 l 1,58,59
580 1384 m 1,79,80
 606 1458 606 1458 680 1458 c 0,81,82
 706 1458 706 1458 725.5 1450 c 128,-1,83
 745 1442 745 1442 757.5 1428.5 c 128,-1,84
 770 1415 770 1415 776.5 1397.5 c 128,-1,85
 783 1380 783 1380 783 1362 c 0,86,87
 783 1354 783 1354 782 1346 c 128,-1,88
 781 1338 781 1338 779 1330 c 1,89,-1
 779 1328 l 1,90,91
 743 1253 743 1253 669 1253 c 0,92,93
 646 1253 646 1253 628.5 1263 c 128,-1,94
 611 1273 611 1273 600 1288 c 128,-1,95
 589 1303 589 1303 583 1322 c 128,-1,96
 577 1341 577 1341 577 1359 c 0,97,98
 577 1364 577 1364 577.5 1369.5 c 128,-1,99
 578 1375 578 1375 579 1381 c 2,100,-1
 580 1384 l 1,79,80
EndSplineSet
EndChar
StartChar: aring
Encoding: 229 229 124
Width: 1116
Flags: W
LayerCount: 2
Back
Fore
SplineSet
938 1780 m 0,0,1
 983 1780 983 1780 1032 1763 c 128,-1,2
 1081 1746 1081 1746 1121.5 1712.5 c 128,-1,3
 1162 1679 1162 1679 1188.5 1628 c 128,-1,4
 1215 1577 1215 1577 1215 1509 c 0,5,6
 1215 1429 1215 1429 1179 1358.5 c 128,-1,7
 1143 1288 1143 1288 1086 1235.5 c 128,-1,8
 1029 1183 1029 1183 958 1152.5 c 128,-1,9
 887 1122 887 1122 817 1122 c 0,10,11
 762 1122 762 1122 711.5 1141 c 128,-1,12
 661 1160 661 1160 623.5 1194.5 c 128,-1,13
 586 1229 586 1229 563 1279.5 c 128,-1,14
 540 1330 540 1330 540 1393 c 0,15,16
 540 1439 540 1439 557 1492 c 128,-1,17
 574 1545 574 1545 607.5 1595 c 128,-1,18
 641 1645 641 1645 691.5 1688 c 128,-1,19
 742 1731 742 1731 811 1756 c 1,20,21
 873 1780 873 1780 938 1780 c 0,0,1
964 1569 m 1,22,23
 965 1568 965 1568 967 1568 c 2,24,-1
 968 1568 l 2,25,26
 967 1568 967 1568 961 1570 c 128,-1,27
 955 1572 955 1572 938 1572 c 0,28,29
 905 1572 905 1572 871.5 1556.5 c 128,-1,30
 838 1541 838 1541 810.5 1515.5 c 128,-1,31
 783 1490 783 1490 765.5 1457.5 c 128,-1,32
 748 1425 748 1425 748 1393 c 0,33,34
 748 1365 748 1365 763.5 1347.5 c 128,-1,35
 779 1330 779 1330 817 1330 c 0,36,37
 859 1330 859 1330 894 1348.5 c 128,-1,38
 929 1367 929 1367 954 1394 c 128,-1,39
 979 1421 979 1421 992.5 1452.5 c 128,-1,40
 1006 1484 1006 1484 1006 1509 c 0,41,42
 1006 1538 1006 1538 992.5 1552 c 128,-1,43
 979 1566 979 1566 964 1569 c 1,22,23
944 969 m 1,44,45
 968 1039 968 1039 1032 1039 c 0,46,47
 1089 1039 1089 1039 1118 1010.5 c 128,-1,48
 1147 982 1147 982 1147 945 c 1,49,50
 1146 936 1146 936 1145 926.5 c 128,-1,51
 1144 917 1144 917 1141 906 c 2,52,-1
 946 206 l 1,53,54
 1034 192 1034 192 1034 104 c 0,55,56
 1034 0 1034 0 930 0 c 0,57,58
 882 0 882 0 841.5 19 c 128,-1,59
 801 38 801 38 772 76 c 0,60,61
 770 77 770 77 769 79 c 128,-1,62
 768 81 768 81 768 82 c 1,63,64
 650 0 650 0 500 0 c 0,65,66
 422 0 422 0 360.5 22.5 c 128,-1,67
 299 45 299 45 256 88 c 128,-1,68
 213 131 213 131 190.5 193.5 c 128,-1,69
 168 256 168 256 168 334 c 256,70,71
 168 412 168 412 186 494.5 c 128,-1,72
 204 577 204 577 234.5 653 c 128,-1,73
 265 729 265 729 305.5 794 c 128,-1,74
 346 859 346 859 389 902 c 0,75,76
 526 1038 526 1038 722 1038 c 0,77,78
 784 1038 784 1038 842.5 1020 c 128,-1,79
 901 1002 901 1002 944 969 c 1,44,45
779 824 m 1,80,81
 752 830 752 830 722 830 c 0,82,83
 605 830 605 830 524.5 745 c 128,-1,84
 444 660 444 660 400 492 c 1,85,86
 375 401 375 401 375 334 c 0,87,88
 375 300 375 300 381 276.5 c 128,-1,89
 387 253 387 253 401.5 237 c 128,-1,90
 416 221 416 221 440 214 c 128,-1,91
 464 207 464 207 500 207 c 0,92,93
 616 207 616 207 696.5 292.5 c 128,-1,94
 777 378 777 378 823 545 c 1,95,96
 847 637 847 637 847 704 c 0,97,98
 847 754 847 754 834 782.5 c 128,-1,99
 821 811 821 811 779 824 c 1,80,81
EndSplineSet
EndChar
StartChar: ae
Encoding: 230 230 125
Width: 1575
Flags: W
LayerCount: 2
Back
Fore
SplineSet
1286 281 m 0,0,1
 1322 316 1322 316 1358 316 c 0,2,3
 1376 316 1376 316 1395.5 305.5 c 128,-1,4
 1415 295 1415 295 1431 278.5 c 128,-1,5
 1447 262 1447 262 1457 243 c 128,-1,6
 1467 224 1467 224 1467 206 c 0,7,8
 1467 181 1467 181 1449 155.5 c 128,-1,9
 1431 130 1431 130 1403 106.5 c 128,-1,10
 1375 83 1375 83 1342 64 c 128,-1,11
 1309 45 1309 45 1280 33 c 0,12,13
 1194 0 1194 0 1103 0 c 0,14,15
 1005 0 1005 0 936.5 34.5 c 128,-1,16
 868 69 868 69 826 131 c 1,17,18
 786 102 786 102 729 78.5 c 128,-1,19
 672 55 672 55 612 37.5 c 128,-1,20
 552 20 552 20 495.5 10 c 128,-1,21
 439 0 439 0 400 0 c 0,22,23
 348 0 348 0 298.5 15.5 c 128,-1,24
 249 31 249 31 210 63.5 c 128,-1,25
 171 96 171 96 147 145.5 c 128,-1,26
 123 195 123 195 123 261 c 0,27,28
 123 267 123 267 124 289 c 128,-1,29
 125 311 125 311 132.5 341.5 c 128,-1,30
 140 372 140 372 156.5 409 c 128,-1,31
 173 446 173 446 204 483.5 c 128,-1,32
 235 521 235 521 283 555 c 128,-1,33
 331 589 331 589 401 613 c 0,34,35
 469 637 469 637 540 637 c 0,36,37
 603 637 603 637 666.5 615 c 128,-1,38
 730 593 730 593 795 554 c 0,39,40
 798 552 798 552 801 550 c 128,-1,41
 804 548 804 548 806 546 c 1,42,-1
 808 551 l 1,43,44
 813 568 813 568 817.5 583.5 c 128,-1,45
 822 599 822 599 826 615 c 2,46,-1
 865 753 l 1,47,48
 868 771 868 771 868 784 c 0,49,50
 868 800 868 800 853.5 810.5 c 128,-1,51
 839 821 839 821 819.5 826 c 128,-1,52
 800 831 800 831 778.5 833 c 128,-1,53
 757 835 757 835 741 835 c 0,54,55
 691 835 691 835 636 822 c 128,-1,56
 581 809 581 809 528 786 c 0,57,58
 508 777 508 777 488 777 c 256,59,60
 468 777 468 777 448.5 785 c 128,-1,61
 429 793 429 793 414.5 807.5 c 128,-1,62
 400 822 400 822 391.5 840.5 c 128,-1,63
 383 859 383 859 383 881 c 0,64,65
 383 912 383 912 400.5 937.5 c 128,-1,66
 418 963 418 963 446 977 c 1,67,68
 600 1042 600 1042 745 1042 c 0,69,70
 838 1042 838 1042 909 1014 c 128,-1,71
 980 986 980 986 1023 932 c 0,72,73
 1024 931 1024 931 1024 930.5 c 128,-1,74
 1024 930 1024 930 1025 929 c 1,75,76
 1153 1038 1153 1038 1325 1038 c 0,77,78
 1397 1038 1397 1038 1457.5 1016.5 c 128,-1,79
 1518 995 1518 995 1561.5 952.5 c 128,-1,80
 1605 910 1605 910 1629 848 c 128,-1,81
 1653 786 1653 786 1653 706 c 0,82,83
 1653 658 1653 658 1645.5 604.5 c 128,-1,84
 1638 551 1638 551 1621 492 c 0,85,86
 1611 454 1611 454 1585.5 435 c 128,-1,87
 1560 416 1560 416 1521 416 c 2,88,-1
 990 415 l 1,89,90
 986 394 986 394 984 373.5 c 128,-1,91
 982 353 982 353 982 332 c 0,92,93
 982 299 982 299 987.5 275.5 c 128,-1,94
 993 252 993 252 1006.5 236.5 c 128,-1,95
 1020 221 1020 221 1043 214 c 128,-1,96
 1066 207 1066 207 1103 207 c 0,97,98
 1210 207 1210 207 1286 281 c 0,0,1
1140 754 m 0,99,100
 1114 729 1114 729 1092.5 696 c 128,-1,101
 1071 663 1071 663 1052 622 c 1,102,-1
 1439 622 l 1,103,104
 1443 647 1443 647 1445 667.5 c 128,-1,105
 1447 688 1447 688 1447 706 c 0,106,107
 1447 773 1447 773 1419.5 801.5 c 128,-1,108
 1392 830 1392 830 1325 830 c 0,109,110
 1217 830 1217 830 1140 754 c 0,99,100
669 279 m 1,111,112
 692 288 692 288 712 302 c 128,-1,113
 732 316 732 316 746 333 c 1,114,115
 726 351 726 351 702 368 c 128,-1,116
 678 385 678 385 651.5 399.5 c 128,-1,117
 625 414 625 414 597 422 c 128,-1,118
 569 430 569 430 543 430 c 0,119,120
 527 430 527 430 496.5 425 c 128,-1,121
 466 420 466 420 434.5 405.5 c 128,-1,122
 403 391 403 391 375 365.5 c 128,-1,123
 347 340 347 340 335 301 c 0,124,125
 330 285 330 285 330 278.5 c 128,-1,126
 330 272 330 272 330 258 c 0,127,128
 330 238 330 238 339.5 227.5 c 128,-1,129
 349 217 349 217 360 212.5 c 128,-1,130
 371 208 371 208 381 207.5 c 128,-1,131
 391 207 391 207 392 207 c 0,132,133
 395 206 395 206 403 206 c 0,134,135
 430 206 430 206 466 212.5 c 128,-1,136
 502 219 502 219 539 229.5 c 128,-1,137
 576 240 576 240 610.5 252.5 c 128,-1,138
 645 265 645 265 669 279 c 1,111,112
EndSplineSet
EndChar
StartChar: ccedilla
Encoding: 231 231 127
Width: 965
Flags: W
LayerCount: 2
Back
Fore
SplineSet
73 -284 m 1,0,1
 91 -204 91 -204 160 -204 c 0,2,3
 218 -204 218 -204 248 -232.5 c 128,-1,4
 278 -261 278 -261 278 -299 c 0,5,6
 278 -314 278 -314 273.5 -334 c 128,-1,7
 269 -354 269 -354 269 -365 c 0,8,9
 269 -385 269 -385 281.5 -399.5 c 128,-1,10
 294 -414 294 -414 325 -414 c 0,11,12
 352 -414 352 -414 381.5 -400.5 c 128,-1,13
 411 -387 411 -387 435.5 -365 c 128,-1,14
 460 -343 460 -343 476 -314.5 c 128,-1,15
 492 -286 492 -286 492 -256 c 0,16,17
 492 -235 492 -235 480 -220.5 c 128,-1,18
 468 -206 468 -206 436 -206 c 0,19,20
 333 -206 333 -206 333 -103 c 0,21,22
 333 -84 333 -84 338 -71 c 1,23,-1
 364 25 l 1,24,25
 276 59 276 59 226.5 137 c 128,-1,26
 177 215 177 215 177 334 c 0,27,28
 177 412 177 412 195 494.5 c 128,-1,29
 213 577 213 577 243.5 653 c 128,-1,30
 274 729 274 729 314.5 794 c 128,-1,31
 355 859 355 859 398 902 c 0,32,33
 535 1038 535 1038 731 1038 c 0,34,35
 845 1038 845 1038 922 989.5 c 128,-1,36
 999 941 999 941 1036 856 c 0,37,38
 1042 842 1042 842 1044.5 829 c 128,-1,39
 1047 816 1047 816 1047 805 c 0,40,41
 1047 788 1047 788 1038.5 771.5 c 128,-1,42
 1030 755 1030 755 1014 741 c 128,-1,43
 998 727 998 727 976 718.5 c 128,-1,44
 954 710 954 710 928 710 c 0,45,46
 872 710 872 710 844 777 c 0,47,48
 822 830 822 830 731 830 c 0,49,50
 614 830 614 830 533.5 745 c 128,-1,51
 453 660 453 660 409 492 c 1,52,53
 384 401 384 401 384 334 c 0,54,55
 384 276 384 276 402.5 246.5 c 128,-1,56
 421 217 421 217 471 209 c 1,57,-1
 480 209 l 2,58,59
 485 209 485 209 491.5 208.5 c 128,-1,60
 498 208 498 208 506 207 c 1,61,-1
 509 207 l 2,62,63
 568 207 568 207 614.5 227 c 128,-1,64
 661 247 661 247 703 289 c 1,65,66
 738 326 738 326 776 326 c 0,67,68
 795 326 795 326 814 316 c 128,-1,69
 833 306 833 306 849.5 290 c 128,-1,70
 866 274 866 274 876 254.5 c 128,-1,71
 886 235 886 235 886 217 c 0,72,73
 886 192 886 192 867 165 c 128,-1,74
 848 138 848 138 819.5 113.5 c 128,-1,75
 791 89 791 89 757.5 69 c 128,-1,76
 724 49 724 49 695 37 c 256,77,78
 666 25 666 25 635 16.5 c 128,-1,79
 604 8 604 8 573 4 c 1,80,-1
 564 -28 l 1,81,82
 629 -62 629 -62 664.5 -123.5 c 128,-1,83
 700 -185 700 -185 700 -256 c 0,84,85
 700 -324 700 -324 669 -389.5 c 128,-1,86
 638 -455 638 -455 586.5 -506.5 c 128,-1,87
 535 -558 535 -558 467 -589.5 c 128,-1,88
 399 -621 399 -621 325 -621 c 0,89,90
 269 -621 269 -621 221.5 -602 c 128,-1,91
 174 -583 174 -583 138.5 -548.5 c 128,-1,92
 103 -514 103 -514 83 -467.5 c 128,-1,93
 63 -421 63 -421 63 -365 c 0,94,95
 63 -322 63 -322 73 -284 c 1,0,1
EndSplineSet
EndChar
StartChar: iacute
Encoding: 237 237 158
Width: 535
Flags: W
LayerCount: 2
Back
Fore
SplineSet
388 960 m 2,0,1
 409 1039 409 1039 478 1039 c 0,2,3
 535 1039 535 1039 564.5 1011 c 128,-1,4
 594 983 594 983 594 945 c 0,5,6
 594 928 594 928 588 907 c 2,7,-1
 366 77 l 2,8,9
 345 -1 345 -1 276 -1 c 0,10,11
 219 -1 219 -1 189.5 26.5 c 128,-1,12
 160 54 160 54 160 92 c 0,13,14
 160 101 160 101 161 110.5 c 128,-1,15
 162 120 162 120 165 131 c 2,16,-1
 388 960 l 2,0,1
669 1198 m 1,17,18
 645 1175 645 1175 608 1175 c 0,19,20
 563 1175 563 1175 532 1204.5 c 128,-1,21
 501 1234 501 1234 501 1280 c 0,22,23
 501 1304 501 1304 511.5 1324.5 c 128,-1,24
 522 1345 522 1345 541 1360 c 2,25,-1
 804 1567 l 2,26,27
 831 1589 831 1589 869 1589 c 0,28,29
 890 1589 890 1589 909 1580.5 c 128,-1,30
 928 1572 928 1572 941.5 1558.5 c 128,-1,31
 955 1545 955 1545 963.5 1526.5 c 128,-1,32
 972 1508 972 1508 972 1487 c 0,33,34
 972 1436 972 1436 932 1404 c 2,35,-1
 669 1198 l 1,17,18
EndSplineSet
EndChar
StartChar: divide
Encoding: 247 247 165
Width: 941
Flags: W
LayerCount: 2
Back
Fore
SplineSet
187 443 m 2,0,1
 83 443 83 443 83 546 c 0,2,3
 83 651 83 651 187 651 c 2,4,-1
 881 651 l 2,5,6
 985 651 985 651 985 546 c 0,7,8
 985 443 985 443 881 443 c 2,9,-1
 187 443 l 2,0,1
506 79 m 1,10,11
 485 0 485 0 418 0 c 0,12,13
 389 0 389 0 367.5 8 c 128,-1,14
 346 16 346 16 331 29 c 128,-1,15
 316 42 316 42 308.5 59 c 128,-1,16
 301 76 301 76 301 94 c 256,17,18
 301 112 301 112 307 133 c 1,19,-1
 307 135 l 1,20,21
 328 214 328 214 394 214 c 0,22,23
 452 214 452 214 482.5 186.5 c 128,-1,24
 513 159 513 159 513 122 c 0,25,26
 513 103 513 103 507 82 c 2,27,-1
 506 79 l 1,10,11
743 950 m 0,28,29
 722 872 722 872 654 872 c 0,30,31
 597 872 597 872 567.5 900 c 128,-1,32
 538 928 538 928 538 965 c 0,33,34
 538 1025 538 1025 565 1056 c 128,-1,35
 592 1087 592 1087 630 1087 c 0,36,37
 688 1087 688 1087 717.5 1057.5 c 128,-1,38
 747 1028 747 1028 747 987 c 0,39,40
 747 967 747 967 743 950 c 0,28,29
EndSplineSet
EndChar
StartChar: udieresis
Encoding: 252 252 93
Width: 1005
Flags: W
LayerCount: 2
Back
Fore
SplineSet
788 441 m 2,0,-1
 926 960 l 2,1,2
 947 1040 947 1040 1015 1040 c 0,3,4
 1043 1040 1043 1040 1065.5 1032 c 128,-1,5
 1088 1024 1088 1024 1102.5 1010.5 c 128,-1,6
 1117 997 1117 997 1125 980.5 c 128,-1,7
 1133 964 1133 964 1133 945 c 0,8,9
 1133 928 1133 928 1127 907 c 2,10,-1
 905 77 l 2,11,12
 884 -1 884 -1 815 -1 c 0,13,14
 781 -1 781 -1 754.5 13 c 128,-1,15
 728 27 728 27 713 56 c 1,16,17
 604 0 604 0 494 0 c 0,18,19
 423 0 423 0 360.5 24 c 128,-1,20
 298 48 298 48 251.5 92.5 c 128,-1,21
 205 137 205 137 178 198 c 128,-1,22
 151 259 151 259 151 334 c 0,23,24
 151 386 151 386 166 441 c 2,25,-1
 304 960 l 2,26,27
 325 1040 325 1040 392 1040 c 0,28,29
 450 1040 450 1040 480.5 1011.5 c 128,-1,30
 511 983 511 983 511 945 c 0,31,32
 511 928 511 928 505 907 c 2,33,-1
 365 388 l 2,34,35
 358 364 358 364 358 334 c 0,36,37
 358 272 358 272 394.5 239.5 c 128,-1,38
 431 207 431 207 494 207 c 0,39,40
 539 207 539 207 586 226 c 128,-1,41
 633 245 633 245 673.5 277.5 c 128,-1,42
 714 310 714 310 744.5 352 c 128,-1,43
 775 394 775 394 788 441 c 2,0,-1
987 1377 m 1,44,45
 1008 1455 1008 1455 1075 1455 c 0,46,47
 1103 1455 1103 1455 1125 1447.5 c 128,-1,48
 1147 1440 1147 1440 1162 1426.5 c 128,-1,49
 1177 1413 1177 1413 1185 1396.5 c 128,-1,50
 1193 1380 1193 1380 1193 1361 c 0,51,52
 1193 1343 1193 1343 1187 1323 c 1,53,-1
 1187 1321 l 1,54,55
 1164 1241 1164 1241 1099 1241 c 0,56,57
 1040 1241 1040 1241 1010 1268.5 c 128,-1,58
 980 1296 980 1296 980 1334 c 0,59,60
 980 1351 980 1351 986 1374 c 1,61,-1
 987 1377 l 1,44,45
500 1377 m 1,62,63
 521 1455 521 1455 587 1455 c 0,64,65
 616 1455 616 1455 638 1447.5 c 128,-1,66
 660 1440 660 1440 675 1426.5 c 128,-1,67
 690 1413 690 1413 697.5 1396.5 c 128,-1,68
 705 1380 705 1380 705 1361 c 0,69,70
 705 1343 705 1343 699 1323 c 1,71,-1
 699 1321 l 1,72,73
 677 1241 677 1241 612 1241 c 0,74,75
 553 1241 553 1241 523 1268.5 c 128,-1,76
 493 1296 493 1296 493 1334 c 0,77,78
 493 1351 493 1351 499 1374 c 1,79,-1
 500 1377 l 1,62,63
EndSplineSet
EndChar
StartChar: thorn
Encoding: 254 254 182
Width: 1103
Flags: W
LayerCount: 2
Back
Fore
SplineSet
509 1376 m 2,0,1
 530 1454 530 1454 597 1454 c 0,2,3
 625 1454 625 1454 647 1446.5 c 128,-1,4
 669 1439 669 1439 684 1425.5 c 128,-1,5
 699 1412 699 1412 706.5 1395.5 c 128,-1,6
 714 1379 714 1379 714 1360 c 0,7,8
 714 1342 714 1342 709 1322 c 2,9,-1
 623 1000 l 1,10,11
 665 1020 665 1020 713 1029 c 128,-1,12
 761 1038 761 1038 811 1038 c 0,13,14
 882 1038 882 1038 943 1017 c 128,-1,15
 1004 996 1004 996 1048.5 954.5 c 128,-1,16
 1093 913 1093 913 1118 850 c 128,-1,17
 1143 787 1143 787 1143 704 c 0,18,19
 1143 626 1143 626 1125 543.5 c 128,-1,20
 1107 461 1107 461 1076 384.5 c 128,-1,21
 1045 308 1045 308 1005 243 c 128,-1,22
 965 178 965 178 922 136 c 0,23,24
 783 0 783 0 589 0 c 0,25,26
 526 0 526 0 471.5 15.5 c 128,-1,27
 417 31 417 31 374 63 c 1,28,-1
 266 -337 l 1,29,30
 246 -416 246 -416 179 -416 c 0,31,32
 122 -416 122 -416 92 -388 c 128,-1,33
 62 -360 62 -360 62 -322 c 0,34,35
 62 -305 62 -305 68 -284 c 2,36,-1
 509 1376 l 2,0,1
484 469 m 1,37,38
 480 460 480 460 479 447 c 2,39,-1
 464 334 l 1,40,-1
 465 334 l 1,41,42
 465 287 465 287 475 261 c 128,-1,43
 485 235 485 235 502 223 c 128,-1,44
 519 211 519 211 541.5 209 c 128,-1,45
 564 207 564 207 589 207 c 0,46,47
 706 207 706 207 785.5 291.5 c 128,-1,48
 865 376 865 376 911 545 c 0,49,50
 936 637 936 637 936 704 c 0,51,52
 936 734 936 734 931 758 c 128,-1,53
 926 782 926 782 911.5 798 c 128,-1,54
 897 814 897 814 873 822 c 128,-1,55
 849 830 849 830 811 830 c 0,56,57
 757 830 757 830 710 809 c 128,-1,58
 663 788 663 788 626.5 756.5 c 128,-1,59
 590 725 590 725 565 687.5 c 128,-1,60
 540 650 540 650 529 617 c 2,61,-1
 503 541 l 2,62,63
 503 540 503 540 501.5 535.5 c 128,-1,64
 500 531 500 531 496 517 c 0,65,66
 495 517 495 517 484 469 c 1,37,38
EndSplineSet
EndChar
StartChar: OE
Encoding: 338 338 117
Width: 1991
Flags: W
LayerCount: 2
Back
Fore
SplineSet
2091 1452 m 2,0,1
 2195 1452 2195 1452 2195 1348 c 0,2,3
 2195 1245 2195 1245 2091 1245 c 2,4,-1
 1341 1245 l 1,5,-1
 1229 830 l 1,6,-1
 1717 830 l 2,7,8
 1821 830 1821 830 1821 726 c 256,9,10
 1821 622 1821 622 1717 622 c 2,11,-1
 1174 622 l 1,12,-1
 1063 207 l 1,13,-1
 1758 207 l 2,14,15
 1861 207 1861 207 1861 104 c 0,16,17
 1861 0 1861 0 1758 0 c 2,18,-1
 928 0 l 2,19,20
 886 0 886 0 859 20.5 c 128,-1,21
 832 41 832 41 825 66 c 1,22,23
 694 0 694 0 558 0 c 0,24,25
 441 0 441 0 363 32 c 128,-1,26
 285 64 285 64 238 119 c 128,-1,27
 191 174 191 174 171 247.5 c 128,-1,28
 151 321 151 321 151 404 c 0,29,30
 151 445 151 445 156.5 489.5 c 128,-1,31
 162 534 162 534 170.5 578.5 c 128,-1,32
 179 623 179 623 189.5 667 c 128,-1,33
 200 711 200 711 211 753 c 0,34,35
 231 826 231 826 257.5 907 c 128,-1,36
 284 988 284 988 322 1065.5 c 128,-1,37
 360 1143 360 1143 411.5 1213 c 128,-1,38
 463 1283 463 1283 531.5 1336.5 c 128,-1,39
 600 1390 600 1390 689.5 1421 c 128,-1,40
 779 1452 779 1452 892 1452 c 0,41,42
 972 1452 972 1452 1036 1430.5 c 128,-1,43
 1100 1409 1100 1409 1160 1366 c 1,44,-1
 1161 1370 l 1,45,46
 1175 1452 1175 1452 1262 1452 c 2,47,-1
 2091 1452 l 2,0,1
1024 1209 m 1,48,49
 972 1245 972 1245 892 1245 c 0,50,51
 810 1245 810 1245 746.5 1220 c 128,-1,52
 683 1195 683 1195 635 1152.5 c 128,-1,53
 587 1110 587 1110 551.5 1055 c 128,-1,54
 516 1000 516 1000 489.5 940 c 128,-1,55
 463 880 463 880 444.5 818 c 128,-1,56
 426 756 426 756 411 700 c 0,57,58
 401 663 401 663 391.5 624.5 c 128,-1,59
 382 586 382 586 375 547.5 c 128,-1,60
 368 509 368 509 363.5 472.5 c 128,-1,61
 359 436 359 436 359 404 c 0,62,63
 359 363 359 363 366 327 c 128,-1,64
 373 291 373 291 395 264.5 c 128,-1,65
 417 238 417 238 455.5 222.5 c 128,-1,66
 494 207 494 207 558 207 c 0,67,68
 651 207 651 207 738 253 c 128,-1,69
 825 299 825 299 893 376 c 1,70,-1
 994 748 l 1,71,72
 995 757 995 757 996 759 c 2,73,-1
 1093 1118 l 1,74,75
 1071 1175 1071 1175 1024 1209 c 1,48,49
EndSplineSet
EndChar
StartChar: scaron
Encoding: 353 353 187
Width: 964
Flags: W
LayerCount: 2
Back
Fore
SplineSet
1023 891 m 0,0,1
 1039 861 1039 861 1039 834 c 0,2,3
 1039 818 1039 818 1029.5 800 c 128,-1,4
 1020 782 1020 782 1004.5 768 c 128,-1,5
 989 754 989 754 967 744.5 c 128,-1,6
 945 735 945 735 922 735 c 0,7,8
 871 735 871 735 840 795 c 1,9,10
 832 805 832 805 810 815 c 1,11,-1
 810 814 l 1,12,13
 761 830 761 830 697 830 c 0,14,15
 648 830 648 830 605.5 816 c 128,-1,16
 563 802 563 802 532.5 780 c 128,-1,17
 502 758 502 758 485 731.5 c 128,-1,18
 468 705 468 705 468 680 c 0,19,20
 468 654 468 654 499 639 c 128,-1,21
 530 624 530 624 589 622 c 1,22,23
 658 617 658 617 715.5 598 c 128,-1,24
 773 579 773 579 814 546 c 128,-1,25
 855 513 855 513 877 467.5 c 128,-1,26
 899 422 899 422 899 365 c 0,27,28
 899 306 899 306 868 241.5 c 128,-1,29
 837 177 837 177 780.5 123.5 c 128,-1,30
 724 70 724 70 643 35 c 128,-1,31
 562 0 562 0 462 0 c 0,32,33
 415 0 415 0 371 9.5 c 128,-1,34
 327 19 327 19 286 38 c 1,35,-1
 286 37 l 1,36,37
 254 52 254 52 226 73 c 128,-1,38
 198 94 198 94 176 119 c 128,-1,39
 154 144 154 144 142 172.5 c 128,-1,40
 130 201 130 201 130 231 c 0,41,42
 130 249 130 249 138 266 c 128,-1,43
 146 283 146 283 161.5 297 c 128,-1,44
 177 311 177 311 198.5 319 c 128,-1,45
 220 327 220 327 247 327 c 0,46,47
 303 327 303 327 331 259 c 0,48,49
 339 240 339 240 373 226 c 1,50,-1
 373 225 l 1,51,52
 410 206 410 206 459 206 c 0,53,54
 502 206 502 206 544.5 220 c 128,-1,55
 587 234 587 234 620 256.5 c 128,-1,56
 653 279 653 279 673 307.5 c 128,-1,57
 693 336 693 336 693 365 c 0,58,59
 693 387 693 387 661.5 399 c 128,-1,60
 630 411 630 411 577 416 c 1,61,62
 506 420 506 420 448 439 c 128,-1,63
 390 458 390 458 349 492 c 128,-1,64
 308 526 308 526 284.5 573 c 128,-1,65
 261 620 261 620 261 681 c 0,66,67
 261 741 261 741 291 804 c 128,-1,68
 321 867 321 867 378 918.5 c 128,-1,69
 435 970 435 970 517 1003.5 c 128,-1,70
 599 1037 599 1037 704 1037 c 0,71,72
 820 1037 820 1037 902 999.5 c 128,-1,73
 984 962 984 962 1023 891 c 0,0,1
948 1474 m 1,74,75
 987 1495 987 1495 1018 1495 c 0,76,77
 1037 1495 1037 1495 1054.5 1486 c 128,-1,78
 1072 1477 1072 1477 1086 1463 c 128,-1,79
 1100 1449 1100 1449 1107.5 1430 c 128,-1,80
 1115 1411 1115 1411 1115 1392 c 0,81,82
 1115 1349 1115 1349 1076 1311 c 1,83,-1
 888 1164 l 1,84,85
 851 1141 851 1141 821 1141 c 0,86,87
 778 1141 778 1141 743 1180 c 0,88,89
 742 1182 742 1182 714.5 1219.5 c 128,-1,90
 687 1257 687 1257 633 1332 c 1,91,92
 614 1362 614 1362 614 1394 c 0,93,94
 614 1411 614 1411 621.5 1429.5 c 128,-1,95
 629 1448 629 1448 642.5 1462.5 c 128,-1,96
 656 1477 656 1477 675 1487 c 128,-1,97
 694 1497 694 1497 716 1497 c 0,98,99
 759 1497 759 1497 800 1454 c 1,100,-1
 844 1393 l 1,101,-1
 948 1474 l 1,74,75
EndSplineSet
EndChar
StartChar: Zcaron
Encoding: 381 381 186
Width: 1265
Flags: W
LayerCount: 2
Back
Fore
SplineSet
498 1245 m 2,0,1
 394 1245 394 1245 394 1348 c 0,2,3
 394 1452 394 1452 498 1452 c 2,4,-1
 1328 1452 l 2,5,6
 1432 1452 1432 1452 1432 1348 c 0,7,8
 1432 1301 1432 1301 1398 1274 c 1,9,-1
 403 207 l 1,10,-1
 995 207 l 2,11,12
 1098 207 1098 207 1098 104 c 0,13,14
 1098 0 1098 0 995 0 c 2,15,-1
 164 0 l 2,16,17
 141 0 141 0 120.5 10.5 c 128,-1,18
 100 21 100 21 86 36 c 128,-1,19
 72 51 72 51 64 69 c 128,-1,20
 56 87 56 87 56 103 c 0,21,22
 56 121 56 121 64 139 c 128,-1,23
 72 157 72 157 88 175 c 2,24,-1
 1089 1245 l 1,25,-1
 498 1245 l 2,0,1
1100 1841 m 1,26,27
 1138 1861 1138 1861 1169 1861 c 0,28,29
 1188 1861 1188 1861 1205.5 1852.5 c 128,-1,30
 1223 1844 1223 1844 1237 1829.5 c 128,-1,31
 1251 1815 1251 1815 1259 1796.5 c 128,-1,32
 1267 1778 1267 1778 1267 1758 c 0,33,34
 1267 1716 1267 1716 1227 1678 c 1,35,-1
 1040 1530 l 1,36,37
 1003 1508 1003 1508 972 1508 c 0,38,39
 930 1508 930 1508 894 1547 c 0,40,41
 893 1549 893 1549 865.5 1586 c 128,-1,42
 838 1623 838 1623 784 1698 c 1,43,44
 766 1730 766 1730 766 1761 c 0,45,46
 766 1778 766 1778 773 1796 c 128,-1,47
 780 1814 780 1814 794 1829 c 128,-1,48
 808 1844 808 1844 826.5 1853.5 c 128,-1,49
 845 1863 845 1863 868 1863 c 0,50,51
 910 1863 910 1863 951 1821 c 1,52,-1
 996 1759 l 1,53,-1
 1100 1841 l 1,26,27
EndSplineSet
EndChar
StartChar: florin
Encoding: 402 402 215
Width: 745
Flags: W
LayerCount: 2
Back
Fore
SplineSet
437 -102 m 2,0,1
 437 -162 437 -162 414 -218 c 128,-1,2
 391 -274 391 -274 349.5 -317.5 c 128,-1,3
 308 -361 308 -361 250.5 -387 c 128,-1,4
 193 -413 193 -413 124 -413 c 0,5,6
 103 -413 103 -413 85 -404.5 c 128,-1,7
 67 -396 67 -396 53.5 -382 c 128,-1,8
 40 -368 40 -368 32.5 -349 c 128,-1,9
 25 -330 25 -330 25 -310 c 0,10,11
 25 -288 25 -288 33 -269.5 c 128,-1,12
 41 -251 41 -251 55 -236.5 c 128,-1,13
 69 -222 69 -222 87.5 -214 c 128,-1,14
 106 -206 106 -206 127 -206 c 0,15,16
 145 -206 145 -206 164 -199 c 128,-1,17
 183 -192 183 -192 197.5 -178 c 128,-1,18
 212 -164 212 -164 221 -145 c 128,-1,19
 230 -126 230 -126 230 -102 c 2,20,-1
 230 830 l 1,21,-1
 201 830 l 2,22,23
 157 830 157 830 127.5 859.5 c 128,-1,24
 98 889 98 889 98 934 c 0,25,26
 98 954 98 954 106 973 c 128,-1,27
 114 992 114 992 128 1006 c 128,-1,28
 142 1020 142 1020 161 1029 c 128,-1,29
 180 1038 180 1038 201 1038 c 2,30,-1
 230 1038 l 1,31,-1
 230 1142 l 2,32,33
 230 1177 230 1177 235 1203.5 c 128,-1,34
 240 1230 240 1230 247.5 1250.5 c 128,-1,35
 255 1271 255 1271 264 1286 c 128,-1,36
 273 1301 273 1301 282 1315 c 1,37,38
 300 1339 300 1339 326 1364 c 128,-1,39
 352 1389 352 1389 385 1408.5 c 128,-1,40
 418 1428 418 1428 457.5 1440 c 128,-1,41
 497 1452 497 1452 543 1452 c 0,42,43
 564 1452 564 1452 583 1444 c 128,-1,44
 602 1436 602 1436 616 1422 c 128,-1,45
 630 1408 630 1408 638.5 1389 c 128,-1,46
 647 1370 647 1370 647 1349 c 256,47,48
 647 1328 647 1328 638.5 1309 c 128,-1,49
 630 1290 630 1290 615.5 1276 c 128,-1,50
 601 1262 601 1262 582 1254 c 128,-1,51
 563 1246 563 1246 542 1246 c 0,52,53
 519 1246 519 1246 500 1237 c 128,-1,54
 481 1228 481 1228 467 1214 c 128,-1,55
 453 1200 453 1200 445.5 1181.5 c 128,-1,56
 438 1163 438 1163 438 1142 c 2,57,-1
 438 1038 l 1,58,-1
 541 1038 l 2,59,60
 562 1038 562 1038 581 1029.5 c 128,-1,61
 600 1021 600 1021 614.5 1007 c 128,-1,62
 629 993 629 993 637.5 973.5 c 128,-1,63
 646 954 646 954 646 934 c 0,64,65
 646 911 646 911 637 892.5 c 128,-1,66
 628 874 628 874 613.5 860 c 128,-1,67
 599 846 599 846 580.5 838 c 128,-1,68
 562 830 562 830 541 830 c 2,69,-1
 438 830 l 1,70,-1
 437 -102 l 2,0,1
EndSplineSet
EndChar
StartChar: tilde
Encoding: 732 732 96
Width: 1294
Flags: W
LayerCount: 2
Back
Fore
SplineSet
972 1225 m 1,0,1
 939 1201 939 1201 902 1201 c 256,2,3
 865 1201 865 1201 825 1228 c 1,4,5
 797 1264 797 1264 797 1300 c 0,6,7
 797 1339 797 1339 828 1375 c 1,8,9
 881 1426 881 1426 931 1447 c 128,-1,10
 981 1468 981 1468 1029 1468 c 0,11,12
 1066 1468 1066 1468 1099 1458.5 c 128,-1,13
 1132 1449 1132 1449 1161.5 1433.5 c 128,-1,14
 1191 1418 1191 1418 1218 1398.5 c 128,-1,15
 1245 1379 1245 1379 1272 1359 c 1,16,-1
 1274 1358 l 1,17,18
 1299 1337 1299 1337 1328.5 1318.5 c 128,-1,19
 1358 1300 1358 1300 1381 1300 c 0,20,21
 1394 1300 1394 1300 1409 1309 c 128,-1,22
 1424 1318 1424 1318 1440 1328 c 128,-1,23
 1456 1338 1456 1338 1474 1347 c 128,-1,24
 1492 1356 1492 1356 1509 1356 c 0,25,26
 1529 1356 1529 1356 1547.5 1347.5 c 128,-1,27
 1566 1339 1566 1339 1580.5 1325 c 128,-1,28
 1595 1311 1595 1311 1604 1293 c 128,-1,29
 1613 1275 1613 1275 1613 1254 c 0,30,31
 1613 1215 1613 1215 1585 1185.5 c 128,-1,32
 1557 1156 1557 1156 1519.5 1135.5 c 128,-1,33
 1482 1115 1482 1115 1443.5 1105.5 c 128,-1,34
 1405 1096 1405 1096 1385 1096 c 0,35,36
 1325 1096 1325 1096 1262 1124.5 c 128,-1,37
 1199 1153 1199 1153 1146 1195 c 1,38,-1
 1145 1196 l 1,39,40
 1114 1219 1114 1219 1084 1239.5 c 128,-1,41
 1054 1260 1054 1260 1035 1260 c 0,42,43
 1009 1260 1009 1260 972 1225 c 1,0,1
EndSplineSet
EndChar
StartChar: emdash
Encoding: 8212 8212 180
Width: 1238
Flags: W
LayerCount: 2
Back
Fore
SplineSet
187 312 m 2,0,1
 83 312 83 312 83 415 c 0,2,3
 83 519 83 519 187 519 c 2,4,-1
 1016 519 l 2,5,6
 1120 519 1120 519 1120 415 c 0,7,8
 1120 312 1120 312 1016 312 c 2,9,-1
 187 312 l 2,0,1
EndSplineSet
EndChar
StartChar: quoteleft
Encoding: 8216 8216 176
Width: 548
Flags: W
LayerCount: 2
Back
Fore
SplineSet
471 1053 m 2,0,1
 452 973 452 973 380 973 c 0,2,3
 323 973 323 973 294 1000.5 c 128,-1,4
 265 1028 265 1028 265 1067 c 0,5,6
 265 1085 265 1085 269 1102 c 2,7,-1
 313 1281 l 1,8,9
 323 1326 323 1326 352.5 1359.5 c 128,-1,10
 382 1393 382 1393 435 1422 c 0,11,12
 468 1440 468 1440 495 1440 c 0,13,14
 512 1440 512 1440 529 1430 c 128,-1,15
 546 1420 546 1420 560.5 1404 c 128,-1,16
 575 1388 575 1388 584.5 1366.5 c 128,-1,17
 594 1345 594 1345 594 1322 c 0,18,19
 594 1273 594 1273 535 1240 c 0,20,21
 522 1233 522 1233 512 1225 c 1,22,-1
 471 1053 l 2,0,1
EndSplineSet
EndChar
StartChar: quoteright
Encoding: 8217 8217 177
Width: 597
Flags: W
LayerCount: 2
Back
Fore
SplineSet
402 1373 m 2,0,1
 421 1453 421 1453 492 1453 c 0,2,3
 549 1453 549 1453 578 1425 c 128,-1,4
 607 1397 607 1397 607 1358 c 0,5,6
 607 1340 607 1340 603 1325 c 2,7,-1
 559 1145 l 2,8,9
 554 1123 554 1123 545.5 1104.5 c 128,-1,10
 537 1086 537 1086 522.5 1069 c 128,-1,11
 508 1052 508 1052 487.5 1036.5 c 128,-1,12
 467 1021 467 1021 437 1004 c 0,13,14
 405 987 405 987 377 987 c 0,15,16
 361 987 361 987 343.5 996.5 c 128,-1,17
 326 1006 326 1006 312 1022.5 c 128,-1,18
 298 1039 298 1039 288.5 1060 c 128,-1,19
 279 1081 279 1081 279 1104 c 0,20,21
 279 1154 279 1154 338 1186 c 0,22,23
 351 1193 351 1193 361 1201 c 1,24,-1
 402 1373 l 2,0,1
EndSplineSet
EndChar
StartChar: quotedblbase
Encoding: 8222 8222 86
Width: 843
Flags: W
LayerCount: 2
Back
Fore
SplineSet
118 140 m 2,0,1
 137 219 137 219 207 219 c 0,2,3
 264 219 264 219 293.5 191.5 c 128,-1,4
 323 164 323 164 323 127 c 0,5,6
 323 112 323 112 318 90 c 2,7,-1
 275 -87 l 1,8,9
 256 -171 256 -171 153 -229 c 0,10,11
 122 -247 122 -247 94 -247 c 0,12,13
 78 -247 78 -247 60 -237.5 c 128,-1,14
 42 -228 42 -228 28 -212 c 128,-1,15
 14 -196 14 -196 4.5 -174 c 128,-1,16
 -5 -152 -5 -152 -5 -129 c 0,17,18
 -5 -112 -5 -112 0.5 -99.5 c 128,-1,19
 6 -87 6 -87 16.5 -76.5 c 128,-1,20
 27 -66 27 -66 42 -55.5 c 128,-1,21
 57 -45 57 -45 76 -32 c 1,22,-1
 118 140 l 2,0,1
580 140 m 2,23,24
 590 180 590 180 611 200 c 128,-1,25
 632 220 632 220 667 220 c 0,26,27
 725 220 725 220 754.5 192 c 128,-1,28
 784 164 784 164 784 126 c 0,29,30
 784 107 784 107 780 90 c 2,31,-1
 737 -87 l 2,32,33
 726 -130 726 -130 698 -164 c 128,-1,34
 670 -198 670 -198 615 -229 c 0,35,36
 584 -247 584 -247 556 -247 c 0,37,38
 540 -247 540 -247 522 -237 c 128,-1,39
 504 -227 504 -227 490 -211 c 128,-1,40
 476 -195 476 -195 466.5 -173.5 c 128,-1,41
 457 -152 457 -152 457 -129 c 0,42,43
 457 -111 457 -111 462.5 -99 c 128,-1,44
 468 -87 468 -87 478 -77.5 c 128,-1,45
 488 -68 488 -68 503.5 -57.5 c 128,-1,46
 519 -47 519 -47 539 -32 c 1,47,-1
 580 140 l 2,23,24
EndSplineSet
EndChar
StartChar: guilsinglleft
Encoding: 8249 8249 189
Width: 983
Flags: W
LayerCount: 2
Back
Fore
SplineSet
918 1023 m 2,0,1
 942 1037 942 1037 968 1037 c 0,2,3
 989 1037 989 1037 1008 1029 c 128,-1,4
 1027 1021 1027 1021 1041 1007.5 c 128,-1,5
 1055 994 1055 994 1063.5 975 c 128,-1,6
 1072 956 1072 956 1072 935 c 0,7,8
 1072 904 1072 904 1058 881 c 128,-1,9
 1044 858 1044 858 1020 844 c 2,10,-1
 419 503 l 1,11,-1
 812 184 l 2,12,13
 849 154 849 154 849 102 c 0,14,15
 849 81 849 81 840.5 62.5 c 128,-1,16
 832 44 832 44 818.5 30.5 c 128,-1,17
 805 17 805 17 786.5 9 c 128,-1,18
 768 1 768 1 749 1 c 0,19,20
 710 1 710 1 681 24 c 2,21,-1
 173 436 l 2,22,23
 172 437 172 437 165 442.5 c 128,-1,24
 158 448 158 448 150.5 458.5 c 128,-1,25
 143 469 143 469 137.5 483.5 c 128,-1,26
 132 498 132 498 132 518 c 0,27,28
 132 549 132 549 145.5 571.5 c 128,-1,29
 159 594 159 594 185 608 c 2,30,-1
 918 1023 l 2,0,1
EndSplineSet
EndChar
StartChar: guilsinglright
Encoding: 8250 8250 191
Width: 1044
Flags: W
LayerCount: 2
Back
Fore
SplineSet
357 853 m 2,0,1
 337 870 337 870 327 889.5 c 128,-1,2
 317 909 317 909 317 936 c 0,3,4
 317 956 317 956 325.5 974.5 c 128,-1,5
 334 993 334 993 349 1007 c 128,-1,6
 364 1021 364 1021 382.5 1029 c 128,-1,7
 401 1037 401 1037 422 1037 c 0,8,9
 459 1037 459 1037 487 1014 c 2,10,-1
 998 599 l 1,11,12
 1036 565 1036 565 1036 517 c 0,13,14
 1036 484 1036 484 1013 453 c 1,15,-1
 999 439 l 2,16,17
 995 435 995 435 991 432.5 c 128,-1,18
 987 430 987 430 984 429 c 2,19,-1
 251 14 l 2,20,21
 225 0 225 0 199 0 c 0,22,23
 177 0 177 0 158 9 c 128,-1,24
 139 18 139 18 125 32 c 128,-1,25
 111 46 111 46 103 65 c 128,-1,26
 95 84 95 84 95 103 c 0,27,28
 95 132 95 132 109.5 156 c 128,-1,29
 124 180 124 180 148 194 c 2,30,-1
 750 534 l 1,31,-1
 357 853 l 2,0,1
EndSplineSet
EndChar
StartChar: Euro
Encoding: 8364 8364 97
Width: 1157
Flags: W
LayerCount: 2
Back
Fore
SplineSet
150 429 m 1,0,1
 97 430 97 430 72 456 c 128,-1,2
 47 482 47 482 47 533 c 1,3,4
 49 583 49 583 74.5 610 c 128,-1,5
 100 637 100 637 150 637 c 2,6,-1
 183 637 l 1,7,8
 195 690 195 690 208 741 c 128,-1,9
 221 792 221 792 237 844 c 1,10,11
 160 854 160 854 158 947 c 1,12,13
 162 1048 162 1048 261 1051 c 1,14,-1
 313 1051 l 1,15,16
 351 1131 351 1131 403.5 1204.5 c 128,-1,17
 456 1278 456 1278 526.5 1333 c 128,-1,18
 597 1388 597 1388 687.5 1420 c 128,-1,19
 778 1452 778 1452 892 1452 c 0,20,21
 963 1452 963 1452 1026.5 1433 c 128,-1,22
 1090 1414 1090 1414 1142 1378 c 128,-1,23
 1194 1342 1194 1342 1232.5 1291.5 c 128,-1,24
 1271 1241 1271 1241 1291 1178 c 0,25,26
 1299 1153 1299 1153 1299 1134 c 0,27,28
 1299 1116 1299 1116 1291 1099 c 128,-1,29
 1283 1082 1283 1082 1268 1068.5 c 128,-1,30
 1253 1055 1253 1055 1231 1047.5 c 128,-1,31
 1209 1040 1209 1040 1180 1040 c 0,32,33
 1118 1040 1118 1040 1095 1114 c 1,34,35
 1071 1178 1071 1178 1019 1211.5 c 128,-1,36
 967 1245 967 1245 892 1245 c 0,37,38
 830 1245 830 1245 778 1230 c 128,-1,39
 726 1215 726 1215 684 1189 c 128,-1,40
 642 1163 642 1163 608.5 1127.5 c 128,-1,41
 575 1092 575 1092 548 1051 c 1,42,-1
 956 1051 l 2,43,44
 1006 1051 1006 1051 1032.5 1025 c 128,-1,45
 1059 999 1059 999 1059 947 c 0,46,47
 1059 896 1059 896 1032.5 870.5 c 128,-1,48
 1006 845 1006 845 956 843 c 1,49,-1
 454 843 l 1,50,51
 435 790 435 790 420.5 738.5 c 128,-1,52
 406 687 406 687 394 637 c 1,53,-1
 744 637 l 2,54,55
 848 637 848 637 848 533 c 256,56,57
 848 429 848 429 744 429 c 2,58,-1
 359 429 l 1,59,-1
 359 412 l 2,60,61
 359 369 359 369 365.5 332 c 128,-1,62
 372 295 372 295 393.5 267 c 128,-1,63
 415 239 415 239 454 223 c 128,-1,64
 493 207 493 207 558 207 c 0,65,66
 651 207 651 207 739.5 253.5 c 128,-1,67
 828 300 828 300 896 379 c 0,68,69
 932 422 932 422 972 422 c 0,70,71
 991 422 991 422 1011 411.5 c 128,-1,72
 1031 401 1031 401 1047 385.5 c 128,-1,73
 1063 370 1063 370 1073.5 350.5 c 128,-1,74
 1084 331 1084 331 1084 314 c 0,75,76
 1084 284 1084 284 1057.5 248 c 128,-1,77
 1031 212 1031 212 992 177.5 c 128,-1,78
 953 143 953 143 908.5 114 c 128,-1,79
 864 85 864 85 827 67 c 0,80,81
 692 0 692 0 558 0 c 0,82,83
 441 0 441 0 363 32 c 128,-1,84
 285 64 285 64 238 119 c 128,-1,85
 191 174 191 174 170.5 247.5 c 128,-1,86
 150 321 150 321 150 405 c 0,87,88
 150 411 150 411 150.5 417 c 128,-1,89
 151 423 151 423 151 429 c 1,90,-1
 150 429 l 1,0,1
EndSplineSet
EndChar
